{"glyphs":{"0":{"ha":925,"x_min":62,"x_max":869,"o":"m 869 479 q 868 471 869 471 q 865 472 867 471 q 861 474 863 473 q 860 468 860 475 q 860 447 860 461 q 861 417 860 432 q 861 390 861 403 q 861 374 861 378 q 856 362 861 367 q 844 358 850 358 q 837 351 838 358 q 842 340 836 345 q 853 340 846 338 q 861 336 861 343 l 861 252 q 849 224 861 236 q 833 200 836 212 q 834 193 832 195 q 838 191 836 192 q 842 187 840 189 q 839 178 843 184 q 830 158 838 172 q 812 130 822 144 q 792 101 803 115 q 770 82 781 87 q 760 84 764 79 q 753 94 755 89 q 747 103 750 100 q 739 102 745 107 q 732 86 734 96 q 727 65 730 77 q 715 44 724 54 q 690 26 707 33 q 660 10 671 18 q 635 1 648 1 q 603 2 621 1 q 574 3 585 3 q 558 8 562 3 q 546 14 554 14 q 535 7 539 14 q 524 0 530 0 l 419 0 q 397 11 400 0 q 393 33 395 22 q 381 37 392 45 q 358 21 370 29 q 339 5 347 12 q 319 -1 330 -1 q 288 -1 310 -1 q 257 0 267 0 q 241 12 250 0 q 216 28 232 24 q 176 47 193 33 q 147 72 158 61 q 139 88 139 81 q 141 103 139 96 q 144 114 143 110 q 142 119 146 118 q 124 114 132 122 q 114 113 117 106 q 105 133 113 119 q 90 163 97 147 q 76 193 82 179 q 69 214 69 207 q 74 235 69 229 q 81 248 78 240 q 79 252 82 252 q 73 255 77 253 q 66 261 69 257 q 62 273 62 265 q 62 301 62 281 q 63 346 62 322 q 64 389 64 370 q 64 412 64 408 q 70 432 64 421 q 87 443 77 443 q 101 449 97 443 q 106 460 106 454 q 101 471 106 467 q 89 473 97 475 q 70 475 74 471 q 65 490 65 479 q 65 510 65 497 q 66 539 65 524 q 66 567 66 554 q 66 585 66 581 q 70 594 66 596 q 74 603 74 593 l 74 652 q 81 659 74 656 q 94 667 87 661 q 100 679 102 671 q 89 684 98 686 q 76 680 82 677 q 71 692 71 682 q 71 708 71 697 q 74 731 72 718 q 78 754 75 743 q 83 771 81 765 q 89 772 85 775 q 99 766 93 770 q 109 760 104 762 q 115 764 114 758 q 115 775 118 770 q 109 786 113 781 q 101 798 104 791 q 100 810 97 804 q 128 854 111 833 q 151 882 144 875 q 188 889 171 893 q 211 890 204 885 q 214 903 220 897 q 215 916 208 909 q 259 942 235 929 q 294 957 283 954 q 315 961 309 960 q 325 960 321 962 q 326 950 328 956 q 326 933 323 945 q 335 928 329 924 q 346 943 342 933 q 358 954 351 951 q 371 957 364 957 q 391 959 376 957 q 416 961 406 961 q 449 960 427 961 q 484 960 472 960 q 498 956 496 960 q 507 953 500 953 l 546 953 q 551 957 553 953 q 558 961 549 961 q 580 962 567 961 q 600 962 593 962 q 606 954 607 962 q 599 939 606 945 q 596 933 595 937 q 601 926 597 929 q 609 920 604 922 q 618 922 614 918 q 629 941 625 930 q 639 951 632 951 q 657 954 646 951 q 682 947 669 956 q 699 926 696 936 q 713 908 701 916 q 719 908 717 907 q 723 912 721 909 q 727 918 725 916 q 734 917 729 920 q 768 891 749 909 q 793 865 787 873 q 803 854 799 857 q 810 850 807 851 q 817 847 814 848 q 822 839 821 846 q 831 817 828 825 q 835 798 835 808 q 827 778 835 790 q 828 747 819 765 q 834 744 829 745 q 844 742 839 743 q 855 737 850 741 q 860 725 860 733 q 857 706 860 718 q 846 694 854 694 q 835 682 836 694 q 842 669 833 669 q 856 671 848 669 q 863 667 863 673 q 863 649 863 663 q 862 619 863 635 q 861 589 861 603 q 861 571 861 575 q 865 562 861 564 q 869 549 869 559 l 869 479 l 869 479 m 591 583 q 580 583 587 585 q 565 580 572 581 q 553 582 558 579 q 549 595 549 585 q 545 632 549 616 q 542 659 542 647 q 541 674 542 669 q 533 686 541 679 q 522 697 529 692 q 507 703 514 703 q 496 703 500 703 q 492 713 492 703 q 489 729 492 721 q 481 733 486 737 q 474 717 473 726 q 468 708 475 708 q 451 707 463 708 q 433 707 440 707 q 415 703 427 707 q 399 693 404 700 q 390 678 392 688 q 378 661 387 668 q 367 656 375 659 q 353 652 359 654 q 342 646 346 650 q 342 639 338 643 q 351 632 345 635 q 363 627 357 629 q 375 620 370 624 q 380 611 380 616 q 380 586 380 606 q 380 543 380 566 q 379 502 379 521 q 379 481 379 484 q 376 473 379 475 q 368 470 372 471 q 360 468 364 469 q 357 463 357 467 q 370 449 357 453 q 383 435 383 444 q 383 415 383 431 q 384 381 383 399 q 385 346 385 363 q 385 325 385 329 q 390 315 385 318 q 395 302 395 313 q 397 289 395 294 q 407 279 399 283 q 425 250 427 269 q 428 238 425 244 q 435 228 431 232 q 443 223 439 224 q 447 228 447 222 q 454 249 449 237 q 469 260 458 260 q 500 258 481 260 q 526 257 519 256 q 541 264 538 260 q 542 275 543 269 q 538 286 541 281 q 538 296 536 292 q 547 307 541 304 q 555 315 553 309 q 555 331 558 323 q 551 350 551 339 q 554 373 551 361 q 557 395 557 385 q 552 404 557 406 q 547 411 547 403 q 547 430 547 415 q 548 464 547 446 q 549 498 549 482 q 549 518 549 514 q 561 535 549 526 q 582 546 574 543 q 598 554 593 549 q 603 566 603 559 q 600 577 603 572 q 591 583 596 582 z "},"1":{"ha":585,"x_min":28,"x_max":524,"o":"m 524 525 q 518 519 524 518 q 513 514 513 521 q 515 495 513 507 q 517 476 517 482 q 519 472 517 473 q 521 464 521 471 l 521 322 q 513 311 521 315 q 505 300 505 306 q 505 289 505 296 q 505 274 505 282 q 506 258 505 265 q 509 249 507 252 q 512 247 510 245 q 516 251 514 249 q 519 253 518 253 q 521 248 521 253 q 521 212 521 243 q 522 146 521 182 q 522 81 522 111 q 522 47 522 52 q 515 33 522 39 q 504 29 507 26 q 494 22 500 32 q 486 14 489 12 q 477 6 482 14 q 464 -1 472 -1 l 353 -1 q 335 10 340 -1 q 318 21 329 21 q 311 17 311 21 q 313 10 311 14 q 315 3 314 7 q 313 0 317 0 l 232 0 q 218 5 224 0 q 207 16 212 11 q 203 28 203 21 q 203 43 203 35 q 208 61 203 53 q 214 77 214 69 q 209 90 214 83 q 204 111 204 97 l 204 182 q 209 194 204 189 q 214 205 214 199 q 209 217 214 215 q 204 239 204 220 q 205 276 204 257 q 205 301 205 294 q 217 319 205 309 q 237 334 229 329 q 247 342 244 336 q 248 355 249 349 q 244 365 248 361 q 233 367 240 370 q 221 360 227 366 q 212 351 215 354 q 206 351 208 349 q 204 366 204 353 q 204 395 204 378 q 205 431 204 412 q 205 464 205 449 q 205 484 205 478 q 210 495 205 493 q 215 504 215 497 q 210 507 215 510 q 205 515 205 504 l 205 623 q 214 637 205 629 q 222 659 222 646 q 218 676 221 669 q 211 675 215 682 q 202 663 207 668 q 197 648 197 657 q 190 633 199 642 q 170 625 180 625 q 156 631 160 625 q 146 636 153 636 q 120 631 131 636 q 94 627 110 627 q 70 627 83 627 q 50 628 57 628 q 36 635 45 628 q 29 647 28 642 q 33 658 31 654 q 36 668 36 661 q 32 677 36 672 q 28 693 28 682 l 28 729 q 33 737 28 733 q 39 746 39 741 q 42 759 39 750 q 37 766 46 768 q 31 772 31 765 q 32 785 32 779 q 35 798 32 790 q 49 806 39 806 q 68 810 58 806 q 81 821 78 815 q 108 842 96 836 q 127 854 121 848 q 142 856 135 859 q 155 857 149 852 q 164 872 161 861 q 174 890 167 884 q 187 905 178 895 q 205 926 196 916 q 223 947 215 937 q 235 961 232 957 q 260 965 250 977 q 267 954 262 958 q 279 949 272 949 q 291 949 283 949 q 308 948 298 949 q 327 947 318 947 q 339 947 335 947 q 350 952 347 947 q 357 958 353 957 q 380 960 372 964 q 389 944 387 954 q 387 928 390 935 q 390 909 383 917 q 403 916 396 901 q 424 946 411 929 q 449 962 437 962 q 479 962 460 962 q 505 961 498 961 q 517 954 511 961 q 522 936 522 946 l 522 843 q 517 836 522 838 q 513 827 513 833 q 515 808 513 822 q 517 790 517 794 q 519 787 517 786 q 522 777 522 787 q 522 760 522 771 q 522 736 522 749 q 521 712 521 724 q 521 699 521 701 q 514 683 521 692 q 497 672 507 673 q 484 663 486 672 q 490 656 481 654 q 502 657 496 656 q 511 659 507 659 q 518 658 515 660 q 521 648 521 656 q 522 624 521 643 q 522 585 522 606 q 523 546 522 564 q 524 525 524 529 z "},"2":{"ha":810,"x_min":43,"x_max":782,"o":"m 782 86 q 780 80 782 81 q 776 79 778 79 q 772 79 774 79 q 770 74 770 78 q 769 53 770 65 q 768 33 768 41 q 762 25 768 26 q 755 18 755 24 q 749 12 755 16 q 733 5 742 8 q 713 1 724 3 q 694 -1 703 -1 q 686 1 688 -1 q 684 5 684 3 q 683 10 684 8 q 676 12 682 12 q 665 6 667 12 q 653 0 663 0 q 637 -1 648 0 q 615 -2 627 -1 q 594 -3 604 -3 q 582 -4 585 -4 q 575 4 575 -4 q 568 12 575 12 q 553 7 561 12 q 539 1 546 1 q 525 4 529 1 q 510 7 521 7 q 496 3 498 7 q 482 -1 493 -1 q 450 1 471 -1 q 421 4 429 4 q 406 4 416 4 q 384 5 396 4 q 362 5 372 5 q 347 5 351 5 q 337 16 340 5 q 328 26 334 26 q 317 15 321 26 q 309 4 314 4 q 282 5 302 4 q 256 5 262 5 q 250 12 250 5 q 253 26 250 18 q 253 35 254 31 q 248 42 252 39 q 240 45 244 46 q 232 37 236 45 q 218 15 224 26 q 205 3 212 3 q 176 2 197 3 q 139 1 154 1 q 125 7 131 1 q 117 20 119 12 q 113 35 114 28 q 110 47 111 43 q 102 48 107 54 q 89 47 97 43 q 78 55 85 49 q 65 70 72 61 q 54 87 58 78 q 49 106 49 97 q 52 121 49 117 q 57 131 54 126 q 62 139 60 135 q 62 153 64 143 q 54 167 60 164 q 47 179 47 170 q 54 198 47 187 q 66 215 60 208 q 80 230 74 222 q 94 243 86 237 q 109 252 102 248 q 123 254 115 256 q 138 255 131 252 q 151 262 146 258 q 155 273 157 268 q 144 278 153 278 q 136 288 135 278 q 144 304 138 297 q 158 315 149 307 q 179 333 168 323 q 199 351 191 343 q 212 363 208 359 q 216 368 216 366 q 214 374 215 371 q 214 382 214 378 q 221 392 215 386 q 238 411 227 396 q 260 445 249 427 q 282 478 271 463 q 298 500 293 494 q 316 522 304 507 q 341 552 328 536 q 365 581 354 568 q 378 595 375 593 q 397 597 385 597 q 406 603 410 596 q 391 612 401 610 q 387 625 380 615 q 398 637 390 629 q 413 653 406 644 q 427 672 421 663 q 432 686 432 681 q 427 708 432 699 q 408 717 421 717 q 392 723 395 717 q 383 729 390 729 q 374 719 375 729 q 368 708 374 708 q 359 710 366 708 q 345 712 353 711 q 330 711 338 713 q 318 705 322 710 q 303 691 310 697 q 296 673 296 685 q 295 658 296 668 q 292 640 294 648 q 286 624 290 631 q 277 616 282 616 q 245 620 262 616 q 218 623 228 623 q 203 630 207 623 q 197 640 200 637 q 187 641 195 644 q 182 633 179 637 q 182 624 184 629 q 174 618 179 618 q 146 621 167 618 q 114 624 126 624 q 91 627 103 624 q 79 632 78 629 q 74 630 81 635 q 65 625 68 625 q 52 635 61 625 q 43 657 43 646 q 47 669 43 661 q 52 688 52 676 q 47 703 52 699 q 43 724 43 708 q 48 748 43 732 q 60 771 54 765 q 73 787 66 778 q 86 798 79 796 q 104 809 102 803 q 94 817 106 815 q 81 822 87 819 q 81 836 74 825 q 91 853 83 842 q 107 877 98 864 q 126 899 117 889 q 142 913 135 909 q 194 941 168 925 q 235 957 220 957 q 258 956 250 957 q 272 953 267 954 q 282 950 278 951 q 294 949 286 949 q 305 951 300 949 q 315 953 310 953 q 330 943 325 953 q 340 930 335 933 q 351 927 345 925 q 359 936 358 929 q 376 953 363 953 q 394 957 383 953 q 411 961 404 961 q 437 957 429 961 q 452 953 444 953 q 461 958 458 953 q 469 962 464 962 q 485 960 476 962 q 500 951 494 958 q 512 942 505 945 q 522 947 519 940 q 531 953 525 953 q 543 953 538 953 q 557 951 550 953 q 570 943 564 950 q 576 939 572 939 q 586 940 581 939 q 597 944 591 942 q 607 943 603 946 q 622 933 611 940 q 645 917 633 926 q 668 898 657 908 q 684 878 679 888 q 690 859 690 864 q 692 846 690 854 q 705 832 692 839 q 725 815 718 825 q 718 800 730 806 q 701 789 705 794 q 703 783 700 785 q 713 778 707 781 q 726 771 720 775 q 737 760 733 766 q 743 739 743 749 q 745 718 742 729 q 745 702 747 713 q 739 679 743 690 q 730 656 734 667 q 722 639 726 646 q 702 628 715 632 q 684 612 688 624 q 686 608 682 610 q 694 606 690 607 q 703 602 699 604 q 705 591 707 599 q 696 574 703 579 q 679 553 690 568 q 676 537 676 550 q 663 509 676 525 q 643 503 656 501 q 628 501 631 505 q 628 493 625 496 q 635 488 631 490 q 642 484 639 486 q 640 475 644 481 q 614 434 627 453 q 595 408 602 415 q 578 395 583 396 q 568 396 572 393 q 558 394 566 397 q 545 385 551 390 q 537 376 539 380 q 542 372 534 372 q 554 362 555 371 q 546 350 553 354 q 537 338 543 347 q 526 319 532 329 q 513 301 519 310 q 503 289 507 292 q 492 278 500 285 q 477 264 485 272 q 463 250 469 257 q 456 239 457 243 q 460 224 453 228 q 472 233 468 220 q 488 252 479 248 q 505 256 496 256 q 522 256 510 256 q 546 255 533 256 q 570 254 558 254 q 586 254 582 254 q 615 241 604 254 q 628 233 621 235 q 632 239 635 231 q 635 254 631 248 q 648 260 639 260 q 666 260 653 260 q 693 260 679 260 q 721 261 708 261 q 736 261 733 261 q 751 254 743 261 q 757 239 760 248 q 760 216 751 216 q 775 204 775 220 q 775 188 775 200 q 774 160 775 175 q 774 131 774 144 q 774 111 774 117 q 778 97 774 100 q 782 86 782 94 z "},"3":{"ha":789,"x_min":35,"x_max":761,"o":"m 761 233 q 756 219 761 222 q 745 215 751 215 q 734 215 739 215 q 728 211 729 215 q 729 197 726 203 q 736 186 732 192 q 743 174 741 180 q 745 157 746 168 q 727 122 742 146 q 693 86 711 98 q 688 85 690 83 q 682 90 685 87 q 675 95 679 93 q 667 94 672 97 q 659 101 661 93 q 650 106 656 110 q 643 95 643 102 q 645 83 643 89 q 648 71 647 77 q 643 61 648 65 q 637 56 637 60 q 637 47 636 52 q 638 39 639 43 q 632 31 637 35 q 607 11 618 24 q 581 -1 596 -1 l 498 -1 q 484 2 488 -1 q 469 5 479 5 q 453 1 460 5 q 436 -3 447 -3 l 342 -3 q 330 3 332 -3 q 330 17 328 9 q 326 35 338 32 q 302 28 314 39 q 290 7 292 17 q 273 -3 289 -3 q 228 3 258 -3 q 179 14 197 8 q 145 34 160 20 q 123 64 131 49 q 119 68 122 69 q 114 66 117 68 q 108 62 111 64 q 102 61 104 60 q 87 77 96 65 q 70 103 78 89 q 55 130 61 117 q 49 149 49 143 q 54 175 49 168 q 54 191 60 182 q 43 198 50 196 q 36 208 36 200 q 36 229 36 212 q 35 266 36 245 q 35 303 35 286 q 35 325 35 321 q 57 343 35 343 q 80 342 62 343 q 117 340 97 340 q 154 338 138 339 q 176 336 171 336 q 188 331 186 336 q 197 326 189 326 q 205 333 205 326 q 212 339 205 339 q 229 338 221 339 q 244 338 236 338 q 250 329 253 338 q 244 317 248 321 q 242 307 240 311 q 249 301 244 302 q 260 301 254 300 q 268 309 265 302 q 274 328 272 319 q 288 336 277 336 q 305 329 298 336 q 311 317 311 321 q 308 306 311 310 q 304 296 304 302 q 309 284 304 290 q 318 271 313 278 q 345 254 325 258 q 376 250 366 250 q 392 243 386 250 q 402 229 397 236 q 411 217 407 222 q 421 216 415 212 q 425 226 425 220 q 421 238 424 232 q 418 251 419 244 q 418 262 416 258 q 432 270 424 272 q 443 277 440 268 q 452 298 446 286 q 458 321 458 310 q 451 341 458 332 q 441 358 444 351 q 421 378 439 368 q 393 389 404 389 q 381 385 380 389 q 375 380 382 380 q 361 384 368 380 q 351 396 354 387 q 347 409 349 403 q 335 415 346 415 q 323 421 325 415 q 321 435 321 428 q 324 455 321 444 q 335 468 328 465 q 344 475 343 471 q 336 479 345 479 q 326 483 328 479 q 325 493 325 486 l 325 551 q 335 568 325 558 q 357 578 345 578 l 400 578 q 415 586 408 578 q 429 600 422 595 q 445 620 436 607 q 453 657 453 633 q 443 700 453 681 q 411 718 433 718 q 391 718 401 718 q 375 717 380 717 q 364 710 368 717 q 353 704 359 704 q 344 710 345 704 q 346 722 343 715 q 339 739 351 741 q 319 718 328 737 q 301 701 315 707 q 286 689 286 696 l 286 647 q 280 637 286 642 q 271 628 273 632 q 249 618 261 618 q 239 624 241 618 q 231 631 237 631 q 225 626 225 631 q 218 621 225 621 l 161 621 q 153 624 151 621 q 149 627 155 627 l 61 627 q 42 631 50 627 q 35 643 35 636 q 41 662 35 650 q 47 686 47 675 q 43 701 47 696 q 39 717 39 705 q 46 742 39 728 q 56 766 53 755 q 67 798 58 778 q 81 825 75 818 q 95 831 87 833 q 100 839 103 829 q 93 855 96 848 q 94 872 90 861 q 106 887 97 878 q 126 906 115 896 q 148 924 138 916 q 165 935 158 932 q 175 937 172 937 q 180 935 178 936 q 185 932 182 933 q 196 933 189 930 q 225 950 211 940 q 264 964 240 960 q 276 962 273 966 q 285 957 279 957 q 307 958 290 957 q 332 958 323 958 q 346 961 339 958 q 364 964 353 964 q 378 958 372 964 q 385 945 385 951 q 399 920 383 932 q 402 924 406 916 q 401 939 399 933 q 414 954 406 946 q 429 961 422 961 l 475 961 q 504 956 492 961 q 532 950 517 950 q 546 955 543 950 q 558 960 549 960 q 571 958 562 960 q 585 954 579 957 q 596 948 591 951 q 596 939 600 945 q 593 918 590 930 q 604 916 596 905 q 643 916 623 940 q 675 877 659 896 q 699 847 692 859 q 699 840 701 843 q 691 833 696 836 q 683 829 686 831 q 681 822 679 827 q 690 813 682 818 q 706 802 697 808 q 720 789 714 796 q 726 774 726 782 q 727 755 726 770 q 728 725 728 741 q 728 695 728 710 q 726 676 728 681 q 720 665 724 668 q 711 663 715 663 q 703 663 707 663 q 700 660 700 663 q 703 651 700 657 q 708 640 705 646 q 709 625 710 633 q 701 608 708 616 q 693 604 697 604 q 684 601 689 603 q 673 594 679 599 q 661 579 668 590 q 637 549 647 553 q 629 547 635 549 q 617 543 623 546 q 609 536 611 541 q 611 526 607 532 q 630 517 621 515 q 650 511 639 518 q 667 503 657 505 q 685 489 677 500 q 689 472 690 482 q 685 455 688 463 q 681 441 682 447 q 685 437 679 436 q 694 441 690 437 q 701 450 699 446 q 708 456 704 454 q 717 456 711 458 q 742 426 730 446 q 754 392 754 407 q 758 352 754 364 q 761 326 761 339 q 759 317 761 319 q 755 315 757 315 q 751 313 753 314 q 749 309 749 313 q 750 290 749 302 q 751 262 751 278 q 756 255 751 257 q 761 233 761 253 z "},"4":{"ha":746,"x_min":33,"x_max":729,"o":"m 729 443 q 724 430 729 436 q 718 416 718 424 q 712 410 718 411 q 703 410 705 408 q 695 404 699 411 q 699 395 692 396 q 710 391 704 395 q 717 380 717 387 q 710 367 717 374 q 696 361 703 361 q 681 360 692 361 q 657 358 669 359 q 633 357 644 357 q 616 358 623 357 q 608 355 607 361 q 616 342 608 349 q 635 324 625 336 q 646 296 646 311 q 644 266 646 282 q 643 244 643 250 q 637 233 643 237 q 632 218 632 229 q 633 198 632 212 q 634 170 633 184 q 635 142 635 155 q 636 123 636 129 q 641 112 636 113 q 646 104 646 111 q 645 74 646 94 q 644 47 644 54 q 639 38 644 41 q 627 32 633 35 q 620 25 621 29 q 619 14 619 21 q 610 0 616 7 q 593 -7 603 -7 q 566 -5 585 -7 q 541 -3 547 -3 q 531 -5 534 -3 q 519 -7 528 -7 q 507 9 505 -7 q 501 31 511 29 q 482 25 490 33 q 471 6 473 17 q 458 -4 469 -4 q 424 -5 446 -4 q 383 -5 401 -5 q 362 1 368 -5 q 353 14 355 7 q 346 26 350 18 q 342 46 342 33 q 347 85 342 58 q 353 142 353 111 q 351 151 353 150 q 349 150 350 151 q 346 149 347 149 q 345 155 345 149 l 345 228 q 345 248 345 237 q 351 261 346 258 q 357 270 355 264 q 357 279 359 275 q 349 288 354 285 q 345 297 345 292 q 350 317 345 304 q 355 336 355 329 q 349 353 355 349 q 330 358 342 358 l 167 358 q 149 369 158 358 q 135 382 139 380 q 127 380 129 383 q 126 374 126 378 q 125 365 126 370 q 121 361 125 361 q 107 360 117 361 q 90 359 98 359 q 72 359 81 359 q 60 358 64 358 q 43 364 53 358 q 33 374 33 370 l 33 404 q 36 413 33 411 q 43 415 39 415 q 52 416 47 415 q 58 422 56 416 q 58 434 61 428 q 50 443 56 440 q 41 449 47 446 q 35 464 35 452 q 34 493 35 476 q 33 521 33 510 q 37 539 33 532 q 45 554 40 547 q 68 592 49 562 q 109 659 87 623 q 113 675 114 668 q 119 690 113 682 q 146 735 136 722 q 161 751 157 747 q 175 773 167 764 q 195 786 183 783 q 214 799 207 789 q 207 808 221 808 q 191 816 192 808 q 195 831 189 823 q 203 840 197 840 q 212 846 210 839 q 219 860 214 850 q 230 881 224 869 q 242 902 236 892 q 250 917 248 913 q 259 936 257 926 q 265 951 261 945 q 293 966 275 966 q 310 966 301 966 q 330 965 319 965 q 338 959 336 965 q 346 953 339 953 q 360 952 351 953 q 366 946 368 951 q 362 938 364 943 q 361 927 361 932 q 362 920 361 922 q 368 922 364 918 q 382 940 379 932 q 390 954 385 949 q 406 962 395 961 q 424 962 416 962 q 443 962 427 962 q 480 962 460 962 q 516 961 500 961 q 538 961 533 961 q 549 964 545 961 q 561 968 553 968 q 575 964 568 968 q 590 960 582 960 q 602 954 597 960 q 600 935 607 947 q 578 899 593 921 q 548 854 564 876 q 522 815 533 832 q 507 793 510 798 q 506 788 504 789 q 511 787 509 787 q 515 786 513 787 q 514 778 517 785 q 508 765 513 774 q 500 745 504 755 q 492 726 496 734 q 485 713 488 717 q 471 705 479 703 q 458 714 463 708 q 449 710 453 717 q 452 693 446 703 q 451 676 457 682 q 441 663 446 669 q 434 649 440 660 q 421 625 428 637 q 408 601 414 612 q 400 586 403 590 q 394 578 399 583 q 385 569 389 574 q 378 558 380 564 q 379 549 376 553 q 389 543 382 546 q 403 546 396 541 q 419 559 411 550 q 428 571 427 568 q 436 582 429 575 q 452 596 443 589 q 470 608 461 603 q 485 612 479 612 q 498 606 494 612 q 507 599 501 599 q 522 612 513 599 q 532 631 532 625 q 542 645 532 636 q 559 660 553 654 q 590 675 575 675 q 608 681 597 675 q 636 688 618 688 q 651 678 648 688 q 653 659 653 668 q 649 635 653 650 q 646 612 646 621 q 647 598 646 604 q 659 591 648 591 q 679 591 668 591 q 699 590 690 590 q 712 583 705 590 q 718 564 718 576 l 718 504 q 724 493 718 496 q 729 484 729 490 l 729 443 l 729 443 z "},"5":{"ha":770,"x_min":61,"x_max":728,"o":"m 728 407 q 728 384 728 401 q 727 345 728 366 q 726 308 726 325 q 726 289 726 292 q 711 275 726 275 q 701 269 707 275 q 692 256 696 262 q 686 243 688 249 q 688 236 684 237 q 701 242 696 235 q 714 252 707 249 q 726 243 726 261 q 726 214 726 235 q 721 182 726 193 q 708 149 714 164 q 689 122 703 134 q 672 117 682 114 q 657 110 663 119 q 659 106 656 109 q 667 102 663 104 q 673 96 671 100 q 672 87 676 93 q 659 74 668 82 q 641 58 650 66 q 623 43 632 50 q 607 33 614 36 q 575 23 595 31 q 549 18 555 16 q 544 11 545 20 q 534 3 543 3 q 522 2 530 3 q 504 1 514 1 q 487 1 494 1 q 475 0 479 0 q 461 11 469 0 q 452 33 453 21 q 436 37 449 64 q 432 24 432 31 q 431 13 432 18 q 428 4 431 7 q 415 1 425 1 l 317 1 q 293 7 304 1 q 273 14 281 14 q 253 11 265 14 q 237 14 240 8 q 231 8 232 17 q 224 -1 231 -1 q 196 0 215 -1 q 168 1 178 1 q 154 7 161 1 q 139 19 146 12 q 126 30 132 25 q 115 35 119 35 q 111 31 111 35 q 113 20 111 26 q 113 8 114 14 q 106 0 113 3 q 85 0 94 -3 q 72 7 75 3 q 71 25 69 12 q 72 45 72 37 l 72 93 q 81 108 72 100 q 90 123 90 117 q 83 128 90 131 q 75 138 75 125 q 76 158 75 143 q 77 188 77 172 q 77 217 77 204 q 78 233 78 231 q 100 249 78 249 q 133 248 114 249 q 157 248 151 248 q 168 254 164 248 q 176 258 172 261 q 178 249 178 257 q 180 233 179 241 q 183 221 182 225 q 187 221 184 216 q 197 244 195 232 q 211 257 200 257 q 237 257 216 257 q 282 256 258 257 q 325 256 306 256 q 347 256 345 256 q 357 249 354 256 q 366 244 359 243 q 379 255 372 245 q 390 260 386 264 q 395 249 393 256 q 389 231 396 241 q 387 224 385 225 q 396 226 390 224 q 407 233 401 228 q 414 241 412 237 q 425 262 416 253 q 440 272 433 271 q 450 280 447 273 q 453 293 453 288 q 447 315 453 300 q 439 338 440 330 q 433 349 437 345 q 422 354 429 354 q 406 355 415 354 q 389 355 397 355 q 356 368 366 355 q 335 380 346 380 q 330 377 330 380 q 329 370 329 374 q 329 362 329 366 q 325 358 329 358 q 302 359 322 358 q 258 359 282 359 q 215 360 235 359 q 191 361 195 361 q 172 366 182 361 q 164 386 161 371 q 151 388 165 395 q 129 361 136 380 q 121 355 127 357 q 106 355 114 354 q 91 357 98 355 q 79 358 83 358 q 68 369 72 358 q 64 389 64 379 q 64 413 64 393 q 63 453 64 432 q 62 494 62 475 q 62 519 62 514 q 70 530 62 529 q 78 538 78 532 q 70 547 78 545 q 62 555 62 549 q 62 593 62 559 q 63 666 62 627 q 64 740 64 705 q 64 779 64 775 q 69 797 64 783 q 83 814 74 811 q 99 814 93 819 q 117 817 106 808 q 121 828 122 822 q 115 838 119 833 q 103 844 110 842 q 93 844 97 846 q 72 841 82 842 q 61 856 61 840 q 62 871 61 860 q 62 895 62 882 q 62 920 62 908 q 62 936 62 932 q 66 954 61 943 q 78 964 71 964 l 110 964 q 115 956 115 964 q 122 949 115 949 q 133 936 129 949 q 142 926 136 922 q 151 934 147 929 q 158 945 154 939 q 168 956 161 951 q 183 960 174 960 q 199 955 195 960 q 212 950 204 950 q 237 955 221 950 q 260 960 253 960 q 308 959 278 960 q 367 958 338 958 q 418 958 396 958 q 444 957 440 957 q 454 954 452 957 q 461 950 456 950 l 507 950 q 515 940 514 950 q 521 932 517 929 q 530 944 526 936 q 545 953 533 953 q 560 952 549 953 q 583 951 571 951 q 606 951 595 951 q 621 950 616 950 q 627 955 628 950 q 636 960 625 960 q 655 955 647 960 q 664 939 664 950 q 657 926 664 929 q 650 917 650 924 q 654 908 650 909 q 659 903 659 907 q 656 887 659 897 q 640 876 653 878 q 631 869 635 876 q 625 853 627 861 q 625 839 624 844 q 631 836 627 833 q 649 848 642 842 q 657 846 657 854 q 663 828 657 838 q 669 811 669 818 q 669 800 669 808 q 669 782 669 791 q 667 765 668 772 q 661 754 665 757 q 647 740 654 751 q 639 721 640 729 q 635 706 639 714 q 621 699 631 699 q 610 702 610 699 q 603 705 610 705 l 562 705 q 562 700 559 705 q 558 694 564 694 q 533 696 551 694 q 507 699 515 699 q 500 702 500 699 q 497 705 501 705 l 456 705 q 443 719 441 705 q 447 741 444 733 q 446 745 450 745 q 436 744 441 746 q 426 737 431 742 q 419 725 421 732 q 412 710 416 718 q 397 703 407 703 q 373 705 386 703 q 354 703 359 708 q 347 702 351 699 q 338 710 342 705 q 329 716 334 714 q 321 710 323 718 q 321 695 318 703 q 328 680 323 688 q 336 664 332 672 q 340 648 340 656 q 331 628 340 633 q 325 618 321 623 q 351 617 339 610 q 378 625 363 625 q 385 620 382 625 q 390 610 387 615 q 393 602 392 606 q 396 602 395 599 q 401 613 400 608 q 410 618 403 618 q 428 617 416 618 q 446 616 439 616 q 457 621 453 616 q 469 625 461 625 q 479 619 478 625 q 476 606 481 612 q 478 597 472 597 q 493 607 485 597 q 506 620 501 614 q 521 627 510 627 q 541 617 532 627 q 558 610 550 608 q 583 608 570 611 q 604 597 596 604 q 606 586 610 591 q 598 576 603 581 q 589 567 593 571 q 589 559 585 562 q 604 558 596 555 q 620 565 611 561 q 636 571 628 570 q 653 567 644 572 q 674 549 661 562 q 689 525 686 536 q 689 516 692 519 q 683 511 686 513 q 675 507 679 509 q 672 503 672 505 q 676 495 672 497 q 686 492 681 493 q 695 492 690 492 q 701 490 700 493 q 715 470 713 479 q 714 454 717 460 q 718 428 708 439 q 728 407 728 416 z "},"6":{"ha":875,"x_min":58,"x_max":812,"o":"m 812 395 q 808 384 812 387 q 798 379 803 380 q 789 371 791 378 q 794 361 786 364 q 806 358 802 358 q 811 349 811 358 l 811 307 q 791 293 811 293 q 784 285 785 293 q 790 273 783 277 q 802 271 798 272 q 807 260 807 271 q 808 242 807 254 q 809 218 808 231 q 810 196 810 205 q 810 183 811 186 q 798 167 804 171 q 787 160 791 163 q 779 153 782 157 q 775 142 775 150 q 777 130 775 136 q 774 118 779 123 q 752 91 764 103 q 736 75 741 79 q 727 73 732 71 q 718 79 722 75 q 710 83 714 82 q 704 81 707 85 q 699 66 699 72 q 700 57 699 61 q 701 48 701 53 q 694 35 700 43 q 659 10 684 21 q 621 -3 633 -1 q 591 -3 603 -4 q 570 -1 579 -1 q 561 5 559 -1 q 554 12 562 12 q 548 5 546 12 q 542 -1 550 -1 l 464 -1 q 445 4 453 -1 q 435 17 437 9 q 421 28 432 25 q 416 21 410 32 q 429 4 425 9 q 421 -1 432 -1 l 345 -1 q 331 1 334 -1 q 322 4 328 4 q 311 -1 315 4 q 298 -5 306 -5 q 281 -4 292 -5 q 254 -3 271 -3 q 236 7 239 -3 q 232 22 233 17 q 229 31 232 25 q 222 41 227 36 q 214 48 218 46 q 205 47 210 50 q 188 37 197 40 q 172 41 179 35 q 152 61 165 47 q 134 82 138 74 q 138 104 129 94 q 144 121 147 114 q 135 124 140 126 q 123 119 129 122 q 111 114 117 115 q 100 119 104 113 q 92 130 97 122 q 83 146 87 138 q 76 162 79 154 q 74 175 72 171 q 71 190 78 186 q 64 204 64 193 l 64 319 q 66 331 64 326 q 73 340 69 336 q 79 350 77 345 q 82 366 82 355 q 70 374 82 372 q 58 385 58 375 q 59 406 58 389 q 60 443 60 424 q 60 478 60 461 q 61 498 61 494 q 76 526 61 518 q 109 526 92 533 q 123 533 115 524 q 119 554 131 543 q 99 560 110 566 q 79 551 89 554 q 67 556 72 549 q 62 568 62 564 q 62 582 62 572 q 62 602 62 591 q 61 622 61 612 q 61 636 61 632 q 75 644 61 643 q 89 656 89 646 q 85 664 89 661 q 77 669 82 667 q 68 675 72 672 q 65 685 65 679 q 67 721 65 697 q 74 761 69 745 q 95 800 81 782 q 117 838 110 818 q 125 845 121 844 q 134 844 129 846 q 142 841 139 843 q 147 840 146 839 q 151 852 151 844 q 151 868 151 860 q 154 885 151 876 q 165 901 157 893 q 172 903 170 905 q 176 897 174 901 q 180 890 178 893 q 186 888 182 886 q 195 899 191 890 q 209 916 200 907 q 233 935 218 925 q 268 950 248 945 q 302 952 288 956 q 328 949 317 949 q 341 940 339 949 q 336 922 343 930 q 330 912 332 918 q 330 900 329 905 q 335 893 332 895 q 342 897 339 892 q 363 933 353 924 q 379 942 367 936 q 403 949 392 949 q 420 956 414 949 q 436 964 427 964 q 448 958 446 964 q 464 953 450 953 l 576 953 q 586 958 589 953 q 591 962 583 962 q 610 958 602 962 q 628 947 619 953 q 642 936 636 942 q 653 929 648 930 q 671 919 665 925 q 679 905 676 913 q 684 892 682 897 q 689 885 685 886 q 704 887 694 882 q 721 882 714 893 q 725 852 725 872 q 725 823 725 832 q 718 815 725 817 q 708 807 711 814 q 709 797 707 800 q 715 792 711 794 q 722 787 718 790 q 725 778 725 785 q 725 744 728 760 q 711 730 722 729 q 696 724 699 732 q 692 710 693 717 q 672 701 690 701 q 658 701 668 701 q 638 701 648 701 q 618 700 628 700 q 604 700 608 700 q 597 703 595 700 q 591 707 600 707 l 505 707 q 497 703 498 707 q 490 699 496 699 q 476 701 484 699 q 468 714 468 703 q 458 731 468 725 q 447 730 449 737 q 440 713 444 724 q 429 703 436 703 q 409 701 421 703 q 389 688 397 699 q 376 665 380 677 q 371 629 371 652 q 370 594 371 608 q 370 571 370 581 q 372 557 370 562 q 378 562 374 553 q 385 579 383 572 q 392 593 386 586 q 397 595 395 596 q 403 593 400 595 q 408 590 406 591 q 414 590 411 589 q 419 600 421 593 q 425 607 418 607 l 514 607 q 524 596 522 607 q 522 579 525 585 q 523 570 517 572 q 534 571 529 568 q 541 583 539 576 q 547 593 542 590 q 557 604 553 596 q 572 611 561 611 q 604 609 583 611 q 633 607 625 607 q 649 603 637 607 q 673 592 660 599 q 700 577 686 585 q 721 561 713 570 q 729 547 725 555 q 724 532 733 539 q 718 517 717 524 q 730 507 720 510 q 738 510 734 505 q 745 517 742 514 q 753 523 749 521 q 761 519 757 525 q 777 502 768 514 q 794 475 786 489 q 807 449 802 461 q 812 432 812 437 l 812 395 l 812 395 m 532 302 q 528 319 532 310 q 519 335 525 329 q 512 345 513 338 q 500 353 511 353 q 485 362 489 353 q 476 372 481 372 q 473 363 472 372 q 468 354 475 354 l 436 354 q 416 353 432 354 q 393 353 400 353 q 380 349 386 353 q 374 340 374 345 q 370 322 374 336 q 361 306 367 309 q 362 298 357 302 q 372 292 368 294 q 382 272 383 283 q 387 256 380 261 q 405 253 393 249 q 428 257 416 257 q 447 255 437 257 q 467 243 457 253 q 485 227 475 233 q 490 235 494 221 q 486 260 486 252 q 492 269 485 269 q 507 271 498 269 q 521 278 515 272 q 528 290 525 283 q 532 302 532 296 z "},"7":{"ha":751,"x_min":40,"x_max":717,"o":"m 717 842 q 715 821 717 835 q 714 800 714 807 q 713 777 714 793 q 705 754 713 761 q 683 728 699 747 q 661 693 668 708 q 645 665 656 682 q 628 629 635 648 q 632 621 625 623 q 636 615 639 619 q 624 583 633 607 q 603 531 614 558 q 582 480 591 504 q 568 447 572 456 q 557 438 564 440 q 546 435 551 436 q 537 434 541 435 q 533 427 533 433 q 536 416 533 419 q 541 408 539 412 q 544 399 543 404 q 538 383 545 395 q 524 355 532 374 q 507 316 515 336 q 491 276 498 296 q 479 244 484 257 q 458 217 469 220 q 440 220 447 214 q 419 219 425 232 q 429 195 412 207 q 439 172 436 187 q 436 149 443 157 q 411 94 425 127 q 386 25 397 60 q 369 2 379 7 q 345 -3 359 -3 q 321 -3 338 -3 q 287 -4 304 -4 q 253 -5 269 -4 q 232 -5 237 -5 q 222 1 221 -5 q 225 18 222 8 q 223 27 229 26 q 207 20 216 28 q 198 5 199 12 q 180 -3 197 -3 l 123 -3 q 105 3 114 -3 q 97 17 96 9 q 84 47 97 36 q 68 62 72 58 q 63 80 61 71 q 65 97 65 89 q 77 108 65 106 q 93 117 89 110 q 98 133 98 125 q 97 146 98 140 q 95 160 96 153 q 98 174 94 167 q 116 208 104 182 q 140 262 127 233 q 164 316 153 292 q 179 346 175 340 q 192 357 187 354 q 200 370 197 361 q 197 376 200 374 q 189 381 193 379 q 182 386 184 383 q 184 393 180 389 q 192 401 189 399 q 197 406 195 404 q 203 412 200 408 q 211 424 205 416 q 222 449 215 431 q 237 488 229 467 q 251 528 244 509 q 264 555 258 547 q 276 565 271 567 q 283 570 281 564 q 289 585 288 578 q 292 600 290 591 q 299 620 294 608 q 314 652 304 632 q 326 659 321 665 q 342 652 330 653 q 353 660 353 648 q 347 675 354 671 q 347 682 345 677 q 355 690 350 686 q 365 699 359 694 q 372 705 371 703 q 374 721 376 713 q 361 722 372 729 q 344 709 350 715 q 318 703 338 703 q 271 703 300 703 q 232 704 243 704 q 222 708 222 704 q 215 713 221 713 q 204 710 210 713 q 192 708 199 708 q 188 703 187 708 q 179 697 189 697 q 156 699 170 697 q 134 700 143 700 q 109 702 122 700 q 85 704 96 704 q 64 709 74 704 q 54 720 54 714 q 52 724 54 722 q 48 726 50 725 q 44 732 46 728 q 41 746 41 736 q 41 767 41 754 q 41 794 41 781 q 40 818 40 807 q 40 831 40 828 q 44 834 40 833 q 54 835 49 835 q 62 836 58 835 q 66 842 66 838 q 62 851 66 847 q 54 858 58 854 q 46 867 50 861 q 41 882 41 872 l 41 945 q 56 958 41 958 l 87 958 q 103 945 103 958 q 108 933 103 936 q 115 939 113 930 q 116 953 118 947 q 125 958 114 958 l 220 958 q 228 961 229 958 q 233 964 227 964 l 293 964 q 301 961 301 964 q 309 958 301 958 q 321 959 311 958 q 344 960 332 960 q 368 959 357 960 q 383 957 379 958 q 386 950 387 954 q 382 941 385 946 q 376 930 379 936 q 378 917 374 924 q 387 911 382 909 q 397 918 392 913 q 408 928 403 922 q 419 937 414 935 q 425 950 424 942 q 436 958 425 958 q 463 958 441 958 q 509 956 485 957 q 553 955 533 956 q 576 954 574 954 q 589 953 583 954 q 595 942 595 951 q 602 925 595 932 q 621 921 610 918 q 634 926 632 922 q 635 937 636 930 q 633 953 632 946 q 646 960 635 960 q 671 959 656 960 q 694 958 686 958 q 710 951 704 958 q 715 933 715 943 q 716 911 715 924 q 717 893 717 899 q 714 886 717 888 q 707 885 711 885 q 700 884 703 885 q 697 880 697 884 q 707 858 697 865 q 717 842 717 850 z "},"8":{"ha":865,"x_min":49,"x_max":817,"o":"m 817 258 q 817 238 817 252 q 816 212 817 225 q 815 187 815 199 q 815 171 815 175 q 810 152 815 164 q 797 128 804 140 q 783 105 790 115 q 772 92 775 94 q 759 85 766 85 q 744 87 751 85 q 728 91 736 89 q 714 90 721 93 q 706 79 711 87 q 717 68 701 71 q 734 62 725 66 q 741 52 743 58 q 724 33 733 39 q 708 25 715 28 q 697 19 705 24 q 679 9 689 14 q 657 1 668 4 q 640 -3 647 -3 q 620 -3 633 -3 q 590 -5 606 -4 q 561 -6 574 -5 q 542 -7 547 -7 q 509 0 522 -7 q 481 7 496 7 q 472 5 472 7 q 473 0 472 3 q 475 -5 475 -3 q 468 -7 475 -7 q 438 -6 461 -7 q 388 -5 415 -5 q 337 -5 361 -5 q 304 -4 313 -4 q 290 5 288 -4 q 297 18 293 14 q 295 24 298 21 q 287 31 292 28 q 277 33 282 33 q 271 29 272 33 q 266 8 268 20 q 248 -3 264 -3 q 225 7 231 -3 q 208 17 220 17 q 194 19 203 17 q 175 24 184 21 q 158 31 165 28 q 147 37 150 35 q 136 48 143 41 q 122 64 129 56 q 110 80 115 72 q 104 94 104 89 q 112 113 104 104 q 113 127 119 122 q 105 129 109 132 q 98 122 102 126 q 92 116 94 118 q 85 118 89 114 q 77 127 82 121 q 67 141 72 134 q 59 157 62 149 q 56 171 56 165 q 56 185 56 176 q 57 204 57 195 q 58 221 57 214 q 58 232 58 229 q 68 244 58 239 q 82 256 78 249 q 81 263 85 262 q 71 261 78 264 q 53 273 53 254 q 52 293 53 279 q 50 320 52 306 q 49 345 49 334 q 49 358 49 355 q 56 371 52 367 q 67 378 61 375 q 78 385 74 382 q 82 393 82 387 q 78 397 82 396 q 70 399 74 397 q 62 403 65 400 q 61 412 60 406 q 73 431 64 421 q 93 451 82 440 q 114 470 103 461 q 134 484 125 479 q 141 483 138 486 q 148 476 144 479 q 156 470 151 472 q 165 471 160 468 q 168 475 170 472 q 165 482 167 478 q 164 490 164 486 q 168 498 164 494 q 190 505 178 505 q 205 518 203 505 q 203 524 207 522 q 195 525 200 525 q 186 526 191 525 q 179 532 182 526 q 182 545 178 536 q 178 553 187 553 q 154 558 168 553 q 122 576 139 564 q 103 596 110 587 q 98 618 97 604 q 97 629 100 625 q 92 634 94 632 q 85 638 89 636 q 82 644 82 640 q 81 675 79 654 q 82 707 82 696 q 81 724 82 713 q 80 747 81 734 q 79 771 79 760 q 82 791 79 783 q 88 805 85 803 q 100 804 92 807 q 109 810 107 800 q 107 831 111 819 q 107 850 104 840 q 117 868 110 860 q 130 889 121 878 q 150 904 139 901 q 166 912 161 907 q 174 922 171 917 q 182 933 178 928 q 195 945 186 939 q 206 949 199 946 q 223 955 214 951 q 240 960 232 958 q 253 962 249 962 q 280 962 262 962 q 306 961 298 961 q 321 951 317 961 q 314 926 325 942 q 313 910 309 920 q 334 911 318 901 q 343 924 340 916 q 349 941 346 932 q 358 956 351 950 q 376 962 364 962 q 414 960 382 962 q 481 957 447 957 q 507 959 497 957 q 534 961 517 961 q 553 956 546 961 q 564 945 561 951 q 572 929 567 937 q 581 932 578 921 q 592 952 583 943 q 611 961 600 961 q 641 955 623 961 q 668 946 659 949 q 709 918 694 936 q 734 876 724 900 q 732 863 739 868 q 720 856 725 857 q 718 848 715 854 q 728 844 721 842 q 742 853 733 847 q 754 847 751 859 q 757 830 757 836 q 761 819 757 823 q 779 809 768 814 q 790 794 790 804 l 790 741 q 788 733 790 734 q 783 732 786 732 q 778 730 781 732 q 774 725 775 729 q 779 706 771 715 q 787 676 787 696 q 785 665 787 673 q 777 648 782 657 q 767 631 772 639 q 758 618 762 623 q 751 615 754 614 q 744 620 747 616 q 738 627 741 624 q 733 629 736 629 q 720 620 718 627 q 720 603 721 612 q 723 599 720 600 q 730 597 726 597 q 738 594 734 596 q 736 587 741 591 q 714 566 729 579 q 685 550 699 553 q 656 533 668 547 q 655 522 652 526 q 665 517 659 518 q 692 514 672 515 q 718 509 711 513 q 742 498 726 505 q 761 484 758 490 q 771 471 765 476 q 787 458 777 465 q 805 436 798 452 q 812 408 812 421 q 809 390 812 396 q 806 367 806 383 q 810 335 806 345 q 815 302 815 325 q 796 279 815 282 q 787 276 793 279 q 776 271 781 273 q 770 264 771 268 q 774 261 768 261 q 787 262 779 260 q 801 266 794 264 q 812 267 807 268 q 817 258 817 265 m 533 700 q 526 707 530 707 q 516 705 521 707 q 507 701 511 703 q 501 703 503 700 q 494 713 497 708 q 481 718 492 718 q 461 718 471 718 q 454 728 452 718 q 452 740 456 732 q 444 755 449 749 q 433 764 439 761 q 424 760 428 766 q 420 747 421 755 q 418 732 419 739 q 416 720 418 725 q 407 717 414 715 q 376 704 390 721 q 360 701 368 699 q 353 693 353 704 q 350 672 353 682 q 347 654 347 661 q 356 624 347 640 q 376 608 364 608 q 406 608 390 608 q 425 603 421 608 q 437 589 428 597 q 449 590 446 581 q 449 602 452 597 q 457 607 446 607 q 480 610 468 607 q 498 615 492 612 q 506 621 501 618 q 515 629 511 624 q 521 640 519 633 q 519 656 522 647 q 520 668 517 663 q 528 679 524 673 q 535 690 532 685 q 533 700 538 694 m 526 292 q 519 324 526 313 q 505 340 513 335 q 501 350 500 346 q 506 358 503 354 q 511 366 509 363 q 510 374 513 370 q 498 377 505 378 q 484 374 492 376 q 469 368 476 371 q 458 364 463 364 q 438 360 453 364 q 419 357 424 357 q 408 363 412 357 q 396 370 403 370 q 377 368 385 370 q 368 355 370 366 q 359 345 367 346 q 351 335 351 343 q 355 324 351 326 q 359 317 359 322 q 356 302 359 310 q 353 290 353 294 q 366 269 353 279 q 392 258 379 258 q 411 256 404 258 q 415 249 418 254 q 415 226 408 233 q 425 225 422 218 q 444 248 432 237 q 464 258 456 258 q 481 258 472 258 q 497 257 490 257 q 515 270 504 257 q 526 292 526 282 z "},"9":{"ha":859,"x_min":47,"x_max":802,"o":"m 802 568 q 801 546 802 564 q 800 510 800 529 q 800 476 800 492 q 799 456 799 460 q 783 428 799 436 q 750 427 766 419 q 735 419 743 429 q 741 399 728 410 q 761 392 750 387 q 781 401 772 397 q 793 397 787 404 q 799 385 799 390 l 799 318 q 794 312 799 314 q 785 309 790 310 q 775 305 779 307 q 771 297 771 302 q 783 285 771 288 q 794 269 794 282 q 792 232 794 256 q 785 193 790 208 q 764 154 778 172 q 743 117 750 135 q 735 108 739 109 q 726 109 730 107 q 718 112 721 110 q 713 111 714 114 q 708 101 708 107 q 707 86 708 94 q 705 69 707 78 q 694 52 703 60 q 687 50 689 47 q 684 57 685 53 q 680 64 682 61 q 673 64 677 66 q 665 54 669 62 q 650 36 660 46 q 626 17 640 26 q 590 3 612 8 q 556 1 571 -1 q 530 3 542 3 q 518 13 519 3 q 525 31 517 22 q 529 42 529 35 q 528 54 529 49 q 524 62 526 60 q 518 57 521 64 q 507 35 513 45 q 497 20 501 25 q 480 10 492 17 q 457 3 468 3 q 439 0 446 3 q 422 -3 432 -3 q 411 1 414 -3 q 396 5 408 5 l 283 5 q 276 4 278 5 q 273 1 273 3 q 272 -1 273 0 q 267 -3 271 -3 q 233 9 249 -3 q 205 25 216 21 q 189 35 195 28 q 180 48 183 41 q 176 61 178 56 q 172 68 175 66 q 156 66 165 72 q 139 72 146 61 q 135 86 136 77 q 134 107 134 96 q 134 129 134 119 q 134 143 134 139 q 141 151 134 150 q 151 160 149 153 q 151 170 154 167 q 145 176 149 174 q 138 180 142 178 q 134 189 134 183 q 134 223 132 207 q 149 236 136 239 q 163 242 161 235 q 168 257 165 250 q 187 265 170 265 q 201 265 192 265 q 221 266 211 265 q 242 267 232 267 q 256 267 252 267 q 262 263 265 267 q 268 260 258 260 l 355 260 q 362 264 361 260 q 371 269 364 269 q 384 267 375 269 q 392 254 392 265 q 401 236 392 243 q 412 236 411 229 q 418 253 414 243 q 432 264 422 264 q 450 266 439 264 q 471 279 461 268 q 484 302 479 289 q 489 338 489 315 q 490 372 489 358 q 490 396 490 386 q 488 410 490 406 q 482 404 486 414 q 475 388 476 396 q 468 374 473 380 q 456 374 461 367 q 444 378 452 380 q 440 367 439 374 q 435 361 441 361 l 346 361 q 336 371 338 361 q 338 387 334 382 q 337 397 343 395 q 326 396 330 399 q 318 383 319 390 q 313 374 317 376 q 303 363 307 371 q 288 355 298 355 q 256 358 277 355 q 225 361 235 361 q 210 365 221 361 q 185 376 199 370 q 160 390 172 382 q 139 407 147 399 q 131 419 135 411 q 135 435 126 428 q 142 450 143 443 q 129 460 140 457 q 121 457 125 461 q 115 449 118 453 q 108 444 111 446 q 98 447 104 441 q 83 466 92 453 q 66 492 74 478 q 53 517 58 505 q 47 534 47 529 l 47 572 q 52 583 47 579 q 61 587 57 586 q 70 597 66 590 q 66 607 74 604 q 54 609 58 608 q 50 618 50 610 l 50 660 q 66 673 50 673 q 75 682 75 673 q 68 692 75 690 q 57 695 61 694 q 53 707 53 696 q 52 722 53 713 q 50 742 52 732 q 50 759 49 751 q 52 770 50 766 q 62 787 57 782 q 73 794 68 791 q 81 800 78 798 q 83 811 83 803 q 83 824 83 818 q 85 836 82 829 q 107 862 94 850 q 123 878 119 873 q 133 880 127 882 q 141 874 138 878 q 148 869 144 871 q 154 872 151 868 q 161 886 160 880 q 160 897 161 892 q 159 905 158 901 q 165 917 160 909 q 201 943 176 932 q 239 957 227 954 q 269 956 256 958 q 289 954 282 954 q 298 948 298 954 q 306 942 297 942 q 311 948 314 942 q 318 954 309 954 l 395 954 q 424 936 418 954 q 430 929 425 932 q 439 925 435 926 q 444 925 443 924 q 441 932 446 926 q 431 949 435 943 q 439 954 428 954 l 514 954 q 528 951 525 954 q 539 949 532 949 q 549 954 545 949 q 559 960 553 960 q 577 958 567 960 q 604 957 587 957 q 622 946 619 957 q 627 930 625 936 q 637 912 629 924 q 654 905 644 900 q 672 916 663 913 q 688 913 681 920 q 709 893 694 905 q 726 871 724 880 q 722 849 730 859 q 715 832 713 839 q 724 830 718 828 q 735 836 729 832 q 748 840 742 839 q 760 835 754 842 q 775 808 764 828 q 785 778 787 787 q 788 763 782 766 q 794 749 794 760 l 794 632 q 791 621 794 625 q 786 612 789 616 q 781 603 783 608 q 778 587 778 597 q 790 579 778 581 q 802 568 802 578 m 498 654 q 496 661 501 657 q 486 669 492 665 q 476 688 475 676 q 472 705 478 700 q 454 707 467 711 q 432 703 441 703 q 411 705 421 703 q 393 717 401 707 q 375 733 385 726 q 368 724 366 739 q 374 699 374 708 q 367 690 374 690 q 352 690 359 690 q 340 684 345 689 q 328 657 328 671 q 342 632 328 643 q 348 622 347 629 q 359 614 349 614 q 375 604 371 614 q 382 595 379 595 q 386 604 387 595 q 392 612 385 612 l 424 612 q 443 613 427 612 q 467 614 460 614 q 480 619 473 614 q 486 627 486 624 q 490 641 486 631 q 498 654 494 652 z "}," ":{"ha":347,"x_min":0,"x_max":0,"o":""}," ":{"ha":347,"x_min":0,"x_max":0,"o":""},"Š":{"ha":794,"x_min":65,"x_max":737,"o":"m 737 425 q 734 401 737 407 q 730 382 730 396 q 730 351 730 375 q 729 309 729 328 q 724 298 729 302 q 712 290 718 294 q 699 278 705 285 q 693 261 693 272 q 699 257 693 256 q 711 261 704 258 q 724 265 718 264 q 729 260 729 267 q 730 222 729 236 q 729 204 730 208 q 724 200 726 199 q 720 205 722 201 q 715 211 718 208 q 708 211 713 214 q 705 199 704 205 q 711 184 707 192 q 719 169 715 176 q 721 154 722 161 q 712 132 720 146 q 695 103 705 118 q 672 74 685 87 q 647 52 660 60 q 637 50 640 47 q 631 55 633 52 q 627 62 629 58 q 616 66 624 65 q 609 62 611 66 q 604 49 607 57 q 596 33 600 41 q 582 20 591 25 q 566 6 574 14 q 547 -1 558 -1 q 526 -2 536 -1 q 504 -3 515 -3 q 494 1 493 -3 q 490 4 496 4 q 474 3 488 4 q 447 3 461 3 q 419 2 432 3 q 403 1 407 1 q 397 -2 396 1 q 390 -5 397 -5 l 317 -5 q 307 1 309 -5 q 306 14 306 7 q 306 26 306 21 q 301 29 306 31 q 280 11 288 24 q 264 -1 272 -1 l 171 -1 q 144 5 160 -1 q 125 11 129 11 q 103 17 119 11 q 87 35 87 24 q 94 61 87 54 q 100 75 100 68 q 98 79 100 79 q 94 80 96 79 q 90 84 92 81 q 87 97 87 87 q 87 124 87 109 q 86 156 86 140 q 85 185 86 172 q 85 203 85 199 q 89 225 85 212 q 100 243 93 237 q 124 252 110 249 q 146 256 138 256 q 166 258 155 256 q 184 260 178 260 q 199 257 193 260 q 212 254 205 254 l 261 254 q 280 259 268 254 q 297 261 292 264 q 303 251 304 257 q 299 239 302 245 q 294 228 296 233 q 293 218 292 222 q 302 214 296 212 q 316 221 309 216 q 331 233 323 227 q 339 241 338 239 q 346 251 346 245 q 355 256 346 256 q 378 256 364 256 q 399 257 392 257 q 412 264 412 257 q 416 279 412 272 q 429 291 422 286 q 436 311 436 296 q 430 329 436 319 q 424 346 424 338 q 413 359 424 353 q 396 370 401 366 q 387 371 393 371 q 374 371 380 371 q 364 372 368 371 q 359 378 359 374 q 357 391 363 389 q 347 386 351 393 q 335 374 342 380 q 321 368 328 368 q 302 373 313 368 q 282 378 292 378 q 249 376 271 378 q 220 374 228 374 q 208 385 212 374 q 203 399 203 396 q 197 404 203 401 q 184 401 192 407 q 169 398 178 396 q 154 407 160 400 q 131 426 150 414 q 107 458 111 439 q 93 478 104 468 q 79 496 81 488 q 72 521 77 505 q 68 551 68 536 q 71 567 68 562 q 77 573 74 571 q 85 576 81 575 q 93 583 89 578 q 105 602 100 595 q 106 618 111 608 q 96 620 103 623 q 82 614 89 618 q 70 610 75 611 q 65 614 65 608 l 65 728 q 72 737 65 734 q 78 745 78 739 q 73 750 78 750 q 68 758 68 750 q 68 771 68 762 q 71 789 69 779 q 73 807 72 799 q 74 819 74 815 q 83 842 74 827 q 94 861 92 857 q 99 863 97 864 q 104 861 102 863 q 110 861 107 860 q 114 867 113 861 q 126 887 118 875 q 154 911 135 900 q 169 916 165 918 q 183 914 172 913 q 190 910 187 914 q 195 903 193 907 q 200 899 197 900 q 205 903 203 897 q 210 915 210 909 q 208 924 210 920 q 206 930 207 928 q 207 937 205 933 q 230 954 212 946 q 257 962 248 962 l 328 962 q 339 958 336 962 q 351 953 342 953 l 418 953 q 429 956 425 953 q 436 958 432 958 q 448 951 441 958 q 457 939 454 945 q 466 921 460 933 q 473 920 472 908 q 478 937 476 930 q 486 947 479 943 q 489 957 490 951 q 504 962 488 962 q 534 963 519 962 q 557 964 549 964 q 566 958 567 964 q 572 953 566 953 q 588 951 581 953 q 600 949 596 949 q 607 956 607 949 q 614 962 607 962 q 631 956 624 962 q 644 940 639 949 q 654 925 650 932 q 661 917 659 918 q 673 915 665 917 q 689 910 681 913 q 704 902 697 907 q 710 890 710 897 q 711 873 710 885 q 712 849 711 861 q 713 825 713 836 q 714 808 714 814 q 707 790 714 796 q 700 777 700 783 q 705 765 700 770 q 710 751 710 761 q 702 732 710 743 q 685 720 693 721 q 665 710 673 718 q 650 699 657 701 q 639 697 646 696 q 629 701 632 699 q 619 710 627 705 q 604 714 611 714 l 572 714 q 556 709 566 714 q 541 704 547 704 q 535 717 536 704 q 538 737 533 730 q 531 748 542 746 q 513 743 519 750 q 502 725 505 736 q 490 714 498 714 q 476 716 482 714 q 464 718 471 718 q 455 711 458 718 q 444 704 452 704 q 428 705 437 704 q 424 714 419 707 q 421 723 427 721 q 414 715 416 725 q 411 704 411 704 q 404 704 411 704 q 392 707 397 704 q 380 708 386 710 q 378 703 375 708 q 374 692 380 699 q 362 681 367 685 q 358 663 358 677 q 369 641 358 643 q 385 632 379 639 q 397 622 389 628 q 414 616 406 616 q 430 606 428 616 q 443 585 432 595 q 463 577 453 575 q 471 591 473 579 q 474 612 468 604 q 489 621 479 621 q 506 620 493 621 q 533 618 519 619 q 558 616 546 616 q 572 615 570 615 q 596 610 581 615 q 623 599 611 606 q 626 591 629 596 q 617 581 623 586 q 608 571 611 575 q 612 564 606 567 q 626 565 616 561 q 640 576 636 568 q 654 581 644 583 q 668 575 664 578 q 683 553 679 564 q 693 534 688 542 q 694 525 696 530 q 691 513 693 519 q 688 502 689 507 q 689 493 688 496 q 696 493 692 490 q 704 499 700 496 q 712 504 708 503 q 715 501 715 505 q 719 487 715 496 q 726 467 722 478 q 734 445 730 456 q 737 425 737 433 m 593 1137 q 584 1129 593 1133 q 572 1120 575 1125 q 570 1108 571 1117 q 562 1095 568 1100 q 555 1081 557 1089 q 549 1067 553 1074 q 543 1054 546 1060 q 539 1042 539 1047 q 535 1025 539 1036 q 522 1014 530 1014 q 503 1014 518 1014 q 470 1013 488 1014 q 436 1013 452 1013 q 416 1013 421 1013 q 416 1015 415 1013 q 417 1021 416 1018 q 417 1026 418 1023 q 411 1029 416 1029 q 389 1021 400 1029 q 366 1013 378 1013 q 349 1013 363 1013 q 320 1014 335 1014 q 291 1015 304 1014 q 272 1015 277 1015 q 257 1017 264 1015 q 250 1034 250 1019 q 250 1053 250 1044 q 244 1067 250 1061 q 236 1079 240 1069 q 229 1092 232 1088 q 220 1101 227 1096 q 211 1109 214 1105 q 205 1119 207 1112 q 203 1129 203 1126 l 203 1149 q 211 1151 203 1154 q 218 1150 218 1147 q 224 1156 218 1154 q 235 1157 231 1157 l 288 1157 q 311 1147 301 1157 q 327 1136 315 1145 q 343 1125 339 1126 q 359 1120 350 1122 q 371 1114 368 1117 q 396 1104 379 1104 q 410 1109 406 1104 q 419 1117 414 1114 q 431 1122 427 1121 q 440 1126 436 1122 q 459 1138 443 1129 q 478 1150 475 1147 q 488 1155 484 1154 q 500 1156 493 1156 l 524 1156 q 538 1157 533 1156 q 555 1158 543 1158 q 559 1155 562 1158 q 562 1152 555 1152 q 575 1154 570 1152 q 583 1156 581 1156 q 589 1150 586 1156 q 593 1137 593 1145 z "},"š":{"ha":794,"x_min":65,"x_max":737,"o":"m 737 425 q 734 401 737 407 q 730 382 730 396 q 730 351 730 375 q 729 309 729 328 q 724 298 729 302 q 712 290 718 294 q 699 278 705 285 q 693 261 693 272 q 699 257 693 256 q 711 261 704 258 q 724 265 718 264 q 729 260 729 267 q 730 222 729 236 q 729 204 730 208 q 724 200 726 199 q 720 205 722 201 q 715 211 718 208 q 708 211 713 214 q 705 199 704 205 q 711 184 707 192 q 719 169 715 176 q 721 154 722 161 q 712 132 720 146 q 695 103 705 118 q 672 74 685 87 q 647 52 660 60 q 637 50 640 47 q 631 55 633 52 q 627 62 629 58 q 616 66 624 65 q 609 62 611 66 q 604 49 607 57 q 596 33 600 41 q 582 20 591 25 q 566 6 574 14 q 547 -1 558 -1 q 526 -2 536 -1 q 504 -3 515 -3 q 494 1 493 -3 q 490 4 496 4 q 474 3 488 4 q 447 3 461 3 q 419 2 432 3 q 403 1 407 1 q 397 -2 396 1 q 390 -5 397 -5 l 317 -5 q 307 1 309 -5 q 306 14 306 7 q 306 26 306 21 q 301 29 306 31 q 280 11 288 24 q 264 -1 272 -1 l 171 -1 q 144 5 160 -1 q 125 11 129 11 q 103 17 119 11 q 87 35 87 24 q 94 61 87 54 q 100 75 100 68 q 98 79 100 79 q 94 80 96 79 q 90 84 92 81 q 87 97 87 87 q 87 124 87 109 q 86 156 86 140 q 85 185 86 172 q 85 203 85 199 q 89 225 85 212 q 100 243 93 237 q 124 252 110 249 q 146 256 138 256 q 166 258 155 256 q 184 260 178 260 q 199 257 193 260 q 212 254 205 254 l 261 254 q 280 259 268 254 q 297 261 292 264 q 303 251 304 257 q 299 239 302 245 q 294 228 296 233 q 293 218 292 222 q 302 214 296 212 q 316 221 309 216 q 331 233 323 227 q 339 241 338 239 q 346 251 346 245 q 355 256 346 256 q 378 256 364 256 q 399 257 392 257 q 412 264 412 257 q 416 279 412 272 q 429 291 422 286 q 436 311 436 296 q 430 329 436 319 q 424 346 424 338 q 413 359 424 353 q 396 370 401 366 q 387 371 393 371 q 374 371 380 371 q 364 372 368 371 q 359 378 359 374 q 357 391 363 389 q 347 386 351 393 q 335 374 342 380 q 321 368 328 368 q 302 373 313 368 q 282 378 292 378 q 249 376 271 378 q 220 374 228 374 q 208 385 212 374 q 203 399 203 396 q 197 404 203 401 q 184 401 192 407 q 169 398 178 396 q 154 407 160 400 q 131 426 150 414 q 107 458 111 439 q 93 478 104 468 q 79 496 81 488 q 72 521 77 505 q 68 551 68 536 q 71 567 68 562 q 77 573 74 571 q 85 576 81 575 q 93 583 89 578 q 105 602 100 595 q 106 618 111 608 q 96 620 103 623 q 82 614 89 618 q 70 610 75 611 q 65 614 65 608 l 65 728 q 72 737 65 734 q 78 745 78 739 q 73 750 78 750 q 68 758 68 750 q 68 771 68 762 q 71 789 69 779 q 73 807 72 799 q 74 819 74 815 q 83 842 74 827 q 94 861 92 857 q 99 863 97 864 q 104 861 102 863 q 110 861 107 860 q 114 867 113 861 q 126 887 118 875 q 154 911 135 900 q 169 916 165 918 q 183 914 172 913 q 190 910 187 914 q 195 903 193 907 q 200 899 197 900 q 205 903 203 897 q 210 915 210 909 q 208 924 210 920 q 206 930 207 928 q 207 937 205 933 q 230 954 212 946 q 257 962 248 962 l 328 962 q 339 958 336 962 q 351 953 342 953 l 418 953 q 429 956 425 953 q 436 958 432 958 q 448 951 441 958 q 457 939 454 945 q 466 921 460 933 q 473 920 472 908 q 478 937 476 930 q 486 947 479 943 q 489 957 490 951 q 504 962 488 962 q 534 963 519 962 q 557 964 549 964 q 566 958 567 964 q 572 953 566 953 q 588 951 581 953 q 600 949 596 949 q 607 956 607 949 q 614 962 607 962 q 631 956 624 962 q 644 940 639 949 q 654 925 650 932 q 661 917 659 918 q 673 915 665 917 q 689 910 681 913 q 704 902 697 907 q 710 890 710 897 q 711 873 710 885 q 712 849 711 861 q 713 825 713 836 q 714 808 714 814 q 707 790 714 796 q 700 777 700 783 q 705 765 700 770 q 710 751 710 761 q 702 732 710 743 q 685 720 693 721 q 665 710 673 718 q 650 699 657 701 q 639 697 646 696 q 629 701 632 699 q 619 710 627 705 q 604 714 611 714 l 572 714 q 556 709 566 714 q 541 704 547 704 q 535 717 536 704 q 538 737 533 730 q 531 748 542 746 q 513 743 519 750 q 502 725 505 736 q 490 714 498 714 q 476 716 482 714 q 464 718 471 718 q 455 711 458 718 q 444 704 452 704 q 428 705 437 704 q 424 714 419 707 q 421 723 427 721 q 414 715 416 725 q 411 704 411 704 q 404 704 411 704 q 392 707 397 704 q 380 708 386 710 q 378 703 375 708 q 374 692 380 699 q 362 681 367 685 q 358 663 358 677 q 369 641 358 643 q 385 632 379 639 q 397 622 389 628 q 414 616 406 616 q 430 606 428 616 q 443 585 432 595 q 463 577 453 575 q 471 591 473 579 q 474 612 468 604 q 489 621 479 621 q 506 620 493 621 q 533 618 519 619 q 558 616 546 616 q 572 615 570 615 q 596 610 581 615 q 623 599 611 606 q 626 591 629 596 q 617 581 623 586 q 608 571 611 575 q 612 564 606 567 q 626 565 616 561 q 640 576 636 568 q 654 581 644 583 q 668 575 664 578 q 683 553 679 564 q 693 534 688 542 q 694 525 696 530 q 691 513 693 519 q 688 502 689 507 q 689 493 688 496 q 696 493 692 490 q 704 499 700 496 q 712 504 708 503 q 715 501 715 505 q 719 487 715 496 q 726 467 722 478 q 734 445 730 456 q 737 425 737 433 m 593 1137 q 584 1129 593 1133 q 572 1120 575 1125 q 570 1108 571 1117 q 562 1095 568 1100 q 555 1081 557 1089 q 549 1067 553 1074 q 543 1054 546 1060 q 539 1042 539 1047 q 535 1025 539 1036 q 522 1014 530 1014 q 503 1014 518 1014 q 470 1013 488 1014 q 436 1013 452 1013 q 416 1013 421 1013 q 416 1015 415 1013 q 417 1021 416 1018 q 417 1026 418 1023 q 411 1029 416 1029 q 389 1021 400 1029 q 366 1013 378 1013 q 349 1013 363 1013 q 320 1014 335 1014 q 291 1015 304 1014 q 272 1015 277 1015 q 257 1017 264 1015 q 250 1034 250 1019 q 250 1053 250 1044 q 244 1067 250 1061 q 236 1079 240 1069 q 229 1092 232 1088 q 220 1101 227 1096 q 211 1109 214 1105 q 205 1119 207 1112 q 203 1129 203 1126 l 203 1149 q 211 1151 203 1154 q 218 1150 218 1147 q 224 1156 218 1154 q 235 1157 231 1157 l 288 1157 q 311 1147 301 1157 q 327 1136 315 1145 q 343 1125 339 1126 q 359 1120 350 1122 q 371 1114 368 1117 q 396 1104 379 1104 q 410 1109 406 1104 q 419 1117 414 1114 q 431 1122 427 1121 q 440 1126 436 1122 q 459 1138 443 1129 q 478 1150 475 1147 q 488 1155 484 1154 q 500 1156 493 1156 l 524 1156 q 538 1157 533 1156 q 555 1158 543 1158 q 559 1155 562 1158 q 562 1152 555 1152 q 575 1154 570 1152 q 583 1156 581 1156 q 589 1150 586 1156 q 593 1137 593 1145 z "},"Ý":{"ha":885,"x_min":17,"x_max":865,"o":"m 859 911 q 848 887 856 904 q 832 853 840 871 q 817 820 823 835 q 807 800 810 804 q 794 791 804 793 q 779 793 783 790 q 770 794 775 799 q 763 782 765 789 q 762 768 761 775 q 768 762 762 761 q 784 764 775 764 q 790 758 793 765 q 783 745 786 750 q 774 728 781 741 q 762 703 771 722 q 742 661 753 684 q 723 620 732 639 q 711 595 714 600 q 696 566 707 583 q 675 549 685 549 q 659 543 664 549 q 660 530 653 538 q 666 510 667 524 q 663 486 665 497 q 647 452 659 471 q 633 419 636 433 q 626 414 632 415 q 615 411 621 412 q 606 408 610 410 q 603 400 602 406 q 610 387 606 395 q 615 368 615 379 q 612 354 615 358 q 608 338 608 350 q 605 330 608 332 q 598 326 602 328 q 591 320 595 323 q 587 307 587 317 q 589 283 587 290 q 594 274 591 277 q 597 269 596 271 q 599 262 599 268 q 600 238 599 256 q 600 199 600 220 q 601 159 600 178 q 602 134 602 140 q 600 121 602 125 q 594 116 597 118 q 589 111 591 114 q 587 102 587 109 q 593 76 587 86 q 599 46 599 65 q 597 33 599 39 q 587 25 595 26 q 581 17 581 22 q 578 4 581 11 q 567 0 575 0 q 555 3 559 0 q 547 8 551 5 q 539 4 542 11 q 518 -4 533 -4 l 447 -4 q 426 3 431 -5 q 410 12 421 12 q 396 6 399 12 q 382 0 393 0 q 366 0 376 0 q 345 0 355 0 q 324 0 334 0 q 310 0 314 0 q 298 5 301 0 q 296 17 296 11 q 288 33 294 24 q 282 47 282 43 q 283 57 282 49 q 286 76 285 65 q 287 95 286 86 q 286 107 288 104 q 284 122 285 110 q 283 148 283 134 q 284 173 283 161 q 285 187 285 184 q 284 197 285 195 q 290 203 283 200 q 293 224 304 212 q 280 230 286 229 q 273 241 273 231 q 276 265 273 253 q 279 293 279 277 q 287 309 279 307 q 293 322 294 311 q 282 336 293 334 q 271 353 272 339 q 267 372 269 364 q 267 392 265 380 q 273 404 268 400 q 283 408 278 407 q 292 409 289 408 q 294 414 296 410 q 288 423 293 421 q 274 427 282 425 q 260 429 267 428 q 250 435 254 431 q 230 461 236 450 q 232 484 224 472 q 235 502 237 492 q 221 511 232 511 q 211 517 215 511 q 203 533 207 524 q 195 551 199 542 q 187 566 191 559 q 168 604 172 585 q 157 636 163 623 q 149 653 154 642 q 139 675 144 664 q 129 696 134 686 q 122 710 125 705 q 117 731 118 718 q 122 743 115 745 q 126 745 126 742 q 125 752 126 749 q 121 759 123 755 q 118 761 119 762 q 104 759 115 757 q 90 768 93 761 q 80 792 89 772 q 60 837 71 812 q 39 883 49 861 q 26 911 29 904 q 20 938 17 929 q 26 950 24 946 q 46 960 36 960 q 61 959 47 960 q 90 957 74 958 q 120 955 106 956 q 138 954 134 954 q 165 958 146 954 q 195 961 184 961 q 203 956 199 961 q 212 945 208 951 q 221 933 216 939 q 227 928 225 928 q 237 930 236 925 q 237 941 239 935 q 236 954 236 947 q 243 962 236 961 q 254 961 245 962 q 273 957 262 960 q 292 952 283 954 q 302 950 300 950 q 312 954 310 950 q 325 958 314 958 q 337 952 330 958 q 348 937 343 946 q 357 919 353 928 q 363 903 361 909 q 370 879 364 897 q 382 841 375 861 q 395 803 389 821 q 403 778 401 785 q 399 760 406 766 q 396 750 393 754 q 411 732 399 746 q 422 703 422 718 q 431 669 422 684 q 449 663 440 654 q 458 682 456 668 q 463 712 461 696 q 467 745 465 729 q 471 770 468 761 q 487 788 473 777 q 504 804 501 799 q 502 814 507 808 q 498 832 496 819 q 508 867 501 843 q 517 903 514 892 q 532 937 521 916 q 555 958 543 958 q 569 956 566 958 q 574 951 572 954 q 577 947 575 949 q 585 945 579 945 q 601 951 590 945 q 627 957 612 957 q 653 954 632 957 q 679 950 673 951 q 703 952 690 947 q 725 957 715 957 q 740 956 729 957 q 764 956 751 956 q 788 955 777 956 q 803 954 799 954 q 823 957 812 954 q 836 960 833 960 q 845 958 839 960 q 856 950 851 956 q 863 938 861 946 q 859 911 865 929 m 618 1109 q 609 1101 618 1107 q 591 1092 600 1095 q 571 1085 587 1090 q 534 1073 554 1079 q 497 1061 514 1067 q 473 1054 479 1055 q 453 1045 463 1051 q 429 1036 444 1039 q 404 1027 415 1032 q 380 1018 392 1022 q 362 1015 370 1013 q 349 1018 355 1018 q 339 1015 342 1018 q 329 1011 336 1011 q 321 1012 322 1011 q 315 1013 319 1013 l 290 1013 q 276 1015 283 1013 q 275 1026 269 1017 q 286 1048 281 1035 q 293 1068 290 1061 q 305 1083 297 1074 q 315 1100 313 1092 q 318 1113 318 1108 q 322 1126 318 1118 q 332 1140 328 1133 q 342 1150 336 1146 q 356 1155 345 1154 q 375 1156 368 1156 q 385 1150 382 1156 q 389 1140 389 1145 q 404 1131 389 1128 q 413 1136 411 1131 q 418 1146 415 1141 q 425 1153 421 1149 q 435 1157 428 1157 q 459 1156 441 1157 q 482 1156 476 1156 q 488 1152 488 1156 q 496 1147 489 1147 l 533 1147 q 540 1152 541 1147 q 546 1156 539 1156 q 565 1154 553 1156 q 582 1153 576 1153 q 585 1152 585 1153 q 587 1149 586 1150 q 592 1146 589 1147 q 604 1145 596 1145 q 618 1132 618 1145 l 618 1109 l 618 1109 z "},"ý":{"ha":917,"x_min":54,"x_max":859,"o":"m 859 603 q 851 596 859 593 q 844 591 844 599 q 844 552 844 587 q 845 474 844 517 q 846 395 846 432 q 846 354 846 358 q 841 337 846 343 q 831 336 836 332 q 822 332 827 342 q 829 321 818 322 q 842 316 836 318 q 848 304 848 314 q 849 284 848 300 q 850 253 850 269 q 852 221 851 236 q 852 204 852 207 q 849 201 852 203 q 842 197 846 199 q 834 191 838 195 q 831 180 831 187 q 824 152 833 168 q 807 111 814 135 q 792 89 802 98 q 777 77 783 79 q 765 64 768 75 q 757 46 761 53 q 740 33 753 40 q 710 17 726 25 q 677 4 693 9 q 652 -1 661 -1 q 624 -3 632 -1 q 607 -3 616 -4 q 599 2 599 -1 q 604 12 599 5 q 601 26 608 20 q 590 26 593 33 q 581 18 586 18 q 575 14 575 18 q 577 8 575 11 q 581 3 579 5 q 582 -2 582 0 q 576 -4 582 -4 q 558 -4 571 -4 q 529 -4 545 -4 q 499 -3 514 -4 q 478 -3 485 -3 q 468 1 471 -3 q 463 9 465 5 q 458 17 461 14 q 447 21 454 21 q 438 17 440 21 q 435 7 436 12 q 434 -1 435 3 q 428 -5 433 -5 q 418 -3 418 -5 q 406 -1 419 -1 q 399 1 399 -1 q 400 9 399 4 q 403 19 401 14 q 400 31 404 25 q 384 38 393 45 q 370 25 375 32 q 355 7 366 17 q 332 -3 345 -3 q 299 -2 321 -3 q 269 -1 277 -1 q 256 8 261 -1 q 248 26 250 18 q 231 40 241 45 q 218 46 225 37 q 211 62 211 56 q 212 83 211 71 q 212 103 212 96 q 219 125 212 119 q 225 142 225 131 q 222 164 225 149 q 218 193 218 179 q 227 206 218 205 q 243 211 236 207 q 245 219 245 212 q 243 231 244 225 q 243 243 243 237 q 249 249 244 249 q 272 249 260 249 q 288 240 285 249 q 300 224 289 229 q 315 229 311 220 q 324 247 318 239 q 345 254 330 254 q 362 253 351 254 q 385 252 374 252 l 431 252 q 440 251 433 252 q 453 249 447 250 q 465 244 460 248 q 468 236 469 240 q 480 221 465 228 q 500 224 494 215 q 505 240 505 232 q 517 248 505 248 q 542 254 532 248 q 553 277 553 260 q 551 318 553 296 q 550 347 550 340 q 543 352 550 353 q 529 351 536 351 q 519 354 522 351 q 512 360 515 357 q 505 366 509 363 q 494 368 501 368 q 487 366 489 368 q 484 358 485 363 q 478 351 482 354 q 467 349 475 349 q 432 348 457 349 q 380 347 407 347 q 330 347 353 346 q 301 349 307 347 q 288 360 293 351 q 278 376 282 368 q 270 392 273 385 q 262 399 267 399 q 258 393 260 399 q 255 380 257 387 q 249 367 253 374 q 237 357 244 359 q 212 361 228 354 q 180 368 196 368 q 155 383 167 368 q 135 404 143 397 q 126 418 127 412 q 126 428 125 424 q 130 435 127 432 q 132 443 132 439 q 119 453 129 454 q 106 457 110 452 q 90 476 97 463 q 76 504 82 489 q 66 533 69 519 q 62 554 62 547 q 62 575 62 562 q 61 600 61 587 q 60 624 61 612 q 60 640 60 635 q 65 654 60 652 q 78 653 71 656 q 91 653 86 650 q 96 661 96 656 q 95 670 97 665 q 89 676 93 675 q 69 687 81 681 q 57 703 57 693 q 60 726 57 714 q 62 749 62 737 q 62 775 62 755 q 62 816 62 794 q 61 858 61 838 q 61 884 61 878 q 58 908 61 897 q 54 926 54 918 q 62 950 54 940 q 85 961 69 961 q 103 956 98 961 q 111 947 109 951 q 116 938 114 942 q 125 935 118 933 q 142 945 135 936 q 158 958 149 954 q 178 960 170 961 q 197 960 186 958 q 212 965 210 962 q 227 968 214 968 q 253 969 241 968 q 271 970 264 970 q 283 961 278 970 q 283 949 288 953 q 281 928 273 939 q 298 926 289 918 q 305 940 306 933 q 304 953 304 947 q 307 962 304 958 q 321 966 310 966 q 355 949 355 966 l 355 880 q 357 878 355 878 q 359 879 358 879 q 362 878 361 879 q 364 869 364 876 q 362 859 364 861 q 359 854 361 856 q 355 851 357 852 q 353 846 353 850 q 352 818 353 839 q 351 761 351 798 q 345 748 351 750 q 336 737 338 746 q 338 726 336 730 q 343 715 340 721 q 348 702 346 710 q 350 677 350 693 q 357 648 350 667 q 372 629 364 629 q 381 622 380 629 q 392 615 382 615 q 414 614 400 615 q 436 614 428 614 q 447 603 443 614 q 447 585 452 593 q 453 578 444 578 q 467 585 463 578 q 469 604 469 595 q 489 614 469 614 q 504 612 497 614 q 517 611 510 611 q 531 622 521 611 q 541 648 541 633 q 547 656 541 653 q 560 661 553 659 q 572 667 567 664 q 578 677 578 671 q 573 685 578 684 q 562 688 568 686 q 549 690 555 689 q 541 693 543 690 q 536 713 533 704 q 539 729 539 722 l 539 821 q 549 842 539 835 q 562 859 559 848 q 559 867 562 864 q 551 873 555 871 q 543 879 547 876 q 539 886 539 882 q 535 892 539 893 q 530 899 530 890 q 535 909 530 905 q 539 917 539 913 q 538 936 539 920 q 545 958 538 951 q 555 964 549 965 q 568 962 561 962 q 578 962 575 962 q 589 961 582 961 q 594 956 591 961 q 597 943 596 950 q 601 930 599 936 q 604 921 603 924 q 630 910 619 903 q 635 937 642 918 q 634 955 631 947 q 646 962 637 962 q 667 963 650 962 q 702 964 684 964 q 737 966 721 965 q 757 966 753 966 q 760 964 760 966 q 760 957 760 961 q 760 950 760 953 q 765 947 761 947 q 782 948 774 947 q 794 949 790 949 q 798 951 798 949 q 799 958 799 954 q 800 965 799 962 q 807 968 802 968 l 843 968 q 854 956 850 968 q 859 930 859 945 l 859 871 q 851 859 859 864 q 827 856 843 854 q 817 851 821 856 q 812 843 814 847 q 813 837 811 839 q 821 838 815 835 q 845 840 835 842 q 854 829 854 839 q 857 815 854 818 q 859 804 859 812 q 851 791 859 793 q 844 783 844 790 q 851 771 844 777 q 857 758 857 766 q 857 731 857 754 q 858 681 857 708 q 859 631 859 654 q 859 603 859 608 m 627 1109 q 617 1101 627 1107 q 600 1092 608 1095 q 579 1085 596 1090 q 542 1073 562 1079 q 505 1061 522 1067 q 482 1054 488 1055 q 462 1045 471 1051 q 437 1036 453 1039 q 412 1027 424 1032 q 389 1018 400 1022 q 371 1015 378 1013 q 357 1018 364 1018 q 347 1015 350 1018 q 338 1011 345 1011 q 329 1012 330 1011 q 323 1013 328 1013 l 298 1013 q 285 1015 292 1013 q 283 1026 278 1017 q 294 1048 289 1035 q 301 1068 298 1061 q 313 1083 306 1074 q 323 1100 321 1092 q 326 1113 326 1108 q 330 1126 326 1118 q 340 1140 336 1133 q 350 1150 345 1146 q 365 1155 353 1154 q 383 1156 376 1156 q 394 1150 390 1156 q 397 1140 397 1145 q 412 1131 397 1128 q 421 1136 419 1131 q 427 1146 424 1141 q 433 1153 429 1149 q 443 1157 436 1157 q 468 1156 450 1157 q 490 1156 485 1156 q 496 1152 496 1156 q 504 1147 497 1147 l 542 1147 q 548 1152 549 1147 q 554 1156 547 1156 q 573 1154 561 1156 q 590 1153 585 1153 q 594 1152 593 1153 q 596 1149 595 1150 q 601 1146 597 1147 q 612 1145 604 1145 q 627 1132 627 1145 l 627 1109 l 627 1109 z "},"Þ":{"ha":860,"x_min":60,"x_max":823,"o":"m 534 672 q 534 685 534 677 q 531 701 533 693 q 525 714 529 708 q 514 720 521 720 q 485 713 498 720 q 468 707 472 707 q 456 710 461 707 q 452 718 452 714 q 447 727 452 724 q 439 724 441 730 q 424 717 436 718 q 406 715 411 715 q 388 722 399 715 q 374 722 376 729 q 372 712 371 720 q 374 698 374 705 q 375 683 375 690 q 368 672 375 676 q 367 655 364 669 q 372 636 370 640 q 378 630 374 635 q 390 621 383 625 q 402 613 396 616 q 412 610 408 610 q 428 610 416 610 q 454 609 440 610 q 480 608 468 608 q 494 608 492 608 q 503 616 501 608 q 504 627 504 624 q 510 635 504 629 q 522 644 517 640 q 534 672 534 656 m 822 659 q 819 645 823 652 q 807 640 815 637 q 803 629 799 643 q 812 608 807 615 q 817 596 817 604 q 816 577 818 587 q 810 556 814 567 q 802 538 807 545 q 784 528 796 533 q 774 517 771 522 q 774 493 781 503 q 753 473 765 488 q 733 457 741 458 q 718 456 728 456 q 711 449 708 456 q 700 432 714 435 q 687 425 692 429 q 678 417 682 421 q 669 408 673 412 q 654 401 664 404 q 644 403 643 399 q 637 408 646 407 q 628 401 629 410 q 621 389 627 393 q 592 377 614 386 q 546 370 570 368 q 539 365 542 371 q 525 361 536 358 q 507 360 514 364 q 492 357 500 357 q 478 361 478 357 q 469 366 478 366 q 454 360 458 366 q 437 354 449 354 q 421 362 431 354 q 410 379 412 371 q 404 385 408 383 q 394 385 399 387 q 387 378 389 383 q 389 366 385 374 q 385 355 392 358 q 378 343 378 353 l 378 208 q 381 180 378 191 q 385 163 385 170 q 382 149 385 155 q 379 138 379 143 q 377 132 379 132 q 373 133 375 132 q 368 136 371 134 q 364 136 366 138 q 355 123 359 134 q 353 110 350 113 q 369 106 359 106 q 379 92 379 106 q 379 63 379 85 q 378 35 379 41 q 369 11 378 20 q 346 1 359 1 q 319 0 332 1 q 298 -1 306 -1 q 282 3 290 -1 q 282 18 273 7 q 283 31 285 24 q 279 44 282 39 q 273 51 277 50 q 269 41 269 52 q 267 18 269 29 q 256 14 264 7 q 243 15 245 20 q 244 5 241 9 q 246 -1 249 3 q 232 -4 243 -4 q 214 -4 229 -4 q 181 -3 199 -4 q 148 -3 163 -3 q 131 -3 134 -3 q 118 9 123 -3 q 106 26 113 21 q 86 38 98 29 q 74 61 74 46 l 74 245 q 69 260 74 257 q 64 269 64 262 l 64 313 q 67 323 64 321 q 75 328 71 326 q 83 334 79 330 q 86 347 86 338 q 75 359 86 355 q 64 376 64 363 q 70 390 64 383 q 77 410 77 397 q 73 416 77 414 q 69 425 69 418 q 70 440 69 428 q 71 467 71 452 q 71 497 71 482 q 72 517 72 511 q 69 530 72 528 q 66 534 66 532 l 66 782 q 65 799 66 793 q 64 818 64 804 q 62 857 64 835 q 60 890 60 879 q 63 904 60 901 q 74 913 66 907 q 69 933 83 925 q 64 949 64 936 q 65 970 65 962 q 64 983 65 972 q 64 1007 64 994 q 64 1030 64 1019 q 65 1043 64 1040 q 66 1055 66 1046 q 65 1074 66 1064 q 63 1093 64 1084 q 62 1103 62 1101 q 69 1117 62 1107 q 75 1133 75 1126 q 79 1144 77 1139 q 90 1150 82 1150 q 103 1150 94 1150 q 124 1150 113 1150 q 146 1150 136 1150 q 163 1150 157 1150 q 176 1144 174 1150 q 191 1139 178 1139 q 206 1147 201 1139 q 228 1154 211 1156 l 298 1154 q 319 1146 313 1154 q 327 1142 322 1139 q 336 1149 332 1146 q 348 1152 340 1152 q 358 1146 355 1152 q 361 1133 361 1139 q 368 1125 361 1128 q 377 1117 375 1124 q 379 1104 379 1111 q 373 1074 379 1084 q 367 1048 367 1064 q 369 1039 367 1042 q 374 1034 371 1036 q 380 1028 378 1032 q 382 1017 382 1025 l 382 970 q 390 962 382 962 q 399 961 397 961 q 413 950 408 961 q 427 939 418 939 q 433 946 433 939 q 439 953 432 953 l 468 953 q 476 958 473 953 q 488 962 478 962 q 506 958 497 962 q 517 945 515 954 q 524 928 518 933 q 532 935 529 922 q 575 960 541 960 q 593 960 586 960 q 606 959 600 960 q 619 958 612 958 q 635 958 625 958 q 655 952 648 958 q 665 943 663 946 q 675 937 668 939 q 690 936 682 935 q 713 930 700 937 q 732 917 726 924 q 734 908 734 913 q 733 899 734 903 q 731 891 732 895 q 733 886 730 888 q 745 888 739 885 q 758 886 751 892 q 786 854 772 876 q 806 819 799 832 q 808 801 810 808 q 807 786 807 793 q 812 781 807 781 q 818 775 818 782 q 819 755 818 772 q 820 717 819 737 q 821 680 821 697 q 822 659 822 663 z "},"þ":{"ha":860,"x_min":54,"x_max":823,"o":"m 822 533 q 819 519 823 526 q 807 515 815 513 q 803 504 799 518 q 812 484 807 490 q 817 471 817 479 q 816 452 818 463 q 810 430 814 441 q 802 412 807 419 q 784 403 796 408 q 774 392 771 397 q 774 368 781 378 q 753 348 765 363 q 733 332 741 334 q 718 330 728 330 q 711 323 708 330 q 700 307 714 310 q 687 300 692 304 q 678 292 682 296 q 669 283 673 288 q 654 277 664 279 q 644 278 643 273 q 637 283 646 282 q 628 276 629 285 q 621 264 627 268 q 592 252 614 261 q 546 244 570 243 q 539 239 542 245 q 525 236 536 233 q 507 235 514 239 q 492 232 500 232 q 478 236 478 232 q 469 240 478 240 q 454 235 458 240 q 437 229 449 229 q 421 237 431 229 q 410 254 412 245 q 404 260 408 258 q 394 260 399 262 q 387 254 389 258 q 389 240 385 249 q 385 231 392 233 q 378 218 378 228 l 378 83 q 381 55 378 65 q 385 37 385 45 q 382 24 385 31 q 379 12 379 18 q 377 7 379 7 q 373 7 375 7 q 368 10 371 8 q 364 11 366 12 q 355 -2 359 8 q 353 -16 350 -12 q 369 -20 359 -20 q 379 -33 379 -20 q 379 -62 379 -40 q 378 -90 379 -83 q 369 -115 378 -106 q 346 -123 359 -123 q 319 -125 332 -123 q 298 -126 306 -126 q 282 -122 290 -126 q 282 -107 273 -118 q 283 -94 285 -102 q 279 -81 282 -86 q 273 -75 277 -75 q 269 -83 269 -74 q 267 -107 269 -96 q 256 -111 264 -118 q 243 -111 245 -106 q 244 -119 241 -115 q 246 -125 249 -122 q 232 -129 243 -129 q 214 -129 229 -129 q 181 -128 199 -129 q 148 -127 163 -127 q 131 -127 134 -127 q 118 -116 123 -127 q 106 -98 113 -104 q 86 -87 98 -96 q 74 -64 74 -79 l 74 121 q 69 135 74 132 q 64 144 64 138 l 64 187 q 67 199 64 196 q 75 203 71 201 q 83 209 79 205 q 86 222 86 212 q 75 234 86 231 q 64 252 64 237 q 70 265 64 258 q 77 285 77 272 q 73 291 77 289 q 69 300 69 293 q 70 314 69 302 q 71 341 71 326 q 71 371 71 357 q 72 392 72 386 q 69 405 72 403 q 66 410 66 407 q 66 433 66 411 q 66 490 66 456 q 65 563 65 524 q 64 635 65 602 q 64 692 64 668 q 64 717 64 715 q 70 726 64 721 q 83 734 77 732 q 92 748 89 739 q 87 757 94 757 q 74 753 81 757 q 66 762 66 750 q 73 801 66 782 q 79 828 79 821 q 72 841 79 839 q 65 857 65 843 q 60 885 65 873 q 54 908 54 897 q 60 920 54 920 q 74 926 66 921 q 69 947 83 939 q 64 953 64 950 q 65 962 65 956 q 64 977 65 965 q 64 1003 64 989 q 64 1028 64 1017 q 65 1043 64 1040 q 66 1055 66 1046 q 65 1074 66 1064 q 63 1093 64 1084 q 62 1103 62 1101 q 69 1117 62 1107 q 75 1133 75 1126 q 79 1144 77 1139 q 90 1150 82 1150 q 103 1150 94 1150 q 124 1150 113 1150 q 146 1150 136 1150 q 163 1150 157 1150 q 176 1144 174 1150 q 191 1139 178 1139 q 206 1147 201 1139 q 228 1154 211 1156 l 298 1154 q 319 1146 313 1154 q 327 1142 322 1139 q 336 1149 332 1146 q 348 1152 340 1152 q 358 1146 355 1152 q 361 1133 361 1139 q 368 1125 361 1128 q 377 1117 375 1124 q 379 1104 379 1111 q 373 1074 379 1084 q 367 1048 367 1064 q 369 1039 367 1042 q 374 1034 371 1036 q 380 1028 378 1032 q 382 1017 382 1025 q 381 1005 382 1008 q 379 999 380 1002 q 377 994 378 997 q 376 983 376 991 q 379 962 376 964 q 387 961 382 961 l 399 961 q 413 950 408 961 q 427 939 418 939 q 433 946 433 939 q 439 953 432 953 l 468 953 q 476 958 473 953 q 488 962 478 962 q 506 958 497 962 q 517 945 515 954 q 524 928 518 933 q 532 935 529 922 q 575 960 541 960 q 593 960 586 960 q 606 959 600 960 q 619 958 612 958 q 635 958 625 958 q 655 952 648 958 q 665 943 663 946 q 675 937 668 939 q 690 936 682 935 q 713 930 700 937 q 732 917 726 924 q 734 908 734 913 q 733 899 734 903 q 731 891 732 895 q 733 886 730 888 q 745 888 739 885 q 758 886 751 892 q 786 854 772 876 q 806 819 799 832 q 808 801 810 808 q 807 786 807 793 q 812 781 807 781 q 818 775 818 782 q 818 755 818 774 q 819 711 818 737 q 820 655 819 685 q 821 599 821 625 q 822 554 822 572 q 822 533 822 536 m 534 547 q 531 558 534 550 q 528 582 528 567 q 533 605 528 589 q 538 629 538 621 q 532 654 538 636 q 526 679 526 672 q 528 686 526 685 q 530 688 529 688 q 533 688 532 688 q 534 693 534 689 q 525 714 532 708 q 514 720 518 720 q 485 713 498 720 q 468 707 472 707 q 456 710 461 707 q 452 718 452 714 q 447 727 452 724 q 439 724 441 730 q 424 717 436 718 q 406 715 411 715 q 388 722 399 715 q 374 722 376 729 q 372 720 372 721 q 372 704 371 720 q 376 694 372 697 q 379 684 379 690 q 373 674 379 676 q 367 665 367 672 q 371 646 367 659 q 378 619 375 633 q 376 599 379 608 q 372 585 372 590 q 372 560 372 570 q 368 547 371 550 q 367 530 364 545 q 372 511 370 515 q 384 495 375 507 q 400 484 393 484 q 402 488 403 484 q 411 493 401 493 q 445 488 428 493 q 494 484 461 484 q 503 491 501 484 q 504 501 504 498 q 510 510 504 504 q 522 519 517 515 q 534 547 534 530 z "},"Ž":{"ha":796,"x_min":31,"x_max":762,"o":"m 762 195 q 762 170 762 191 q 761 127 761 150 q 760 85 761 104 q 760 60 760 65 q 758 36 760 49 q 747 22 755 22 q 726 11 732 22 q 719 1 724 4 q 710 -1 714 -1 q 689 -3 704 -1 q 667 -4 673 -4 q 654 -2 660 -4 q 647 4 648 0 q 637 15 646 11 q 624 18 629 18 q 611 15 619 18 q 603 7 603 12 q 602 -1 603 3 q 587 -5 602 -5 q 566 -5 581 -5 q 536 -5 551 -5 q 507 -4 521 -4 q 486 -4 493 -4 q 479 -3 479 -4 q 478 1 478 -1 q 478 4 478 3 q 472 5 478 5 l 425 5 q 425 4 422 5 q 429 1 427 3 q 434 -1 432 0 q 432 -3 436 -3 l 220 -3 q 210 1 211 -3 q 212 12 210 5 q 217 24 214 18 q 222 31 221 29 q 214 31 225 35 q 196 21 203 28 q 184 5 189 14 q 172 -4 179 -4 q 154 -5 165 -4 q 123 -5 142 -5 q 106 3 109 -5 q 106 16 103 11 q 100 24 109 21 q 87 21 92 28 q 73 15 85 14 q 54 25 61 16 q 50 44 46 33 q 46 58 53 54 q 31 86 31 68 q 33 110 31 96 q 35 135 35 125 l 35 193 q 37 217 35 201 q 47 232 40 232 q 61 243 56 232 q 71 261 66 254 q 81 274 74 265 q 98 295 89 283 q 115 316 107 306 q 126 330 123 326 q 135 352 132 339 q 144 370 138 364 q 161 386 151 376 q 175 403 171 396 q 175 421 178 410 q 182 449 172 433 q 197 471 186 456 q 221 503 208 486 q 244 534 233 519 q 257 555 254 549 q 269 579 261 564 q 285 611 277 595 q 301 641 293 627 q 313 659 309 654 q 329 667 319 667 q 346 664 339 667 q 356 671 354 663 q 355 685 358 679 q 355 696 351 690 q 366 705 358 701 q 367 719 372 708 q 353 728 361 730 q 344 718 346 725 q 326 710 342 710 q 305 711 318 710 q 278 711 292 711 q 253 712 265 711 q 237 713 241 713 q 224 718 229 713 q 208 722 218 722 q 199 714 199 722 q 189 707 200 707 q 162 710 178 707 q 139 714 146 714 l 93 714 q 76 716 86 714 q 62 725 65 718 q 54 734 61 733 q 46 753 46 734 l 46 835 q 53 844 46 843 q 60 847 60 844 q 55 858 60 852 q 50 873 50 864 q 50 888 50 878 q 49 909 49 899 q 48 929 49 920 q 47 942 47 939 q 52 954 47 949 q 62 958 56 958 q 80 958 71 958 q 97 957 90 957 q 109 939 106 957 q 116 934 111 932 q 122 943 121 936 q 124 951 122 947 q 135 954 126 954 l 210 954 q 221 959 218 954 q 229 964 224 964 q 243 964 233 964 q 263 963 253 964 q 283 962 273 962 q 296 962 293 962 q 303 960 300 962 q 314 957 307 957 q 324 956 317 957 q 341 956 332 956 q 360 955 351 956 q 374 954 370 954 q 378 950 380 954 q 373 940 376 946 q 367 926 370 933 q 368 913 364 920 q 384 910 375 903 q 396 932 393 918 q 406 953 399 945 q 424 961 412 961 l 473 961 l 572 961 q 580 956 579 961 q 586 951 581 951 l 621 951 q 632 948 627 951 q 637 937 637 945 q 645 935 639 930 q 654 945 652 939 q 659 954 657 949 q 669 960 660 960 q 704 954 690 960 q 722 946 711 951 q 732 926 732 940 l 732 893 q 728 888 732 889 q 725 884 725 888 q 719 868 725 876 q 717 851 713 860 q 727 855 720 847 q 734 856 734 863 q 734 844 734 851 q 734 826 734 836 q 733 809 733 817 q 733 798 733 802 q 731 782 733 790 q 722 762 729 774 q 708 744 714 751 q 699 732 703 736 q 679 730 689 720 q 660 732 672 736 q 653 721 648 729 q 660 709 656 717 q 668 692 664 701 q 673 675 672 684 q 671 661 675 667 q 651 628 664 650 q 628 587 639 607 q 614 564 623 578 q 598 535 606 550 q 585 508 591 521 q 575 486 579 494 q 564 471 568 468 q 557 478 559 475 q 550 480 553 482 q 549 471 547 478 q 539 435 553 457 q 526 419 534 431 q 508 394 518 407 q 490 369 498 380 q 478 351 482 357 q 473 342 473 346 q 473 334 472 338 q 473 327 473 330 q 471 318 473 323 q 453 293 467 309 q 433 273 439 277 q 417 261 427 271 q 407 236 408 252 q 410 220 406 221 q 422 227 415 218 q 428 237 427 232 q 431 247 429 243 q 435 254 432 252 q 447 257 439 257 l 532 257 q 541 247 539 257 q 541 229 543 237 q 545 212 533 214 q 561 218 557 211 q 566 229 564 222 q 572 243 568 236 q 580 256 575 250 q 591 261 585 261 q 597 253 599 261 q 602 244 595 244 q 607 251 607 244 q 618 258 607 258 q 635 259 624 258 q 660 260 647 260 q 687 260 673 260 q 708 261 700 261 q 718 258 715 261 q 723 252 721 256 q 728 244 725 248 q 737 239 730 240 q 752 231 750 236 q 754 216 754 225 q 758 205 754 210 q 762 195 762 201 m 587 1137 q 578 1129 587 1133 q 567 1120 570 1125 q 564 1108 566 1117 q 557 1095 562 1100 q 549 1081 551 1089 q 543 1067 547 1074 q 537 1054 541 1060 q 533 1042 533 1047 q 529 1025 533 1036 q 517 1014 525 1014 q 497 1014 513 1014 q 464 1013 482 1014 q 430 1013 446 1013 q 411 1013 415 1013 q 410 1015 410 1013 q 412 1021 411 1018 q 412 1026 412 1023 q 406 1029 411 1029 q 384 1021 395 1029 q 359 1013 372 1013 q 343 1013 357 1013 q 314 1014 329 1014 q 284 1015 298 1014 q 267 1015 271 1015 q 251 1017 258 1015 q 244 1034 244 1019 q 244 1053 244 1044 q 239 1067 244 1061 q 231 1079 235 1069 q 224 1092 227 1088 q 215 1101 221 1096 q 205 1109 208 1105 q 199 1119 201 1112 q 197 1129 197 1126 l 197 1149 q 205 1151 197 1154 q 212 1150 212 1147 q 219 1156 212 1154 q 229 1157 225 1157 l 282 1157 q 306 1147 296 1157 q 322 1136 310 1145 q 338 1125 334 1126 q 354 1120 345 1122 q 366 1114 363 1117 q 390 1104 374 1104 q 404 1109 400 1104 q 414 1117 408 1114 q 426 1122 421 1121 q 435 1126 431 1122 q 453 1138 437 1129 q 472 1150 469 1147 q 483 1155 478 1154 q 494 1156 488 1156 l 518 1156 q 533 1157 528 1156 q 550 1158 538 1158 q 553 1155 557 1158 q 557 1152 550 1152 q 569 1154 564 1152 q 578 1156 575 1156 q 584 1150 581 1156 q 587 1137 587 1145 z "},"ž":{"ha":796,"x_min":31,"x_max":762,"o":"m 762 195 q 762 170 762 191 q 761 127 761 150 q 760 85 761 104 q 760 60 760 65 q 758 36 760 49 q 747 22 755 22 q 726 11 732 22 q 719 1 724 4 q 710 -1 714 -1 q 689 -3 704 -1 q 667 -4 673 -4 q 654 -2 660 -4 q 647 4 648 0 q 637 15 646 11 q 624 18 629 18 q 611 15 619 18 q 603 7 603 12 q 602 -1 603 3 q 587 -5 602 -5 q 566 -5 581 -5 q 536 -5 551 -5 q 507 -4 521 -4 q 486 -4 493 -4 q 479 -3 479 -4 q 478 1 478 -1 q 478 4 478 3 q 472 5 478 5 l 425 5 q 425 4 422 5 q 429 1 427 3 q 434 -1 432 0 q 432 -3 436 -3 l 220 -3 q 210 1 211 -3 q 212 12 210 5 q 217 24 214 18 q 222 31 221 29 q 214 31 225 35 q 196 21 203 28 q 184 5 189 14 q 172 -4 179 -4 q 154 -5 165 -4 q 123 -5 142 -5 q 106 3 109 -5 q 106 16 103 11 q 100 24 109 21 q 87 21 92 28 q 73 15 85 14 q 54 25 61 16 q 50 44 46 33 q 46 58 53 54 q 31 86 31 68 q 33 110 31 96 q 35 135 35 125 l 35 193 q 37 217 35 201 q 47 232 40 232 q 61 243 56 232 q 71 261 66 254 q 81 274 74 265 q 98 295 89 283 q 115 316 107 306 q 126 330 123 326 q 135 352 132 339 q 144 370 138 364 q 161 386 151 376 q 175 403 171 396 q 175 421 178 410 q 182 449 172 433 q 197 471 186 456 q 221 503 208 486 q 244 534 233 519 q 257 555 254 549 q 269 579 261 564 q 285 611 277 595 q 301 641 293 627 q 313 659 309 654 q 329 667 319 667 q 346 664 339 667 q 356 671 354 663 q 355 685 358 679 q 355 696 351 690 q 366 705 358 701 q 367 719 372 708 q 353 728 361 730 q 344 718 346 725 q 326 710 342 710 q 305 711 318 710 q 278 711 292 711 q 253 712 265 711 q 237 713 241 713 q 224 718 229 713 q 208 722 218 722 q 199 714 199 722 q 189 707 200 707 q 162 710 178 707 q 139 714 146 714 l 93 714 q 76 716 86 714 q 62 725 65 718 q 54 734 61 733 q 46 753 46 734 l 46 835 q 53 844 46 843 q 60 847 60 844 q 55 858 60 852 q 50 873 50 864 q 50 888 50 878 q 49 909 49 899 q 48 929 49 920 q 47 942 47 939 q 52 954 47 949 q 62 958 56 958 q 80 958 71 958 q 97 957 90 957 q 109 939 106 957 q 116 934 111 932 q 122 943 121 936 q 124 951 122 947 q 135 954 126 954 l 210 954 q 221 959 218 954 q 229 964 224 964 q 243 964 233 964 q 263 963 253 964 q 283 962 273 962 q 296 962 293 962 q 303 960 300 962 q 314 957 307 957 q 324 956 317 957 q 341 956 332 956 q 360 955 351 956 q 374 954 370 954 q 378 950 380 954 q 373 940 376 946 q 367 926 370 933 q 368 913 364 920 q 384 910 375 903 q 396 932 393 918 q 406 953 399 945 q 424 961 412 961 l 473 961 l 572 961 q 580 956 579 961 q 586 951 581 951 l 621 951 q 632 948 627 951 q 637 937 637 945 q 645 935 639 930 q 654 945 652 939 q 659 954 657 949 q 669 960 660 960 q 704 954 690 960 q 722 946 711 951 q 732 926 732 940 l 732 893 q 728 888 732 889 q 725 884 725 888 q 719 868 725 876 q 717 851 713 860 q 727 855 720 847 q 734 856 734 863 q 734 844 734 851 q 734 826 734 836 q 733 809 733 817 q 733 798 733 802 q 731 782 733 790 q 722 762 729 774 q 708 744 714 751 q 699 732 703 736 q 679 730 689 720 q 660 732 672 736 q 653 721 648 729 q 660 709 656 717 q 668 692 664 701 q 673 675 672 684 q 671 661 675 667 q 651 628 664 650 q 628 587 639 607 q 614 564 623 578 q 598 535 606 550 q 585 508 591 521 q 575 486 579 494 q 564 471 568 468 q 557 478 559 475 q 550 480 553 482 q 549 471 547 478 q 539 435 553 457 q 526 419 534 431 q 508 394 518 407 q 490 369 498 380 q 478 351 482 357 q 473 342 473 346 q 473 334 472 338 q 473 327 473 330 q 471 318 473 323 q 453 293 467 309 q 433 273 439 277 q 417 261 427 271 q 407 236 408 252 q 410 220 406 221 q 422 227 415 218 q 428 237 427 232 q 431 247 429 243 q 435 254 432 252 q 447 257 439 257 l 532 257 q 541 247 539 257 q 541 229 543 237 q 545 212 533 214 q 561 218 557 211 q 566 229 564 222 q 572 243 568 236 q 580 256 575 250 q 591 261 585 261 q 597 253 599 261 q 602 244 595 244 q 607 251 607 244 q 618 258 607 258 q 635 259 624 258 q 660 260 647 260 q 687 260 673 260 q 708 261 700 261 q 718 258 715 261 q 723 252 721 256 q 728 244 725 248 q 737 239 730 240 q 752 231 750 236 q 754 216 754 225 q 758 205 754 210 q 762 195 762 201 m 587 1137 q 578 1129 587 1133 q 567 1120 570 1125 q 564 1108 566 1117 q 557 1095 562 1100 q 549 1081 551 1089 q 543 1067 547 1074 q 537 1054 541 1060 q 533 1042 533 1047 q 529 1025 533 1036 q 517 1014 525 1014 q 497 1014 513 1014 q 464 1013 482 1014 q 430 1013 446 1013 q 411 1013 415 1013 q 410 1015 410 1013 q 412 1021 411 1018 q 412 1026 412 1023 q 406 1029 411 1029 q 384 1021 395 1029 q 359 1013 372 1013 q 343 1013 357 1013 q 314 1014 329 1014 q 284 1015 298 1014 q 267 1015 271 1015 q 251 1017 258 1015 q 244 1034 244 1019 q 244 1053 244 1044 q 239 1067 244 1061 q 231 1079 235 1069 q 224 1092 227 1088 q 215 1101 221 1096 q 205 1109 208 1105 q 199 1119 201 1112 q 197 1129 197 1126 l 197 1149 q 205 1151 197 1154 q 212 1150 212 1147 q 219 1156 212 1154 q 229 1157 225 1157 l 282 1157 q 306 1147 296 1157 q 322 1136 310 1145 q 338 1125 334 1126 q 354 1120 345 1122 q 366 1114 363 1117 q 390 1104 374 1104 q 404 1109 400 1104 q 414 1117 408 1114 q 426 1122 421 1121 q 435 1126 431 1122 q 453 1138 437 1129 q 472 1150 469 1147 q 483 1155 478 1154 q 494 1156 488 1156 l 518 1156 q 533 1157 528 1156 q 550 1158 538 1158 q 553 1155 557 1158 q 557 1152 550 1152 q 569 1154 564 1152 q 578 1156 575 1156 q 584 1150 581 1156 q 587 1137 587 1145 z "},"−":{"ha":728,"x_min":32,"x_max":693,"o":"m 693 559 q 688 548 693 550 q 684 536 684 546 q 683 507 684 526 q 682 479 682 488 q 668 455 682 467 q 627 450 653 444 q 618 446 621 452 q 613 433 615 440 q 608 419 611 425 q 597 412 604 412 q 571 412 582 412 q 549 411 559 411 q 533 417 538 411 q 536 439 528 424 q 537 447 539 443 q 530 451 534 450 q 519 447 525 452 q 507 432 513 443 q 489 416 503 422 q 469 410 476 410 q 451 410 465 410 q 421 410 437 410 q 389 411 404 411 q 368 411 374 411 q 345 417 357 411 q 323 422 334 422 q 306 421 311 422 q 300 417 301 419 q 300 413 300 415 q 298 411 301 411 l 262 411 q 257 419 257 411 q 261 433 257 428 q 252 438 267 440 q 231 419 237 436 q 217 411 228 412 q 203 410 205 410 q 190 410 201 410 q 162 410 178 410 q 132 411 146 411 q 113 411 118 411 q 102 417 102 411 q 96 424 103 424 l 77 424 q 75 417 74 424 q 71 411 77 411 l 43 411 q 35 419 37 411 q 32 437 32 427 q 37 453 32 446 q 41 469 41 461 q 40 483 41 473 q 37 503 39 492 q 35 524 36 514 q 33 538 33 533 q 40 560 33 547 q 56 572 46 572 q 72 576 64 572 q 90 581 81 581 q 98 578 98 581 q 106 575 97 575 q 119 574 110 575 q 137 574 127 574 q 154 573 146 574 q 167 572 163 572 q 172 567 171 572 q 174 554 172 561 q 177 543 175 547 q 186 539 179 538 q 198 546 195 541 q 204 557 201 551 q 210 569 207 564 q 220 575 212 575 l 277 575 q 284 578 283 575 q 290 582 285 582 q 303 581 294 582 q 321 580 311 581 q 338 578 330 579 q 349 578 346 578 q 355 573 354 578 q 364 568 357 568 q 374 573 371 568 q 385 578 378 578 q 398 576 389 578 q 420 574 408 575 q 443 571 432 572 q 457 570 453 570 q 472 570 463 570 q 492 572 482 571 q 512 574 503 574 q 525 575 521 575 q 544 574 529 575 q 575 574 558 574 q 606 573 591 574 q 624 572 621 572 q 627 577 628 572 q 631 582 627 582 q 652 581 636 582 q 673 579 668 579 q 686 574 679 579 q 693 559 693 570 z "},"ł":{"ha":693,"x_min":-45,"x_max":665,"o":"m 494 736 q 497 713 497 729 q 484 693 497 697 q 466 686 472 689 q 449 677 460 682 q 435 680 436 673 q 421 682 433 686 q 408 668 408 676 q 399 657 407 660 q 388 654 396 656 q 370 647 380 652 q 369 624 370 639 q 368 594 368 608 q 369 569 368 579 q 372 557 370 558 q 382 544 376 554 q 379 521 389 533 q 373 506 376 517 q 370 485 370 496 q 370 463 370 473 q 371 444 371 453 q 364 431 371 436 q 347 425 357 425 q 340 419 342 425 q 338 407 338 414 q 340 395 338 400 q 346 392 342 390 q 362 397 353 395 q 371 389 371 400 q 371 370 371 385 q 372 339 371 355 q 372 308 372 322 q 372 289 372 293 q 384 263 372 267 q 410 260 395 260 q 430 253 427 260 q 440 245 433 245 q 451 253 447 245 q 461 261 454 261 q 474 256 468 261 q 478 243 479 252 q 480 229 475 231 q 488 235 486 227 q 495 251 490 243 q 507 260 500 260 q 532 258 514 260 q 566 257 550 257 q 593 258 579 257 q 618 260 607 260 q 634 249 635 260 q 640 232 633 239 q 655 226 647 227 q 664 204 664 225 q 665 184 664 197 q 665 167 665 171 q 650 139 665 142 q 640 129 642 138 q 646 117 639 119 q 658 101 653 111 q 663 78 663 90 q 653 41 663 53 q 651 31 647 35 q 654 20 654 26 q 649 8 654 16 q 631 0 643 0 q 591 -2 614 0 q 555 -4 568 -4 q 541 9 529 -4 q 545 21 545 16 q 529 18 545 26 q 521 9 522 14 q 519 3 519 5 q 515 -1 518 0 q 504 -3 513 -3 l 220 -3 q 210 3 212 -3 q 205 15 207 8 q 202 26 204 21 q 196 31 200 31 q 178 26 186 31 q 162 15 171 21 q 142 3 153 8 q 115 -3 131 -3 q 101 -1 106 -3 q 96 4 97 1 q 95 9 96 7 q 90 14 94 12 q 79 15 83 17 q 71 17 74 12 q 68 28 69 21 q 60 37 66 35 q 57 52 57 39 q 58 80 57 65 q 59 110 58 96 q 60 126 60 123 q 64 144 60 144 q 75 149 69 143 q 88 174 90 161 q 79 187 86 186 q 64 200 64 189 q 64 220 64 204 q 64 256 64 236 q 65 295 65 277 q 65 318 65 313 q 68 335 65 332 q 71 346 71 338 q 68 357 71 353 q 65 368 65 361 q 70 380 65 375 q 75 393 75 386 q 67 406 75 400 q 60 424 60 411 q 57 448 60 436 q 54 479 54 460 q 57 502 54 494 q 60 526 60 510 l 60 541 q 38 526 49 534 q 17 521 28 518 q 4 531 3 524 q -3 543 5 538 q -16 558 -12 546 q -22 578 -20 571 q -31 596 -25 585 q -41 619 -37 608 q -44 645 -45 629 q -33 663 -43 660 q -18 670 -26 665 q -1 677 -9 675 q 7 677 4 681 q 18 676 11 673 q 34 682 22 677 q 57 690 46 686 l 57 721 q 66 738 57 734 q 75 750 75 742 q 67 770 75 757 q 60 796 60 783 l 60 922 q 68 947 60 933 q 83 958 77 961 q 97 954 90 956 q 103 960 104 953 q 109 969 103 965 q 118 972 114 972 l 168 972 q 181 965 175 972 q 193 957 187 957 q 205 952 200 954 q 210 939 210 950 q 217 931 211 929 q 232 939 222 933 q 241 959 239 946 q 254 972 244 972 q 278 974 265 972 q 300 975 290 975 q 311 964 309 975 q 317 950 313 953 q 326 953 319 949 q 338 962 332 957 q 351 973 345 968 q 359 978 357 978 q 376 968 371 978 q 374 951 380 958 q 365 938 370 947 q 355 919 359 928 q 350 903 351 909 q 351 900 349 897 q 368 896 359 905 q 376 869 376 886 l 376 806 q 384 812 380 808 q 393 818 387 815 q 411 824 399 821 q 431 831 424 828 q 447 832 437 833 q 460 819 457 831 q 465 802 463 811 q 471 790 468 793 q 467 785 473 785 q 464 779 461 786 q 479 757 467 771 q 494 736 492 743 z "},"!":{"ha":440,"x_min":58,"x_max":379,"o":"m 379 882 q 379 857 379 876 q 378 817 379 838 q 377 779 378 796 q 376 758 376 761 q 370 750 376 751 q 354 751 363 749 q 346 744 346 754 q 357 733 346 733 q 372 734 368 732 q 376 718 376 737 l 376 533 q 364 517 376 515 q 357 510 359 517 q 353 496 354 504 q 353 483 353 489 q 355 476 353 476 q 368 481 363 478 q 372 472 372 485 q 372 454 372 465 q 370 432 371 443 q 369 411 370 421 q 368 397 368 401 q 364 386 368 393 q 355 368 359 378 q 345 349 350 358 q 339 336 340 340 q 340 330 338 332 q 345 326 342 328 q 349 321 347 323 q 349 310 351 318 q 340 291 346 302 q 330 267 335 279 q 321 244 325 254 q 317 231 317 235 q 313 213 315 222 q 302 204 310 204 q 284 203 293 204 q 273 210 275 203 q 269 221 272 216 q 261 218 265 227 q 235 205 253 205 q 219 205 232 205 q 190 205 205 205 q 160 204 174 204 q 142 204 146 204 q 126 209 132 204 q 117 221 119 214 q 111 241 115 225 q 99 276 106 257 q 88 314 93 296 q 81 342 83 332 q 77 373 78 361 q 78 392 77 385 q 77 397 79 395 q 72 402 75 399 q 65 410 68 406 q 62 422 62 414 q 62 444 62 429 q 63 473 62 458 q 64 499 64 488 q 64 514 64 511 q 76 532 64 529 q 96 538 89 534 q 115 552 107 543 q 125 570 122 561 q 125 586 127 579 q 114 593 122 593 q 103 589 111 593 q 87 582 96 585 q 73 579 79 579 q 66 587 66 579 q 67 626 66 604 q 68 654 68 647 q 67 681 68 661 q 66 713 66 701 q 70 731 66 724 q 74 746 74 739 q 70 755 74 751 q 65 765 65 758 q 73 777 65 772 q 86 783 81 781 q 89 793 89 786 q 82 800 89 800 q 70 799 77 799 q 64 811 64 799 q 64 831 64 818 q 64 859 64 844 q 65 887 65 873 q 65 905 65 900 q 62 922 65 914 q 65 939 58 930 q 81 945 72 949 q 96 942 90 942 q 101 947 103 942 q 107 953 100 953 q 122 952 114 953 q 138 951 131 951 q 150 948 143 951 q 157 939 157 945 q 163 925 155 932 q 179 921 171 918 q 188 929 186 924 q 191 941 191 935 q 195 952 192 947 q 204 957 197 957 q 219 957 208 957 q 242 958 231 957 q 265 958 254 958 q 278 958 275 958 q 292 953 285 958 q 310 949 298 947 q 319 941 317 949 q 323 922 321 933 q 328 900 325 911 q 336 884 330 889 q 347 881 340 879 q 360 886 354 884 q 372 890 367 889 q 379 882 378 890 m 340 17 q 334 9 340 11 q 326 5 328 8 q 322 0 323 3 q 313 -3 321 -3 q 299 -1 304 -3 q 286 1 293 1 q 269 15 278 1 q 254 29 260 29 q 244 19 248 29 q 243 5 240 9 q 240 1 248 3 q 224 0 233 0 q 210 3 214 0 q 197 5 207 5 q 181 5 193 5 q 156 5 170 5 q 129 4 142 4 q 113 4 117 4 q 97 12 106 4 q 89 31 89 20 q 89 51 89 36 q 88 81 89 65 q 87 110 87 97 q 87 125 87 122 q 90 139 87 132 q 94 151 92 146 q 98 160 97 155 q 113 164 100 164 q 131 163 127 164 q 136 154 135 163 q 140 136 138 144 q 149 135 142 127 q 152 145 153 140 q 155 154 151 150 q 180 163 167 163 q 200 163 186 163 q 220 164 214 164 q 229 158 227 164 q 235 153 231 153 l 271 153 q 281 149 277 153 q 288 139 286 146 q 295 134 290 132 q 302 140 300 135 q 304 153 306 147 q 311 158 302 158 q 331 159 321 158 q 340 149 340 160 q 334 134 340 138 q 328 123 328 131 q 328 108 328 119 q 330 84 329 97 q 331 61 330 72 q 332 46 332 50 q 333 44 332 43 q 336 47 335 45 q 339 50 338 49 q 340 47 340 50 l 340 17 l 340 17 z "},"\"":{"ha":453,"x_min":33,"x_max":421,"o":"m 421 819 q 419 806 421 811 q 418 794 418 802 q 412 776 418 787 q 403 758 407 765 q 394 740 400 751 q 385 722 389 729 q 380 707 382 715 q 376 689 379 699 q 365 671 372 679 q 351 663 358 663 l 323 663 q 301 676 311 663 q 287 695 296 684 q 277 717 278 707 q 264 749 275 728 q 253 781 253 770 q 252 800 253 786 q 250 828 252 814 q 248 855 249 843 q 248 869 248 867 q 252 875 248 872 q 263 881 257 878 q 274 890 269 885 q 277 901 278 895 q 272 902 277 904 q 263 899 268 900 q 254 898 258 897 q 250 905 250 899 l 250 932 q 288 960 250 960 q 296 956 293 960 q 304 953 300 953 q 315 953 307 953 q 333 952 323 953 q 350 951 342 951 q 363 951 358 951 q 369 956 368 951 q 376 960 370 960 l 401 960 q 412 953 407 960 q 418 939 418 946 q 418 926 418 936 q 417 904 418 916 q 416 883 416 893 q 416 869 416 872 q 410 861 416 863 q 403 852 403 859 l 403 822 q 412 824 403 821 q 421 819 421 828 m 207 825 q 205 808 207 815 q 204 794 204 802 q 198 776 204 787 q 187 758 192 765 q 178 740 184 751 q 170 722 172 729 q 165 707 167 715 q 161 689 164 699 q 149 671 157 679 q 138 663 142 663 l 110 663 q 87 676 94 663 q 73 695 82 684 q 61 717 64 707 q 48 749 60 728 q 36 781 36 770 q 35 804 36 791 q 33 822 33 817 q 46 831 33 828 q 61 844 58 835 q 58 856 62 852 q 50 861 54 859 q 40 865 45 863 q 35 875 35 868 l 35 932 q 74 960 35 960 q 81 956 79 960 q 90 953 83 953 q 101 953 93 953 q 118 952 109 953 q 136 951 127 951 q 147 951 144 951 q 154 956 154 951 q 161 960 154 960 l 186 960 q 198 953 192 960 q 204 939 204 946 q 203 921 204 932 q 203 903 203 909 q 196 890 203 896 q 189 876 189 884 l 189 850 q 198 840 189 847 q 207 825 207 833 z "},"#":{"ha":1097,"x_min":25,"x_max":1071,"o":"m 1067 724 q 1068 710 1071 721 q 1061 687 1065 700 q 1052 662 1057 675 q 1043 642 1046 648 q 1029 625 1036 627 q 1013 621 1022 624 q 1005 612 1002 615 q 1017 602 1008 608 q 1012 590 1025 596 q 987 585 999 583 q 954 587 977 587 q 917 586 932 587 q 897 590 900 586 q 897 597 895 595 q 904 608 903 600 q 903 623 905 615 q 887 622 899 629 q 873 608 876 615 q 866 594 871 602 q 857 586 861 587 q 846 585 850 583 q 836 585 842 587 q 831 578 833 583 q 825 570 828 572 q 819 558 819 564 q 821 547 819 553 q 822 533 822 541 q 818 518 822 526 q 804 485 811 503 q 791 451 798 467 q 781 423 785 435 q 775 408 777 411 q 779 403 774 406 q 790 398 783 400 q 805 395 798 396 q 817 393 812 393 q 837 399 827 392 q 863 407 847 407 q 884 408 873 407 q 907 410 895 410 q 917 401 918 411 q 922 385 916 392 q 923 371 925 382 q 917 348 921 361 q 907 322 913 335 q 899 301 901 309 q 885 285 893 286 q 868 279 878 283 q 863 272 860 277 q 873 262 865 268 q 868 247 880 257 q 844 239 856 237 q 822 239 842 239 q 779 241 803 240 q 735 241 755 241 q 711 241 715 241 q 706 235 708 241 q 702 218 704 228 q 698 199 700 208 q 694 184 696 189 q 667 162 686 168 q 647 151 648 157 q 650 146 647 149 q 657 142 653 144 q 664 138 661 140 q 665 132 667 136 q 658 112 664 127 q 645 80 652 97 q 632 47 637 62 q 624 26 627 32 q 612 7 621 16 q 597 -1 604 -1 q 583 -1 593 -1 q 563 -1 574 -1 q 543 0 553 0 q 530 0 533 0 q 513 5 519 0 q 496 14 507 11 q 484 15 486 17 q 478 8 481 12 q 474 1 476 4 q 464 -3 472 -3 q 448 8 456 -3 q 447 33 440 18 q 460 64 450 40 q 480 116 469 89 q 499 166 490 143 q 510 193 509 189 q 522 204 513 201 q 532 215 532 207 q 533 225 532 220 q 532 236 534 231 q 525 241 530 240 q 514 241 519 241 q 504 244 507 241 q 504 250 500 248 q 510 264 509 253 q 509 282 511 275 q 492 282 503 289 q 479 267 482 275 q 471 253 476 260 q 454 245 465 245 q 437 244 443 245 q 415 243 431 243 q 386 246 401 243 q 363 252 371 249 q 349 250 359 252 q 336 245 339 248 q 328 237 330 244 q 326 229 326 231 q 313 217 322 220 q 296 214 304 214 q 278 207 289 214 q 272 193 267 200 q 297 187 286 179 q 304 186 301 191 q 300 167 307 182 q 289 138 297 160 q 271 92 281 117 q 254 46 261 66 q 245 20 248 25 q 232 0 241 8 q 220 -1 222 -8 q 203 12 215 7 q 184 9 192 17 q 173 -5 178 1 q 153 -12 168 -12 q 118 -12 136 -12 q 93 -5 100 -11 q 74 12 82 1 q 71 33 66 22 q 80 52 74 39 q 93 80 86 65 q 106 112 100 96 q 115 140 113 127 q 135 186 125 174 q 149 205 146 199 q 153 222 149 210 q 154 235 158 235 l 93 235 l 54 235 q 32 245 39 233 q 28 264 25 257 q 33 278 29 267 q 40 301 36 289 q 48 325 45 314 q 52 339 52 336 q 58 349 54 347 q 68 349 62 350 q 79 347 74 347 q 85 353 83 347 q 85 361 87 357 q 81 369 83 366 q 77 376 78 372 q 77 383 75 379 q 109 399 83 401 q 133 399 119 399 q 154 401 146 400 q 160 397 158 401 q 163 388 161 393 q 168 379 165 383 q 176 376 171 375 q 188 391 183 378 q 203 407 192 404 q 215 406 207 407 q 232 403 222 404 q 241 418 239 416 q 248 429 248 424 q 247 441 248 435 q 245 454 245 447 q 249 469 244 461 q 258 492 252 476 q 271 524 264 507 q 283 555 278 541 q 290 575 289 570 q 284 578 292 579 q 269 576 277 576 q 257 581 262 576 q 244 587 252 585 q 230 583 237 591 q 215 575 222 575 q 200 576 205 576 q 176 575 195 575 q 154 586 161 575 q 150 603 147 596 q 156 620 151 607 q 168 649 161 633 q 178 677 174 664 q 184 693 183 690 q 190 699 187 699 q 195 703 192 699 q 195 710 196 705 q 196 722 193 715 q 211 734 200 729 q 232 739 221 739 q 253 739 235 739 q 292 739 271 739 q 332 739 314 739 q 353 739 350 739 q 357 748 357 739 q 359 762 357 757 q 382 783 366 772 q 400 800 399 794 q 397 804 400 804 q 390 804 395 804 q 384 805 386 804 q 383 810 382 806 q 391 830 385 814 q 405 867 397 847 q 419 904 412 886 q 428 926 427 921 q 440 944 431 936 q 456 953 449 953 q 467 941 464 953 q 481 932 471 929 q 498 946 492 935 q 510 958 505 958 q 523 958 511 958 q 548 956 534 957 q 574 955 562 956 q 587 954 586 954 q 604 944 596 954 q 606 918 612 933 q 599 900 603 911 q 590 878 595 889 q 583 857 586 867 q 576 843 579 847 q 570 837 575 839 q 560 833 566 835 q 550 829 554 832 q 546 822 546 827 q 549 798 547 814 q 546 770 551 782 q 541 759 545 766 q 536 747 538 751 q 541 742 534 741 q 553 743 547 743 q 556 737 557 743 q 553 724 555 730 q 551 714 551 718 q 557 714 551 710 q 576 732 571 720 q 591 746 581 745 q 613 743 603 747 q 642 737 623 739 q 664 737 650 737 q 692 737 677 737 q 718 738 707 737 q 730 739 729 739 q 740 754 733 739 q 753 786 746 768 q 765 819 760 803 q 771 838 771 835 q 784 850 775 847 q 802 852 793 852 q 820 860 808 852 q 825 873 831 868 q 812 882 819 880 q 800 880 804 884 q 794 881 798 876 q 798 900 790 885 q 804 918 804 914 q 807 932 804 921 q 820 954 810 943 q 832 953 831 964 q 838 940 835 945 q 847 943 840 935 q 859 957 854 950 q 879 964 864 964 q 901 964 886 964 q 931 965 916 965 q 958 964 946 965 q 971 958 970 962 q 976 951 972 954 q 983 947 979 949 q 989 942 987 945 q 989 935 991 940 q 979 914 986 929 q 964 880 972 899 q 949 842 956 861 q 937 811 942 823 q 914 764 928 779 q 904 747 900 749 q 914 743 907 746 q 928 737 921 739 q 958 741 936 736 q 996 746 979 746 q 1024 747 1007 746 q 1051 750 1040 749 q 1061 747 1059 750 q 1063 740 1063 745 q 1063 731 1063 736 q 1067 724 1064 726 m 679 591 q 670 589 677 591 q 652 584 663 587 q 632 578 642 581 q 615 575 623 575 q 578 576 602 572 q 545 582 555 581 q 533 582 543 582 q 510 581 522 582 q 488 581 497 581 q 475 581 478 581 q 469 573 472 581 q 462 556 465 566 q 456 537 458 546 q 452 525 453 528 q 432 500 446 513 q 416 481 419 488 q 417 466 415 473 q 415 444 419 458 q 408 426 414 441 q 399 404 401 411 q 409 400 396 399 q 435 401 422 401 q 451 399 444 401 q 463 393 457 396 q 473 388 468 390 q 484 389 478 386 q 502 392 486 390 q 537 395 518 393 q 571 397 555 396 q 590 397 587 397 q 596 404 593 397 q 604 419 600 411 q 611 435 608 428 q 614 444 614 443 q 619 462 615 450 q 626 487 623 473 q 633 512 629 500 q 639 530 636 525 q 657 557 644 543 q 675 578 671 571 q 680 585 677 581 q 679 591 682 590 z "},"$":{"ha":791,"x_min":64,"x_max":736,"o":"m 736 424 q 732 400 736 406 q 729 380 729 395 q 728 350 729 374 q 728 307 728 326 q 722 297 728 301 q 710 288 717 293 q 698 277 704 283 q 692 260 692 271 q 697 256 692 254 q 710 260 703 257 q 722 264 717 262 q 728 258 728 265 q 728 221 728 235 q 728 203 729 207 q 723 199 725 197 q 719 203 721 200 q 714 210 717 207 q 707 210 711 212 q 704 197 703 204 q 710 183 705 191 q 718 168 714 175 q 720 153 721 160 q 711 131 718 144 q 694 101 704 117 q 671 72 684 86 q 646 50 659 58 q 635 48 639 46 q 630 53 632 50 q 625 60 628 56 q 615 64 623 64 q 608 59 610 64 q 602 46 606 54 q 594 31 599 39 q 581 18 590 24 q 565 5 572 12 q 546 -3 557 -3 q 528 -3 534 -3 q 510 -4 521 -4 q 498 0 503 -4 q 490 -1 493 4 q 493 -16 488 -8 q 498 -35 498 -24 l 498 -72 q 492 -81 498 -79 q 485 -90 485 -83 q 476 -103 485 -96 q 458 -110 467 -110 q 438 -111 449 -110 q 418 -111 428 -111 q 410 -105 411 -111 q 403 -98 410 -98 l 372 -98 q 367 -104 366 -98 q 357 -110 368 -110 l 272 -110 q 253 -108 261 -110 q 245 -98 245 -106 q 245 -79 245 -93 q 244 -57 244 -65 q 247 -47 244 -47 q 250 -41 250 -47 q 257 -17 250 -28 q 262 -7 260 -12 q 258 -3 265 -3 l 170 -3 q 143 3 158 -3 q 123 9 127 9 q 102 16 118 9 q 86 33 86 22 q 92 60 86 53 q 98 74 98 66 q 96 78 98 78 q 92 79 94 78 q 88 83 90 79 q 86 96 86 86 q 85 123 86 107 q 85 155 85 139 q 84 184 85 171 q 83 201 83 197 q 87 223 83 211 q 98 241 92 235 q 122 251 109 248 q 144 254 136 254 q 165 256 154 254 q 183 258 176 258 q 198 255 192 258 q 211 252 204 252 q 235 253 218 252 q 258 254 252 254 q 269 258 265 254 q 278 260 272 262 q 286 250 285 256 q 286 238 286 244 q 284 226 285 232 q 289 215 283 220 q 303 212 296 210 q 317 219 311 214 q 329 230 323 224 q 338 239 335 236 q 344 249 345 244 q 353 254 343 254 q 376 255 363 254 q 397 256 390 256 q 411 263 411 256 q 415 277 411 271 q 428 289 421 283 q 435 310 435 294 q 429 327 435 318 q 422 343 422 336 q 411 358 422 351 q 395 368 400 364 q 386 370 392 370 q 373 370 379 370 q 362 371 367 370 q 358 376 358 372 q 355 389 361 386 q 346 385 350 392 q 333 372 340 379 q 319 366 326 366 q 301 371 311 366 q 281 376 290 376 q 248 374 269 376 q 218 372 227 372 q 206 384 211 372 q 201 397 201 395 q 196 403 201 400 q 183 400 191 406 q 167 396 176 395 q 153 404 158 397 q 129 425 149 412 q 106 457 110 437 q 91 476 103 467 q 78 494 79 486 q 71 518 75 503 q 66 550 66 534 q 69 565 66 561 q 76 572 72 570 q 83 575 79 574 q 92 582 87 576 q 104 599 98 593 q 104 616 110 606 q 95 618 102 621 q 81 612 87 615 q 69 608 74 610 q 64 612 64 607 l 64 725 q 70 734 64 733 q 77 743 77 736 q 72 748 77 749 q 66 755 66 747 q 67 769 66 760 q 69 787 68 778 q 71 804 71 796 q 72 815 72 812 q 81 838 72 822 q 93 860 90 854 q 98 861 96 863 q 103 859 100 860 q 109 858 106 857 q 113 865 111 859 q 125 886 117 873 q 153 908 134 899 q 168 913 164 916 q 182 913 171 911 q 189 909 186 913 q 194 902 192 905 q 199 897 196 899 q 204 901 201 896 q 208 913 208 908 q 207 922 208 918 q 205 929 205 926 q 205 936 204 932 q 225 951 211 945 q 248 960 239 958 q 260 958 254 961 q 269 961 265 956 q 269 974 272 965 q 267 990 267 983 q 264 1001 267 997 q 260 1008 262 1006 q 256 1015 258 1011 q 254 1023 254 1018 q 259 1046 252 1039 q 277 1053 267 1053 l 364 1053 q 378 1044 375 1053 q 385 1023 382 1035 q 394 1019 387 1013 q 399 1034 400 1026 q 396 1046 396 1039 q 407 1053 396 1053 q 441 1053 416 1053 q 476 1054 465 1054 q 490 1046 485 1054 q 494 1031 494 1038 l 494 975 q 509 961 494 961 q 536 962 525 961 q 555 962 547 962 q 565 957 566 962 q 571 951 564 951 q 602 956 579 951 q 657 960 624 960 q 668 955 667 960 q 668 944 669 950 q 665 933 667 939 q 667 928 663 928 q 676 924 669 928 q 690 915 684 920 q 703 903 697 909 q 708 889 708 896 q 709 872 708 884 q 711 847 710 860 q 712 824 711 835 q 713 807 713 812 q 706 788 713 794 q 699 775 699 782 q 703 763 699 766 q 708 750 708 760 q 700 731 708 742 q 684 718 692 720 q 664 708 672 717 q 648 697 656 700 q 637 695 644 694 q 628 700 631 696 q 617 708 625 704 q 603 713 610 713 l 571 713 q 555 708 564 713 q 539 703 546 703 q 532 709 534 703 q 534 722 530 715 q 537 736 539 732 q 530 742 534 741 q 519 741 525 743 q 509 734 513 739 q 502 716 501 728 q 494 704 503 704 q 478 710 488 704 q 463 717 469 717 q 454 710 457 717 q 443 703 450 703 q 426 704 436 703 q 412 713 415 705 q 405 720 411 715 q 392 727 399 724 q 378 732 385 730 q 368 730 372 733 q 361 722 363 725 q 362 715 359 718 q 366 706 364 711 q 368 694 368 701 q 362 681 367 686 q 357 661 357 675 q 367 639 357 642 q 383 631 378 636 q 398 621 387 627 q 415 615 408 615 q 424 610 422 615 q 425 599 425 606 q 425 586 425 593 q 431 575 425 579 q 450 570 440 566 q 457 585 460 574 q 463 608 454 599 q 479 618 471 618 q 497 617 484 618 q 527 616 511 616 q 556 614 543 615 q 571 614 568 614 q 594 609 579 614 q 621 597 610 604 q 624 588 628 593 q 615 578 621 583 q 607 569 610 574 q 611 561 604 564 q 625 563 615 559 q 639 575 635 567 q 653 579 643 582 q 667 572 663 576 q 682 551 677 562 q 692 533 686 541 q 693 524 694 529 q 690 512 692 518 q 687 500 688 505 q 688 490 686 494 q 694 490 690 488 q 703 496 699 493 q 710 502 707 500 q 714 500 714 504 q 718 485 714 494 q 725 465 721 476 q 732 443 729 454 q 736 424 736 432 z "},"%":{"ha":1246,"x_min":64,"x_max":1182,"o":"m 538 668 q 537 648 538 660 q 535 624 536 636 q 534 602 534 612 q 533 587 533 591 q 521 570 533 572 q 513 562 514 568 q 510 549 513 555 q 497 537 509 542 q 481 530 486 533 q 477 519 473 528 q 481 504 481 510 q 475 491 481 498 q 463 476 469 484 q 448 462 456 468 q 436 454 440 456 q 422 455 427 449 q 411 454 418 461 q 397 435 404 446 q 375 424 390 424 q 344 425 361 424 q 319 425 328 425 q 307 439 301 425 q 300 454 310 446 q 283 453 290 463 q 268 433 275 441 q 252 425 260 425 q 221 427 244 425 q 184 428 199 428 q 154 436 170 428 q 132 453 139 444 q 131 463 129 457 q 136 476 134 469 q 139 488 138 482 q 135 498 140 494 q 129 496 134 500 q 121 488 125 492 q 112 481 117 484 q 103 484 107 479 q 95 499 97 489 q 90 517 93 510 q 78 528 87 524 q 69 539 69 532 q 68 554 69 547 q 66 567 66 561 q 66 578 66 574 q 74 594 66 589 q 82 607 82 599 q 79 614 82 612 q 73 618 77 616 q 66 624 69 621 q 64 633 64 627 l 64 682 q 68 693 64 690 q 72 707 72 696 q 87 714 72 721 q 101 713 94 711 q 111 720 109 715 q 111 730 114 725 q 96 739 109 736 q 75 741 86 742 q 64 758 64 741 q 64 799 64 772 q 75 852 65 825 q 85 863 79 861 q 97 866 90 865 q 109 868 103 867 q 117 878 114 869 q 116 883 118 880 q 112 890 114 886 q 109 899 110 895 q 111 913 107 904 q 125 926 114 921 q 143 933 136 930 q 164 948 150 936 q 191 960 179 960 l 227 960 q 241 951 233 958 q 245 936 249 945 q 243 910 240 921 q 257 905 245 899 q 264 918 262 909 q 267 933 265 926 q 272 946 268 940 q 283 949 275 951 q 301 952 294 946 q 323 958 309 958 q 342 958 330 958 q 367 958 354 958 q 390 957 379 957 q 406 957 401 957 q 417 953 410 957 q 431 944 424 949 q 445 933 439 939 q 453 924 452 928 q 452 917 456 920 q 443 912 449 914 q 433 909 437 911 q 429 904 428 907 q 434 893 429 896 q 445 890 439 890 q 457 889 452 889 q 464 889 463 889 q 469 892 467 888 q 473 901 471 897 q 479 907 475 905 q 490 904 484 909 q 502 889 494 900 q 517 864 510 878 q 531 835 525 850 q 536 810 536 821 q 536 782 536 798 q 537 752 536 766 q 538 726 538 737 q 538 713 538 715 q 533 696 538 704 q 524 689 529 689 q 516 677 517 689 q 522 669 515 665 q 533 678 529 672 q 538 668 538 684 m 953 808 q 957 798 958 808 q 949 777 956 787 q 934 760 939 766 q 926 751 929 754 q 900 739 916 743 q 876 720 885 734 q 875 713 873 715 q 878 708 876 710 q 882 703 880 705 q 880 699 884 701 q 862 676 878 694 q 828 637 846 659 q 794 596 810 615 q 775 575 778 578 q 761 567 770 568 q 743 572 751 566 q 741 572 742 575 q 741 563 741 570 q 741 551 741 557 q 739 541 741 545 q 734 528 736 533 q 725 515 732 522 q 714 503 721 511 q 701 485 708 494 q 687 469 693 476 q 677 458 681 461 q 665 454 671 452 q 654 453 659 456 q 656 442 652 447 q 652 427 660 437 q 634 406 647 421 q 605 373 621 390 q 578 341 590 355 q 562 325 566 328 q 549 327 557 321 q 533 343 541 334 q 524 349 529 351 q 514 342 518 347 q 510 328 510 336 q 518 315 510 319 q 528 296 526 310 q 522 273 529 282 q 496 244 513 264 q 453 193 479 224 q 436 185 446 183 q 427 180 427 187 q 426 164 427 174 q 410 153 425 155 q 386 149 395 150 q 368 149 376 149 q 351 151 357 149 q 347 163 345 154 q 345 170 351 170 q 332 164 339 170 q 319 153 325 157 q 302 149 314 149 q 282 156 292 149 q 285 175 273 164 q 304 198 288 179 q 344 242 321 216 q 393 297 367 268 q 441 351 419 326 q 478 392 464 375 q 494 410 493 408 q 504 413 497 414 q 514 415 511 412 q 517 425 517 418 q 524 441 517 432 q 549 473 526 446 q 597 533 571 501 q 645 592 623 566 q 668 623 667 619 q 680 630 675 628 q 693 629 685 632 q 709 635 701 627 q 708 643 717 643 q 693 647 699 644 q 699 661 688 650 q 718 685 703 667 q 750 725 733 704 q 781 764 766 746 q 799 785 796 782 q 807 789 804 791 q 814 791 810 786 q 815 797 818 794 q 815 802 812 799 q 851 814 828 814 q 874 812 861 814 q 884 806 888 811 q 887 798 880 800 q 900 800 895 796 q 910 808 907 807 q 921 810 914 810 q 938 809 928 810 q 953 808 947 808 m 1182 200 q 1181 158 1182 184 q 1169 106 1181 131 q 1160 94 1165 96 q 1149 91 1154 92 q 1138 89 1143 90 q 1128 79 1132 87 q 1128 74 1126 77 q 1133 66 1131 71 q 1137 57 1136 62 q 1135 45 1137 52 q 1120 31 1131 36 q 1103 25 1109 26 q 1082 11 1096 22 q 1055 -1 1068 -1 q 1035 -2 1046 -1 q 1018 -1 1025 -3 q 1005 5 1013 -1 q 1000 20 997 12 q 1002 47 1004 36 q 987 52 999 58 q 981 39 982 47 q 979 24 979 31 q 975 12 978 17 q 961 9 971 7 q 944 5 951 12 q 922 -1 936 -1 q 904 -1 916 -1 q 879 0 892 0 q 854 1 865 0 q 839 1 843 1 q 828 5 835 1 q 814 15 822 9 q 801 25 807 20 q 791 33 794 31 q 793 42 789 39 q 802 46 798 45 q 812 49 807 47 q 817 53 817 50 q 812 64 817 61 q 801 67 807 66 q 789 67 794 68 q 782 66 783 66 q 777 64 779 69 q 772 56 775 60 q 766 50 770 52 q 755 53 762 47 q 744 68 751 57 q 728 93 736 79 q 715 122 721 107 q 710 149 710 136 q 710 175 710 160 q 709 205 710 191 q 708 231 708 220 q 708 245 708 241 q 712 260 708 253 q 722 267 715 267 q 730 279 729 267 q 724 289 730 292 q 712 281 715 286 q 708 290 708 275 q 709 309 708 297 q 710 333 710 321 q 711 355 710 345 q 711 370 711 366 q 725 386 711 383 q 732 396 730 389 q 736 410 733 403 q 748 421 737 416 q 765 428 758 425 q 769 439 772 431 q 765 454 765 447 q 771 467 765 460 q 783 483 777 475 q 797 496 790 490 q 808 504 804 503 q 822 502 818 507 q 833 504 827 496 q 848 524 842 513 q 869 534 854 534 q 901 534 885 534 q 925 533 917 533 q 939 518 942 533 q 945 502 936 510 q 961 505 954 494 q 978 525 970 517 q 994 533 986 533 q 1024 532 1002 533 q 1061 530 1047 530 q 1092 522 1076 530 q 1112 505 1107 514 q 1115 494 1117 500 q 1109 481 1112 488 q 1106 469 1107 475 q 1111 460 1105 464 q 1117 462 1114 458 q 1125 469 1121 465 q 1133 476 1129 473 q 1141 475 1137 479 q 1151 458 1149 469 q 1154 440 1153 447 q 1166 429 1157 433 q 1175 416 1175 425 q 1178 401 1177 408 q 1179 389 1179 395 q 1179 380 1179 383 q 1172 365 1179 370 q 1164 350 1164 359 q 1166 342 1164 345 q 1173 338 1169 340 q 1179 333 1177 336 q 1182 322 1182 329 l 1182 277 q 1177 264 1182 267 q 1173 250 1173 261 q 1157 244 1173 239 q 1144 244 1152 248 q 1134 237 1137 241 q 1133 227 1131 232 q 1150 218 1136 221 q 1161 217 1156 216 q 1172 217 1166 218 q 1179 213 1177 216 q 1182 200 1182 210 m 385 729 q 376 732 380 733 q 367 731 371 732 q 359 732 363 730 q 355 741 355 733 l 355 766 q 361 779 355 779 q 364 786 367 779 q 354 796 361 791 q 338 799 347 800 q 314 808 314 794 q 306 814 313 814 q 301 808 298 815 q 286 798 304 798 q 264 790 279 798 q 249 771 249 782 q 248 743 249 761 q 248 717 248 725 q 248 705 248 713 q 249 690 249 697 q 247 679 249 684 q 241 673 245 673 q 233 664 231 675 q 239 647 235 653 q 249 631 249 643 q 249 607 249 615 q 252 587 249 599 q 262 585 254 581 q 272 581 271 589 q 283 578 277 571 q 296 585 290 585 q 308 580 307 585 q 319 575 309 575 q 333 576 334 575 q 339 583 332 578 q 350 598 345 590 q 355 616 355 606 l 355 700 q 362 710 355 707 q 374 715 368 713 q 385 720 380 717 q 385 729 389 724 m 1006 309 q 997 326 997 315 q 998 350 997 342 q 994 368 999 358 q 983 372 991 376 q 972 378 974 368 q 963 379 970 386 q 950 372 956 372 q 937 377 939 372 q 925 382 936 382 q 913 380 913 382 q 907 372 913 379 q 895 359 900 368 q 890 339 890 350 l 890 257 q 884 248 890 252 q 871 242 878 244 q 861 237 864 240 q 861 228 857 235 q 869 224 864 224 q 879 226 873 225 q 887 225 884 227 q 890 216 890 224 l 890 191 q 885 178 890 178 q 882 171 879 178 q 890 161 884 167 q 908 158 897 155 q 925 158 920 161 q 930 149 930 154 q 940 142 933 142 q 943 149 946 142 q 960 158 942 158 q 982 166 966 158 q 997 186 997 175 q 998 215 997 197 q 999 241 999 232 q 997 253 999 245 q 996 267 996 260 q 997 279 996 273 q 1003 285 999 285 q 1013 295 1014 283 q 1006 309 1011 306 z "},"&":{"ha":1036,"x_min":64,"x_max":1002,"o":"m 1002 501 q 997 486 1002 488 q 991 473 991 484 q 989 454 991 464 q 990 429 986 444 q 994 422 991 424 q 997 419 996 421 q 1000 416 999 418 q 1000 407 1000 414 q 995 378 1000 387 q 985 366 990 368 q 971 360 979 363 q 951 357 964 357 q 920 362 939 357 q 895 368 901 368 q 879 362 888 368 q 869 346 869 357 q 858 314 869 330 q 846 290 846 298 q 849 286 846 286 q 857 284 852 285 q 864 282 861 283 q 867 273 867 281 q 866 196 864 237 q 864 109 868 155 q 872 73 863 85 q 882 49 882 61 q 869 17 882 35 q 840 0 856 0 q 822 0 833 0 q 800 -1 811 0 q 779 -1 789 -1 q 762 -1 768 -1 q 756 2 757 -1 q 755 9 755 5 q 755 16 755 12 q 750 20 755 20 q 731 9 739 20 q 717 -1 724 -1 q 700 -1 713 -1 q 670 -2 686 -1 q 638 -3 653 -3 q 615 -3 623 -3 q 596 3 600 -3 q 591 21 591 8 q 592 37 591 26 q 594 59 593 47 q 595 80 595 71 q 596 94 596 90 q 601 108 596 103 q 610 116 606 113 q 620 123 615 119 q 625 132 625 126 q 620 140 625 139 q 610 140 615 140 q 600 139 604 139 q 595 144 595 139 q 595 182 595 161 q 595 222 595 203 q 596 257 596 241 q 596 281 596 273 q 604 303 596 293 q 612 328 612 313 q 606 356 612 339 q 586 374 600 374 q 561 370 571 374 q 543 366 550 366 q 534 370 536 366 q 525 374 532 374 l 419 374 q 372 355 378 374 q 362 335 370 350 q 355 306 355 319 q 371 267 355 282 q 386 251 379 258 q 404 244 393 244 q 435 253 421 244 q 458 262 449 262 q 469 253 467 262 q 464 232 471 243 q 470 224 460 221 q 486 233 481 227 q 494 250 490 241 q 507 258 497 258 q 526 254 517 258 q 534 221 534 249 q 530 193 534 203 q 525 174 525 183 q 532 163 525 165 q 539 151 539 160 q 538 135 539 144 q 538 118 538 125 q 528 107 538 109 q 518 94 518 106 q 527 79 518 82 q 536 62 536 75 q 537 46 536 52 q 530 35 538 40 q 506 22 521 29 q 486 7 492 16 q 475 -2 479 0 q 463 -4 471 -4 q 435 -4 460 -4 q 382 -5 411 -4 q 326 -5 353 -5 q 292 -5 300 -5 q 267 5 273 -5 q 261 25 260 16 q 255 48 262 43 q 240 37 248 54 q 228 24 235 29 q 207 22 221 18 q 186 31 195 26 q 168 36 178 36 q 154 44 164 36 q 131 62 143 52 q 109 82 119 72 q 93 102 98 93 q 89 112 87 109 q 94 117 90 115 q 101 121 97 119 q 104 126 104 122 q 94 136 104 132 q 83 149 83 139 q 81 160 83 153 q 74 176 78 168 q 66 192 69 184 q 64 201 64 199 q 70 217 64 208 q 82 228 75 225 q 89 233 86 229 q 92 243 92 237 q 91 252 93 249 q 82 254 89 256 q 66 255 69 252 q 64 265 64 258 l 64 407 q 74 440 64 419 q 100 473 85 461 q 108 488 110 479 q 114 503 106 496 q 144 509 125 510 q 170 519 163 509 q 157 531 172 524 q 131 538 142 538 q 122 546 121 539 q 113 557 123 553 q 97 571 104 561 q 83 592 89 581 q 73 613 77 603 q 69 628 69 623 q 73 647 69 639 q 77 671 77 654 q 77 698 77 686 q 92 710 78 710 q 109 717 98 710 q 118 734 119 724 q 110 745 115 742 q 97 746 104 749 q 86 740 92 745 q 76 734 81 736 q 69 734 72 732 q 66 747 66 737 q 70 777 66 766 q 74 798 74 787 q 81 817 74 808 q 89 832 87 825 q 97 855 92 840 q 118 878 103 869 q 130 875 125 884 q 140 871 135 867 q 150 883 149 878 q 151 892 151 888 q 150 899 150 896 q 154 907 150 903 q 169 917 158 911 q 191 931 179 924 q 215 945 203 939 q 233 953 227 951 q 264 956 248 958 q 289 954 281 954 q 304 953 296 954 q 317 951 313 951 q 324 943 321 951 q 322 929 328 935 q 319 920 321 926 q 316 909 317 914 q 317 901 315 904 q 325 903 319 899 q 340 927 336 911 q 350 949 343 943 q 367 959 355 956 q 387 962 378 962 q 401 958 397 962 q 411 953 406 953 q 425 952 416 953 q 440 951 433 951 q 455 956 447 951 q 471 961 464 961 l 526 961 q 540 954 533 961 q 547 937 547 947 q 543 926 547 929 q 538 916 538 922 l 538 861 q 543 857 538 854 q 549 851 549 859 q 546 833 549 844 q 543 815 543 822 q 539 807 543 808 q 530 804 534 806 q 519 800 524 804 q 524 790 515 796 q 537 789 532 785 q 543 783 543 794 l 543 734 q 533 723 543 722 q 521 720 522 724 q 517 713 518 717 q 505 710 515 710 q 484 714 496 710 q 464 718 472 718 l 406 718 q 387 710 399 718 q 368 697 375 703 q 363 684 361 692 q 363 673 366 676 q 353 662 358 671 q 349 642 349 653 q 355 623 349 632 q 378 614 361 614 q 410 612 393 614 q 435 611 427 611 q 443 616 443 611 q 449 621 443 621 l 496 621 q 505 614 503 621 q 503 597 507 607 q 499 581 497 589 q 513 582 501 574 q 528 601 526 590 q 543 611 529 611 q 567 604 558 611 q 581 597 575 597 q 590 603 585 597 q 595 615 595 608 q 593 626 595 623 q 591 637 591 629 q 599 657 591 644 q 618 668 607 671 q 627 671 623 668 q 635 680 631 675 q 646 689 640 685 q 656 693 652 693 q 670 692 664 694 q 683 686 676 689 q 695 679 689 682 q 710 679 701 676 q 712 686 714 682 q 706 695 710 690 q 701 705 703 700 q 703 714 699 710 q 732 730 715 728 q 745 729 739 732 q 751 720 751 726 q 757 713 750 713 q 771 728 764 714 q 790 742 778 734 q 811 753 802 750 q 834 760 818 755 q 860 765 850 765 q 873 758 868 765 q 878 745 878 750 q 874 732 878 736 q 867 726 871 729 q 861 718 864 722 q 859 705 859 714 q 863 690 859 696 q 867 669 867 684 q 865 641 868 657 q 859 616 861 624 q 863 600 854 599 q 885 600 872 600 q 906 603 889 600 q 943 597 924 606 q 961 603 950 595 q 982 611 971 611 q 1002 596 1002 611 l 1002 501 l 1002 501 z "},"'":{"ha":237,"x_min":33,"x_max":205,"o":"m 205 819 q 204 806 205 811 q 203 794 203 802 q 197 776 203 787 q 187 758 191 765 q 178 740 183 751 q 168 722 172 729 q 164 707 165 715 q 160 689 163 699 q 149 671 157 679 q 136 663 142 663 l 110 663 q 86 676 93 663 q 72 695 82 684 q 60 717 61 707 q 47 749 58 728 q 36 781 36 770 q 35 800 36 786 q 35 828 35 814 q 34 855 35 843 q 33 869 33 867 q 38 875 33 872 q 48 881 43 878 q 58 890 54 885 q 60 901 62 895 q 56 902 60 904 q 46 899 52 900 q 38 898 41 897 q 35 905 35 899 l 35 932 q 72 960 35 960 q 81 956 79 960 q 89 953 83 953 q 117 952 96 953 q 146 951 139 951 q 153 956 153 951 q 160 960 153 960 l 186 960 q 197 953 191 960 q 203 939 203 946 l 203 869 q 195 861 203 863 q 187 852 187 859 q 188 836 187 846 q 189 822 189 825 q 197 824 189 821 q 205 819 205 828 z "},"(":{"ha":428,"x_min":26,"x_max":395,"o":"m 395 1026 q 394 1014 395 1022 q 382 999 393 1006 q 356 974 371 993 q 335 945 340 956 q 324 914 330 932 q 315 889 318 896 q 297 876 314 872 q 287 870 289 879 q 290 859 285 861 q 300 852 296 856 q 297 838 304 848 q 289 819 293 832 q 281 790 285 806 q 274 759 277 775 q 269 732 271 743 q 260 704 267 711 q 253 686 254 697 q 244 671 253 675 q 233 654 236 667 q 233 639 233 648 q 233 619 233 629 q 231 598 232 608 q 228 585 231 589 q 215 571 224 575 q 195 563 205 567 q 177 557 184 559 q 167 547 170 554 q 172 531 165 538 q 189 519 179 525 q 209 508 199 514 q 220 493 218 501 q 220 475 221 482 q 218 457 218 468 q 216 430 218 446 q 214 412 214 415 q 221 372 214 399 q 228 313 228 345 q 233 286 228 301 q 243 260 237 271 q 250 245 245 254 q 258 225 254 236 q 264 206 261 215 q 269 193 268 197 q 267 176 272 183 q 256 170 262 170 q 250 165 250 171 q 254 157 250 160 q 264 159 258 155 q 269 151 269 163 q 283 118 269 140 q 318 52 297 96 q 331 17 326 33 q 342 -9 336 0 q 351 -18 346 -20 q 361 -25 357 -17 q 372 -48 366 -32 q 378 -71 378 -64 q 370 -91 378 -86 q 351 -98 363 -96 q 335 -109 340 -102 q 328 -126 330 -117 q 319 -134 325 -135 q 309 -126 313 -132 q 294 -125 301 -123 q 279 -118 286 -126 q 260 -89 264 -103 q 254 -64 257 -75 q 242 -42 252 -54 q 225 -26 233 -31 q 201 -1 207 -16 q 197 16 196 5 q 203 31 197 26 q 205 44 207 36 q 196 52 203 52 q 183 45 191 52 q 167 49 176 39 q 160 60 165 53 q 150 74 155 66 q 140 89 144 82 q 135 97 136 96 q 130 117 131 106 q 126 135 129 129 q 119 144 123 138 q 107 158 114 151 q 95 187 103 167 q 87 218 87 207 q 93 234 87 229 q 106 250 98 239 q 107 266 113 260 q 87 265 102 272 q 70 275 82 264 q 56 297 58 286 q 45 338 52 322 q 44 365 41 346 q 45 389 46 383 q 35 407 43 396 q 28 429 28 418 q 26 476 26 449 q 28 519 26 504 q 35 532 28 533 q 49 534 41 532 q 56 543 56 538 q 50 555 57 549 q 42 577 43 562 q 45 608 41 591 q 52 632 47 616 q 63 665 57 648 q 75 696 69 682 q 83 714 81 710 q 88 727 89 721 q 94 746 87 733 q 101 763 97 753 q 110 783 106 772 q 118 801 114 793 q 125 812 122 810 q 132 828 131 819 q 140 844 134 838 q 153 850 147 854 q 163 844 158 846 q 170 849 170 843 q 167 861 170 856 q 169 873 167 864 q 175 892 171 882 q 183 912 179 903 q 191 928 187 922 q 203 949 193 933 q 226 983 214 965 q 250 1016 239 1002 q 262 1035 261 1031 q 263 1046 265 1040 q 265 1057 261 1053 q 274 1069 268 1063 q 283 1079 281 1076 q 291 1082 286 1082 q 301 1088 296 1082 q 315 1089 309 1095 q 326 1082 322 1084 q 335 1071 330 1078 q 345 1061 340 1064 q 362 1056 349 1060 q 382 1048 375 1053 q 392 1039 390 1044 q 395 1026 395 1034 z "},")":{"ha":429,"x_min":33,"x_max":401,"o":"m 401 519 q 401 476 401 504 q 400 429 401 449 q 392 407 400 418 q 383 389 385 396 q 384 365 382 383 q 383 338 386 346 q 378 319 380 330 q 372 297 375 309 q 358 275 370 286 q 340 265 347 264 q 321 266 326 272 q 323 250 317 260 q 335 234 330 239 q 340 218 340 229 q 333 187 340 207 q 321 158 325 167 q 311 144 317 151 q 302 135 306 138 q 299 117 300 129 q 293 97 298 106 q 288 89 292 96 q 278 74 283 82 q 269 60 273 66 q 261 49 264 53 q 246 45 252 39 q 233 52 240 52 q 224 44 227 52 q 227 31 221 36 q 231 16 231 26 q 228 -1 232 5 q 203 -26 222 -14 q 187 -42 196 -31 q 174 -64 178 -54 q 168 -89 171 -75 q 150 -118 164 -103 q 134 -125 142 -126 q 122 -126 126 -123 q 110 -134 115 -132 q 102 -126 104 -135 q 93 -109 97 -117 q 78 -98 89 -102 q 58 -91 66 -96 q 50 -71 50 -86 q 56 -48 50 -64 q 66 -25 62 -32 q 78 -18 72 -17 q 87 -9 83 -20 q 97 17 92 0 q 111 52 102 33 q 144 118 131 96 q 158 151 158 140 q 164 159 158 163 q 174 157 170 155 q 179 165 179 160 q 172 170 179 171 q 161 176 167 170 q 158 193 155 183 q 165 206 161 197 q 172 225 168 215 q 179 245 175 236 q 184 260 183 254 q 196 286 192 271 q 200 313 200 301 q 208 372 200 345 q 215 412 215 399 q 213 430 215 415 q 211 457 211 446 q 210 475 211 468 q 211 493 208 482 q 221 508 212 501 q 239 519 229 514 q 256 531 249 525 q 261 547 264 538 q 251 557 260 554 q 233 563 243 559 q 214 571 224 567 q 200 585 204 575 q 197 598 199 589 q 196 619 196 608 q 196 639 196 629 q 196 654 196 648 q 186 671 195 667 q 175 686 178 675 q 168 704 174 697 q 158 732 161 711 q 155 759 158 743 q 149 790 153 775 q 140 819 144 806 q 132 838 136 832 q 129 852 125 848 q 139 859 134 856 q 141 870 143 861 q 132 876 139 879 q 113 889 115 872 q 104 914 111 896 q 93 945 97 932 q 86 958 92 950 q 74 975 81 966 q 60 989 66 983 q 47 999 53 996 q 35 1014 36 1006 q 33 1026 33 1022 q 35 1039 33 1034 q 46 1048 37 1044 q 67 1056 54 1053 q 83 1061 79 1060 q 93 1071 89 1064 q 104 1082 97 1078 q 115 1089 107 1084 q 126 1088 122 1095 q 138 1082 134 1082 q 144 1079 142 1082 q 154 1069 147 1076 q 164 1057 160 1063 q 165 1046 167 1053 q 167 1035 164 1040 q 179 1016 168 1031 q 201 983 189 1002 q 225 949 214 965 q 239 928 236 933 q 245 912 241 922 q 253 892 249 903 q 259 873 257 882 q 261 861 261 864 q 260 849 260 856 q 265 844 261 843 q 276 850 271 846 q 289 844 282 854 q 296 828 294 838 q 304 812 297 819 q 311 801 307 810 q 319 783 315 793 q 328 763 323 772 q 335 746 332 753 q 340 727 340 733 q 346 714 339 721 q 354 696 349 710 q 366 665 359 682 q 377 632 372 648 q 383 608 382 616 q 386 577 386 591 q 379 555 386 562 q 372 543 372 549 q 380 534 372 538 q 394 532 387 532 q 401 519 400 533 z "},"*":{"ha":653,"x_min":25,"x_max":627,"o":"m 624 690 q 625 668 627 677 q 612 656 624 659 q 596 646 603 653 q 581 640 590 639 q 556 641 570 642 q 536 639 543 640 q 525 634 532 639 q 513 629 518 629 q 487 634 505 629 q 463 639 469 639 q 450 630 450 639 q 461 618 450 621 q 479 608 472 615 q 489 595 486 602 q 490 585 492 590 q 487 576 489 581 q 486 565 485 571 q 492 554 486 559 q 498 554 494 553 q 507 557 503 555 q 515 559 511 559 q 522 554 519 559 q 528 544 525 551 q 536 527 532 536 q 544 510 541 518 q 547 501 547 503 q 553 489 546 503 q 567 464 561 476 q 567 451 571 457 q 561 437 564 444 q 551 427 555 431 q 536 422 546 422 l 492 422 q 473 426 485 422 q 454 443 461 429 q 435 456 446 457 q 428 447 425 456 q 429 428 431 437 q 419 418 427 418 q 404 418 412 418 q 386 419 395 419 q 372 426 379 419 q 366 443 364 432 q 363 458 366 449 q 357 479 361 468 q 351 500 354 490 q 349 515 349 510 q 351 524 349 521 q 357 527 354 526 q 364 529 361 528 q 366 534 367 530 q 360 539 364 539 q 353 540 357 539 q 345 543 349 541 q 339 551 340 545 q 338 576 338 562 q 335 602 338 590 q 320 611 330 611 q 310 599 310 611 q 306 581 310 586 q 302 562 302 575 q 305 544 302 551 q 302 534 307 536 q 298 526 301 534 q 294 508 296 518 q 290 487 292 497 q 290 472 289 476 q 290 451 292 464 q 279 433 288 437 q 264 425 272 431 q 245 419 256 419 q 236 424 236 419 q 225 428 236 428 l 104 428 q 94 437 97 428 q 86 446 92 446 q 79 458 81 446 q 85 473 78 471 q 94 484 92 476 q 103 494 96 492 q 117 506 109 498 q 134 515 126 513 q 135 519 136 517 q 131 525 134 522 q 127 532 129 528 q 129 541 126 536 q 136 553 132 545 q 145 570 140 561 q 155 588 150 579 q 164 599 160 596 q 176 610 171 606 q 178 623 182 614 q 170 625 174 628 q 157 625 167 623 q 133 632 147 628 q 106 637 118 636 q 98 642 100 639 q 96 647 97 644 q 93 652 94 650 q 85 654 92 654 q 64 654 72 654 q 49 653 56 653 q 33 661 41 653 q 28 682 25 668 q 35 701 29 689 q 48 726 40 713 q 62 750 56 739 q 71 766 68 761 q 72 785 75 778 q 77 800 69 791 q 95 820 83 810 q 111 835 107 831 q 128 831 117 838 q 146 819 139 825 q 149 805 150 812 q 153 794 149 798 q 166 796 158 790 q 180 794 174 802 q 198 775 187 786 q 214 755 210 764 q 232 747 221 749 q 245 747 243 745 q 251 761 252 750 q 245 778 250 771 q 237 801 243 785 q 232 829 232 818 q 231 848 232 835 q 227 877 229 861 q 224 907 225 893 q 222 926 222 921 q 231 944 224 936 q 245 951 239 951 q 262 942 257 951 q 271 930 268 933 q 283 922 275 924 q 294 930 292 921 q 296 948 298 939 q 304 957 293 957 q 322 956 309 957 q 350 954 335 954 q 376 951 364 953 q 395 950 389 950 q 417 941 404 950 q 431 918 431 932 q 429 884 431 905 q 421 856 427 863 q 418 838 415 847 q 419 822 421 829 q 412 803 416 815 q 406 779 408 790 q 399 756 403 768 q 397 736 395 743 q 410 735 399 733 q 425 749 421 737 q 438 773 429 758 q 456 794 447 787 q 470 797 464 800 q 484 799 476 793 q 496 811 490 804 q 513 822 503 818 q 526 818 521 827 q 538 807 532 810 q 558 808 549 803 q 574 804 567 812 q 581 775 581 786 q 583 754 581 765 q 592 740 586 749 q 606 723 599 732 q 618 705 612 714 q 624 690 624 696 z "},"+":{"ha":713,"x_min":26,"x_max":688,"o":"m 688 440 q 685 421 688 429 q 676 414 682 414 l 650 414 q 644 420 643 414 q 642 427 646 427 l 623 427 q 618 420 618 427 q 607 414 618 414 q 587 414 602 414 q 556 413 572 414 q 529 412 541 412 q 515 412 517 412 q 504 414 514 412 q 489 424 493 416 q 468 441 482 439 q 458 437 454 443 q 463 422 463 431 q 457 414 463 414 l 437 414 q 432 406 433 414 q 431 396 431 399 q 433 382 431 386 q 437 377 435 378 q 440 376 439 376 q 441 372 441 375 l 441 338 q 433 334 441 334 q 419 336 424 334 q 414 327 412 340 q 432 306 415 313 q 441 292 439 302 q 443 279 443 281 q 441 261 443 277 q 440 235 440 245 q 435 224 440 224 q 431 220 431 225 l 431 200 q 435 198 431 197 q 440 195 440 199 l 440 167 q 433 157 440 160 q 416 154 425 154 q 399 159 407 154 q 382 164 392 164 q 369 163 378 164 q 349 161 359 161 q 328 158 338 160 q 314 157 318 157 q 293 163 306 157 q 279 178 279 170 q 275 195 279 186 q 271 214 271 204 q 275 220 271 221 q 279 228 279 220 q 279 241 279 232 q 280 260 279 250 q 281 278 281 269 q 281 290 281 286 q 286 293 281 294 q 296 290 290 292 q 306 288 301 288 q 309 294 310 288 q 293 320 306 311 q 279 343 279 329 l 279 395 q 276 406 279 401 q 271 412 273 411 q 260 414 268 415 q 250 412 253 412 q 231 419 243 412 q 212 435 218 427 q 200 450 207 446 q 189 454 193 454 q 182 450 184 454 q 182 441 180 446 q 188 420 192 427 q 172 414 183 414 q 150 414 161 414 q 122 415 138 415 q 111 421 115 415 q 105 435 107 428 q 101 449 103 443 q 94 454 98 454 q 53 458 66 447 q 39 484 39 469 q 38 510 39 490 q 37 539 37 529 q 32 551 37 549 q 26 562 26 553 q 33 578 26 574 q 46 582 40 582 q 68 583 53 582 q 89 585 83 585 q 93 581 94 585 q 97 576 92 576 q 113 576 100 576 q 143 577 126 576 q 175 578 160 578 q 193 578 189 578 q 207 577 197 578 q 227 575 216 576 q 248 573 237 574 q 262 572 258 572 q 271 573 268 572 q 273 581 273 574 q 278 588 273 587 q 283 596 283 589 q 278 606 283 603 q 273 616 273 610 q 275 630 273 621 q 278 652 277 640 q 281 674 279 664 q 282 689 282 685 q 279 705 282 700 q 275 718 275 710 l 275 746 q 271 749 275 750 q 267 754 267 749 q 268 775 267 760 q 269 796 269 790 q 274 809 269 803 q 289 815 278 815 q 301 810 298 815 q 314 806 304 806 l 354 806 q 373 793 370 806 q 379 779 376 781 q 388 783 386 779 q 392 791 390 786 q 395 800 393 796 q 403 804 397 804 q 425 796 410 804 q 440 774 440 787 q 441 749 440 758 q 441 728 441 739 q 439 709 441 714 q 433 702 436 704 q 425 698 429 700 q 416 689 421 696 q 414 681 412 684 q 420 676 416 677 q 428 674 424 675 q 432 671 432 673 q 438 651 435 661 q 441 632 441 640 l 441 595 q 441 586 440 590 q 452 576 444 576 q 474 577 461 576 q 500 578 486 578 q 510 573 507 578 q 515 562 513 568 q 522 549 518 555 q 533 542 525 543 q 543 545 541 541 q 547 557 546 550 q 549 570 549 564 q 554 576 550 576 q 565 576 557 576 q 583 577 574 576 q 602 578 593 578 q 615 578 611 578 q 623 581 623 578 q 629 583 623 583 q 647 580 637 583 q 665 576 656 576 q 680 563 675 576 q 685 541 685 550 q 684 527 685 536 q 682 507 684 518 q 680 486 681 496 q 679 472 679 476 q 683 457 679 464 q 688 440 688 450 z "},",":{"ha":375,"x_min":18,"x_max":340,"o":"m 340 140 q 333 119 340 125 q 315 106 325 113 q 309 90 307 98 q 306 79 311 82 q 294 78 298 77 q 283 74 290 79 q 280 62 278 66 q 279 52 282 57 q 264 43 277 46 q 240 43 252 40 q 221 39 229 45 q 221 28 214 33 q 240 22 228 22 q 249 11 252 22 q 235 -11 245 1 q 218 -28 225 -24 q 209 -42 211 -32 q 200 -61 207 -53 q 179 -87 193 -68 q 160 -119 165 -106 q 150 -136 155 -134 q 134 -139 144 -139 l 109 -139 q 101 -133 102 -139 q 106 -121 100 -127 q 110 -111 109 -114 q 102 -114 111 -109 q 87 -123 93 -119 q 82 -134 81 -126 q 66 -139 85 -139 l 35 -139 q 22 -133 24 -139 q 21 -119 21 -126 q 20 -103 21 -113 q 25 -82 18 -93 q 32 -58 32 -71 q 39 -28 32 -45 q 50 1 46 -11 q 60 16 53 12 q 72 22 66 18 q 69 28 78 26 q 60 38 62 29 q 62 57 58 46 q 67 73 64 62 q 74 95 71 83 q 80 118 77 107 q 85 134 83 129 q 94 149 89 140 q 110 157 98 157 q 139 157 121 157 q 164 158 157 158 q 184 153 183 158 q 189 149 186 149 q 201 140 196 149 q 210 136 207 131 q 219 150 214 143 q 236 157 225 157 q 251 157 240 157 q 272 157 261 157 q 294 158 283 158 q 310 158 304 158 q 331 154 321 158 q 340 140 340 150 z "},"-":{"ha":519,"x_min":33,"x_max":486,"o":"m 486 456 q 480 433 486 449 q 461 418 475 418 q 444 417 456 418 q 420 416 432 416 q 397 416 408 416 q 380 415 386 415 q 352 422 368 415 q 321 429 335 429 q 305 421 309 429 q 292 414 301 414 q 275 414 285 414 q 261 415 265 415 q 257 428 256 415 q 251 441 260 440 q 236 428 243 443 q 223 417 231 419 q 210 415 215 415 q 191 416 205 415 q 159 416 176 416 q 126 417 142 416 q 106 418 111 418 q 80 413 94 418 q 54 414 65 408 q 47 421 49 418 q 46 428 46 425 q 46 434 46 431 q 43 441 46 437 q 37 461 36 449 q 37 481 37 473 q 35 502 37 488 q 33 526 33 515 q 40 552 33 538 q 56 566 46 566 q 73 567 64 566 q 90 568 82 568 q 99 564 97 568 q 109 559 102 559 l 179 559 q 192 551 189 559 q 201 542 195 542 q 207 545 205 542 q 209 551 208 547 q 212 557 210 554 q 224 559 215 559 l 278 559 q 283 564 288 559 q 286 568 279 568 q 303 568 290 568 q 331 567 317 567 q 359 566 346 567 q 375 566 372 566 q 382 563 380 566 q 392 559 385 559 q 405 563 399 559 q 418 567 411 567 q 438 566 425 567 q 458 566 452 566 q 474 561 465 566 q 482 546 482 557 l 482 514 q 477 511 482 509 q 472 505 472 513 q 479 480 472 497 q 486 456 486 463 z "},".":{"ha":304,"x_min":33,"x_max":269,"o":"m 269 142 q 269 119 269 136 q 267 83 268 102 q 266 48 267 64 q 265 28 265 32 q 257 12 265 20 q 241 4 249 4 q 228 3 235 4 q 214 3 221 3 q 201 5 207 3 q 199 20 196 8 q 194 34 201 32 q 179 31 186 36 q 176 22 176 26 q 176 11 176 17 q 174 2 176 5 q 164 -1 172 -1 q 144 4 151 -1 q 131 9 138 9 q 117 5 123 9 q 104 0 111 0 q 82 1 97 0 q 58 3 66 3 q 44 9 52 3 q 37 25 37 16 q 42 36 37 35 q 47 45 47 37 q 40 58 47 50 q 33 72 33 65 l 33 140 q 43 158 33 149 q 62 167 53 167 q 76 163 71 167 q 83 156 81 160 q 85 148 85 151 q 89 144 86 144 q 98 157 96 144 q 107 170 100 170 l 147 170 q 153 163 154 170 q 158 157 151 157 q 181 155 165 157 q 200 155 197 153 q 199 164 203 158 q 207 170 196 170 l 244 170 q 260 161 252 170 q 269 142 269 153 z "},"/":{"ha":596,"x_min":20,"x_max":576,"o":"m 574 947 q 562 913 572 939 q 540 859 551 888 q 520 806 529 831 q 510 778 511 782 q 495 766 505 770 q 486 754 485 762 q 488 740 486 747 q 485 722 490 733 q 473 691 484 717 q 451 637 463 665 q 428 584 439 608 q 416 554 418 559 q 410 537 414 549 q 404 512 407 525 q 397 487 400 498 q 390 468 393 475 q 367 438 383 454 q 350 412 351 421 q 341 381 350 408 q 320 322 332 354 q 299 262 309 290 q 286 228 289 235 q 276 198 282 215 q 262 175 269 182 q 244 180 253 170 q 227 191 235 191 q 213 187 220 191 q 208 168 207 183 q 213 151 210 160 q 224 135 216 142 q 231 122 227 131 q 229 97 236 113 q 217 66 227 90 q 198 14 208 41 q 179 -38 187 -14 q 168 -68 171 -62 q 163 -79 167 -74 q 156 -89 160 -85 q 148 -94 151 -93 q 143 -89 144 -94 q 132 -73 142 -79 q 111 -72 122 -66 q 99 -87 102 -77 q 81 -98 96 -98 q 53 -100 64 -98 q 40 -93 43 -102 q 35 -87 39 -89 q 28 -83 32 -85 q 22 -78 24 -81 q 22 -71 20 -75 q 32 -50 25 -65 q 47 -15 39 -35 q 63 22 56 4 q 74 53 71 40 q 94 99 83 86 q 107 119 104 111 q 109 135 110 126 q 111 153 107 143 q 127 179 114 161 q 151 205 140 196 q 157 216 157 211 q 155 227 157 221 q 153 241 154 233 q 157 257 153 249 q 194 345 174 294 q 235 449 215 396 q 243 454 236 452 q 258 458 250 456 q 273 465 267 461 q 278 478 279 469 q 272 482 277 482 q 261 482 267 482 q 252 484 256 482 q 250 490 249 485 q 288 592 271 549 q 313 646 306 635 q 328 679 319 660 q 344 719 336 699 q 358 757 351 739 q 367 783 364 775 q 376 819 374 803 q 382 844 378 835 q 392 854 385 850 q 408 863 400 859 q 424 871 416 867 q 431 880 431 875 q 427 886 431 884 q 418 890 422 888 q 410 895 414 892 q 408 901 407 897 q 416 920 410 905 q 430 951 422 935 q 444 983 437 968 q 452 1004 450 999 q 463 1023 454 1015 q 481 1031 471 1031 q 492 1028 489 1031 q 498 1026 496 1026 q 503 1030 503 1026 q 511 1034 504 1034 l 543 1034 q 554 1026 550 1034 q 560 1009 558 1018 q 562 991 562 1000 q 561 978 562 982 q 562 972 559 974 q 567 967 564 970 q 574 961 571 965 q 574 947 576 957 z "},":":{"ha":306,"x_min":35,"x_max":271,"o":"m 271 441 q 260 424 271 433 q 241 415 250 415 q 229 419 233 415 q 222 427 224 422 q 217 434 220 431 q 212 437 215 437 q 206 425 208 437 q 197 412 204 412 q 178 413 192 412 q 157 414 164 414 q 151 420 150 414 q 146 427 153 427 q 123 428 139 427 q 103 427 107 429 q 104 418 100 424 q 97 412 109 412 q 77 413 86 412 q 60 414 68 414 q 43 422 52 414 q 35 441 35 431 q 35 465 35 447 q 36 501 36 482 q 37 535 36 519 q 37 554 37 551 q 46 570 37 562 q 62 578 56 578 q 76 579 69 578 q 89 581 82 581 q 102 577 96 581 q 106 562 109 574 q 111 549 103 551 q 125 551 118 546 q 127 561 127 555 q 127 571 127 566 q 129 580 127 576 q 139 583 131 583 q 160 578 153 583 q 174 572 167 572 q 187 577 180 572 q 200 582 193 582 q 221 581 205 582 q 243 581 236 581 q 265 557 265 581 q 261 547 265 549 q 257 539 257 546 q 264 525 257 532 q 271 511 271 518 l 271 441 l 271 441 m 271 29 q 262 10 271 18 q 245 1 253 1 l 208 1 q 201 7 197 1 q 201 16 204 12 q 183 16 199 18 q 160 14 167 14 q 154 7 153 14 q 149 1 155 1 l 109 1 q 99 14 102 1 q 90 26 97 26 q 87 23 87 26 q 84 15 86 20 q 77 6 82 9 q 64 3 72 3 q 44 13 54 3 q 35 31 35 22 l 35 98 q 42 113 35 106 q 49 126 49 121 q 44 135 49 134 q 39 147 39 136 q 46 162 39 155 q 60 168 53 168 q 83 169 68 168 q 106 170 98 170 q 119 165 113 170 q 132 160 125 160 q 146 166 139 160 q 165 172 153 172 q 176 169 174 172 q 178 160 178 165 q 178 149 178 154 q 180 139 178 143 q 195 137 187 135 q 200 151 203 139 q 203 165 197 163 q 215 168 208 168 q 229 168 222 168 q 243 167 236 167 q 258 159 250 167 q 267 143 267 151 q 267 123 267 139 q 269 88 268 107 q 270 53 269 69 q 271 29 271 36 z "},";":{"ha":375,"x_min":18,"x_max":340,"o":"m 339 264 q 329 247 339 257 q 310 237 318 237 q 295 241 300 237 q 288 249 290 244 q 285 256 286 253 q 281 260 283 260 q 273 248 277 260 q 265 236 269 236 l 224 236 q 218 242 216 236 q 212 248 220 248 q 190 250 205 248 q 171 249 174 252 q 172 241 168 245 q 164 236 175 236 l 126 236 q 110 244 118 236 q 102 262 102 252 q 102 285 102 268 q 104 321 103 302 q 105 357 104 340 q 106 378 106 374 q 114 392 106 385 q 129 400 122 400 q 142 401 136 400 q 157 401 149 401 q 170 399 163 401 q 174 385 176 396 q 178 370 171 372 q 192 374 186 368 q 195 383 196 378 q 195 394 195 389 q 197 403 195 399 q 205 407 199 407 q 227 401 220 407 q 240 395 233 395 q 254 399 248 395 q 267 404 260 404 q 288 403 273 404 q 311 401 302 401 q 332 380 332 401 q 328 368 332 370 q 325 361 325 367 q 332 347 325 354 q 339 334 339 340 l 339 264 l 339 264 m 340 140 q 333 119 340 125 q 315 106 325 113 q 309 90 307 98 q 306 79 311 82 q 294 78 298 77 q 283 74 290 79 q 280 62 278 66 q 279 52 282 57 q 264 43 277 46 q 240 43 252 40 q 221 39 229 45 q 221 28 214 33 q 240 22 228 22 q 249 11 252 22 q 235 -11 245 1 q 218 -28 225 -24 q 209 -42 211 -32 q 200 -61 207 -53 q 179 -87 193 -68 q 160 -119 165 -106 q 150 -136 155 -134 q 134 -139 144 -139 l 109 -139 q 101 -133 102 -139 q 106 -121 100 -127 q 110 -111 109 -114 q 102 -114 111 -109 q 87 -123 93 -119 q 82 -134 81 -126 q 66 -139 85 -139 l 35 -139 q 22 -133 24 -139 q 21 -119 21 -126 q 20 -103 21 -113 q 25 -82 18 -93 q 32 -58 32 -71 q 39 -28 32 -45 q 50 1 46 -11 q 60 16 53 12 q 72 22 66 18 q 69 28 78 26 q 60 38 62 29 q 62 57 58 46 q 67 73 64 62 q 74 95 71 83 q 80 118 77 107 q 85 134 83 129 q 94 149 89 140 q 110 157 98 157 q 139 157 121 157 q 164 158 157 158 q 184 153 183 158 q 189 149 186 149 q 201 140 196 149 q 210 136 207 131 q 219 150 214 143 q 236 157 225 157 q 251 157 240 157 q 272 157 261 157 q 294 158 283 158 q 310 158 304 158 q 331 154 321 158 q 340 140 340 150 z "},"=":{"ha":725,"x_min":31,"x_max":696,"o":"m 696 718 q 690 706 696 708 q 684 694 684 704 q 684 676 684 690 q 683 646 684 663 q 682 615 682 629 q 682 596 682 600 q 681 578 682 587 q 665 568 679 568 q 643 568 659 568 q 612 567 628 567 q 582 566 596 567 q 562 566 568 566 q 547 572 551 566 q 551 595 542 579 q 546 607 558 604 q 522 586 533 610 q 506 572 518 579 q 485 566 493 566 q 465 566 481 566 q 429 566 449 566 q 392 567 410 567 q 370 567 375 567 q 347 572 358 567 q 325 578 335 578 q 308 576 313 578 q 302 572 302 574 q 301 568 301 570 q 298 566 301 566 l 264 566 q 258 574 258 566 q 262 590 258 583 q 253 593 267 595 q 231 576 239 591 q 218 567 228 570 q 205 564 208 564 q 192 565 204 564 q 164 566 179 566 q 134 566 149 566 q 114 567 119 567 q 103 572 103 567 q 98 578 103 578 l 78 578 q 77 572 75 578 q 72 567 78 567 l 45 567 q 37 574 40 567 q 33 591 33 582 q 38 610 33 603 q 43 625 43 616 q 41 639 43 629 q 39 660 40 648 q 36 680 37 671 q 35 693 35 689 q 41 715 35 701 q 57 729 47 729 q 74 732 65 729 q 92 736 82 736 q 98 732 100 736 q 107 729 97 729 l 168 729 q 173 723 172 729 q 175 710 174 717 q 178 697 176 703 q 187 693 180 692 q 199 701 196 696 q 205 713 203 707 q 212 724 208 720 q 222 729 215 729 l 278 729 q 286 733 285 729 q 292 737 286 737 q 304 736 296 737 q 322 735 313 736 q 339 734 332 734 q 350 733 347 733 q 357 728 357 733 q 366 724 358 724 q 376 728 372 724 q 386 733 379 733 q 400 732 390 733 q 421 729 410 730 q 444 726 433 728 q 458 725 454 725 q 487 728 469 725 q 511 732 504 732 l 624 732 q 629 736 629 732 q 633 741 628 741 q 653 739 637 741 q 673 737 669 737 q 688 733 681 737 q 696 718 696 729 m 692 395 q 688 377 692 385 q 684 361 684 370 q 686 340 684 353 q 689 318 689 328 q 680 298 689 301 q 661 301 671 296 q 651 296 657 304 q 640 277 646 288 q 629 258 635 267 q 619 249 624 249 q 604 252 611 249 q 589 254 596 254 l 546 254 q 537 264 539 254 q 528 273 534 273 q 523 271 524 273 q 521 264 522 268 q 517 257 519 260 q 507 254 514 254 l 452 254 q 441 252 444 254 q 432 249 439 249 l 375 249 q 366 253 367 249 q 365 262 364 257 q 367 271 366 267 q 364 277 368 275 q 353 276 357 281 q 345 266 349 272 q 338 254 342 260 q 329 249 335 249 q 317 251 325 249 q 299 255 309 253 q 280 258 289 257 q 267 260 271 260 q 249 254 257 260 q 237 248 241 248 q 220 250 227 248 q 210 254 214 252 q 204 260 207 257 q 196 264 201 262 q 182 264 186 267 q 175 258 178 262 q 168 251 172 254 q 155 248 164 248 l 50 248 q 38 253 45 248 q 31 267 31 258 q 36 279 31 277 q 41 292 41 282 q 41 310 41 296 q 42 341 41 325 q 43 371 43 357 q 43 389 43 385 q 44 408 43 397 q 60 418 46 418 q 84 418 66 418 q 122 418 102 418 q 158 419 142 419 q 180 419 175 419 q 191 400 201 419 q 191 389 183 390 q 203 399 199 389 q 216 415 208 408 q 231 422 224 422 q 253 422 235 422 q 292 420 271 421 q 331 418 313 419 q 355 418 350 418 q 379 414 367 418 q 400 410 392 410 q 417 411 412 410 q 424 414 422 412 q 425 418 425 416 q 427 419 424 419 l 461 419 q 469 415 467 419 q 468 404 471 411 q 466 394 464 397 q 472 390 468 390 q 480 392 476 390 q 486 399 485 395 q 499 415 489 406 q 519 424 509 424 q 537 423 525 424 q 565 421 550 422 q 592 418 579 419 q 611 418 606 418 q 623 413 623 418 q 627 408 623 408 l 646 408 q 648 413 650 408 q 654 418 647 418 l 681 418 q 692 395 692 418 z "},"?":{"ha":561,"x_min":25,"x_max":526,"o":"m 526 700 q 524 657 526 681 q 521 627 522 633 q 516 608 521 618 q 504 597 511 599 q 488 597 497 596 q 486 586 479 599 q 490 568 493 574 q 481 557 488 562 q 471 544 476 553 q 458 536 465 534 q 453 523 456 536 q 447 504 450 509 q 415 479 435 485 q 380 454 395 473 q 383 449 379 452 q 393 444 387 447 q 404 436 399 440 q 408 425 408 432 q 395 407 408 415 q 382 389 382 399 q 382 369 382 385 q 382 337 382 354 q 383 306 383 321 q 383 289 383 292 q 378 274 383 282 q 374 262 374 265 q 376 252 374 254 q 380 249 378 249 q 383 248 382 249 q 385 243 385 248 q 382 219 385 235 q 366 204 379 204 q 338 203 353 204 q 317 201 323 201 q 276 213 296 201 q 239 218 256 224 q 235 215 235 218 q 237 208 236 211 q 238 203 239 205 q 232 200 237 200 q 203 199 221 200 q 175 199 186 199 q 161 204 170 199 q 155 225 153 210 q 149 235 155 231 q 133 243 142 239 q 118 253 125 248 q 111 265 111 258 q 111 283 111 268 q 112 316 111 298 q 113 349 113 334 q 113 368 113 364 q 119 379 113 372 q 133 394 125 386 q 144 410 140 401 q 144 424 149 418 q 137 427 142 429 q 128 421 132 424 q 121 416 123 418 q 118 424 118 415 l 118 473 q 126 496 118 482 q 140 517 135 510 q 150 531 147 524 q 155 544 153 538 q 160 555 157 550 q 168 566 163 561 q 181 567 172 568 q 197 565 189 566 q 212 566 205 564 q 220 575 218 568 q 219 585 222 581 q 214 593 216 589 q 209 602 211 597 q 211 614 207 607 q 217 625 214 621 q 221 640 221 629 q 216 657 221 647 q 208 672 211 668 q 210 694 204 684 q 211 713 216 704 q 202 712 207 717 q 193 702 197 708 q 185 691 189 696 q 179 689 182 686 q 162 693 172 693 q 151 699 153 693 q 145 708 150 701 q 136 704 140 714 q 109 676 122 676 q 99 685 103 676 q 93 701 96 693 q 89 716 92 705 q 83 740 86 726 q 76 768 79 754 q 68 791 72 782 q 57 808 62 807 q 49 815 52 810 q 47 834 46 822 q 47 856 49 847 q 44 869 47 860 q 36 890 40 879 q 28 911 32 901 q 25 926 25 921 q 30 941 25 935 q 41 947 35 947 q 64 953 58 947 q 77 958 69 958 q 99 958 81 958 q 140 958 118 958 q 180 957 161 957 q 203 957 199 957 q 219 950 211 957 q 225 936 228 943 q 223 928 224 933 q 224 918 222 922 q 227 912 225 914 q 232 916 229 911 q 238 931 239 924 q 241 946 237 939 q 261 957 249 957 q 274 956 264 957 q 295 956 283 956 q 316 955 306 956 q 330 954 326 954 q 354 951 338 954 q 378 943 371 947 q 385 935 385 939 q 386 927 386 930 q 386 921 386 924 q 389 918 386 918 q 406 910 396 918 q 419 899 415 903 q 428 904 425 893 q 437 911 431 914 q 447 904 440 909 q 460 893 453 899 q 471 881 467 888 q 476 871 476 875 q 479 851 478 861 q 486 840 479 842 q 488 830 492 839 q 478 817 485 822 q 476 812 472 814 q 489 808 481 811 q 504 801 496 806 q 514 789 511 796 q 522 756 517 779 q 526 700 526 733 m 387 89 q 387 70 387 82 q 386 47 386 57 q 377 40 386 39 q 368 37 368 41 q 368 21 368 35 q 366 4 368 8 q 342 -1 359 -1 q 330 -1 339 -1 q 310 -1 321 -1 q 291 0 300 0 q 279 0 282 0 q 271 -2 277 0 q 262 -4 265 -4 l 233 -4 q 221 -2 228 -4 q 211 3 214 0 q 203 9 208 5 q 195 9 197 14 q 183 1 189 3 q 172 -1 176 -1 q 158 -1 168 -1 q 142 0 147 0 q 129 11 138 0 q 121 33 121 22 l 121 94 q 126 101 121 100 q 127 110 131 102 q 118 118 125 117 q 111 140 111 119 q 134 155 111 155 q 154 155 142 155 q 172 154 165 154 q 189 139 184 154 q 197 132 191 131 q 203 140 203 132 q 206 149 203 147 q 216 150 210 150 q 234 149 224 150 q 252 149 244 149 q 257 153 258 149 q 262 157 256 157 q 286 156 269 157 q 310 155 302 155 q 322 151 315 155 q 332 139 329 146 q 340 130 334 134 q 347 134 347 126 q 349 144 347 139 q 354 149 350 149 l 376 149 q 383 140 379 149 q 387 123 387 131 q 385 114 387 113 q 382 107 382 115 q 385 99 382 98 q 387 89 387 100 z "},"A":{"ha":957,"x_min":60,"x_max":890,"o":"m 890 290 q 890 242 890 281 q 889 160 889 203 q 888 81 889 117 q 888 41 888 46 q 881 30 888 32 q 873 22 875 28 q 873 11 872 20 q 861 1 873 1 l 803 1 q 792 4 794 1 q 789 9 790 7 q 788 15 789 12 q 785 18 787 18 q 769 16 778 18 q 753 14 760 14 q 743 7 747 14 q 734 1 739 1 l 612 1 q 589 11 596 1 q 584 22 586 16 q 575 31 582 29 q 571 35 570 32 q 572 41 572 37 l 572 102 q 580 106 572 106 q 587 111 587 107 q 581 120 587 118 q 574 126 574 122 l 574 227 q 581 236 574 231 q 594 248 587 241 q 606 261 602 254 q 608 273 611 268 q 600 278 606 279 q 588 274 595 277 q 578 269 582 271 q 574 273 574 268 q 573 299 574 283 q 572 328 572 315 q 570 342 572 335 q 557 350 568 350 q 544 350 554 350 q 523 350 534 350 q 499 350 511 350 q 482 351 488 350 q 480 360 475 353 q 481 370 486 367 q 467 370 475 372 q 451 364 460 368 q 433 356 441 359 q 418 353 425 353 q 403 342 407 353 q 392 326 399 332 q 372 319 379 318 q 355 322 364 319 q 347 319 347 323 q 353 309 346 314 q 368 296 359 302 q 376 278 376 289 l 376 149 q 370 136 376 140 q 356 130 364 132 q 343 124 349 127 q 339 114 338 121 q 346 111 340 110 q 358 115 351 113 q 371 117 366 117 q 376 110 376 117 l 376 77 q 367 56 376 66 q 361 35 358 46 q 362 12 367 20 q 349 4 358 4 q 313 3 343 4 q 248 3 283 3 q 182 2 212 3 q 146 1 151 1 q 129 -2 135 1 q 117 -7 122 -5 q 104 -1 113 -7 q 93 14 96 5 q 76 22 87 22 q 65 33 65 22 q 65 51 65 40 q 66 74 65 62 q 66 97 66 86 q 66 110 66 107 q 69 117 66 115 q 76 119 72 118 q 83 121 81 119 q 86 129 86 123 q 76 144 86 140 q 65 164 65 149 l 65 227 q 72 242 65 240 q 85 257 79 244 q 87 266 89 262 q 81 274 85 269 q 72 282 77 278 q 66 292 68 286 q 71 306 64 302 q 77 319 78 309 q 70 330 75 329 q 65 347 65 332 l 65 461 q 70 478 65 472 q 78 490 74 485 q 85 500 82 496 q 89 511 89 505 q 83 517 87 518 q 74 515 79 517 q 64 514 68 514 q 60 522 60 514 l 60 672 q 62 707 60 689 q 69 741 65 725 q 87 784 77 762 q 113 823 98 806 q 122 821 115 827 q 132 819 129 815 q 139 841 143 828 q 140 861 135 854 q 165 889 149 876 q 196 908 182 901 q 205 909 199 909 q 221 908 212 908 q 239 909 231 908 q 250 916 248 911 q 247 920 252 918 q 238 924 243 922 q 231 929 233 926 q 235 936 229 932 q 275 956 256 950 q 306 965 294 962 q 331 960 322 968 q 335 932 340 951 q 333 921 334 928 q 333 907 332 914 q 336 896 334 900 q 339 896 338 892 q 343 919 343 903 q 353 945 343 935 q 376 958 363 951 q 400 964 389 964 q 426 964 410 965 q 449 962 441 962 q 454 958 456 962 q 464 953 453 953 q 494 954 475 953 q 522 954 513 954 q 530 956 529 954 q 532 960 530 958 q 537 964 533 962 q 551 966 541 966 q 563 964 559 966 q 569 957 567 961 q 574 950 571 953 q 585 947 576 947 q 615 954 600 947 q 659 960 629 960 q 685 953 669 960 q 704 943 701 946 q 710 933 707 939 q 721 930 713 928 q 735 932 728 932 q 754 928 743 933 q 783 904 766 921 q 802 880 799 888 q 796 869 806 873 q 786 857 786 864 q 804 851 786 844 q 816 859 815 854 q 822 860 817 864 q 831 852 825 859 q 842 838 836 846 q 855 820 848 829 q 863 804 861 811 q 862 798 864 800 q 856 794 860 796 q 850 788 852 791 q 848 779 848 785 q 855 770 850 775 q 864 758 860 765 q 866 746 867 753 q 863 733 865 739 q 859 722 861 726 q 859 714 857 717 q 865 710 861 710 q 874 710 869 710 q 883 707 879 710 q 886 694 886 704 q 886 676 886 689 q 887 648 886 663 q 888 622 888 633 q 888 607 888 610 q 884 592 888 600 q 873 583 880 583 q 861 579 865 583 q 860 570 856 575 q 875 565 863 567 q 888 553 888 564 q 888 517 888 549 q 888 449 888 486 q 889 381 889 412 q 889 347 889 350 q 876 331 889 336 q 859 321 863 326 q 835 309 852 309 q 831 304 831 309 q 836 295 832 300 q 846 288 840 290 q 860 288 852 285 q 869 293 864 289 q 879 300 875 297 q 887 301 884 302 q 890 290 890 300 m 579 632 q 577 642 579 639 q 572 648 575 646 q 566 653 568 650 q 564 664 564 656 q 570 673 564 673 q 572 685 576 673 q 551 706 568 696 q 524 717 534 717 q 500 718 513 717 q 472 718 488 718 q 458 733 452 718 q 453 741 461 742 q 441 733 444 741 q 437 719 437 726 q 422 708 437 711 q 404 694 414 705 q 382 684 393 684 q 372 674 371 682 q 372 660 372 667 q 385 628 372 646 q 416 610 397 610 l 526 610 q 532 606 530 610 q 537 599 534 603 q 541 592 539 595 q 545 591 542 589 q 555 604 551 597 q 562 612 558 611 q 572 620 566 614 q 579 632 579 625 z "},"a":{"ha":957,"x_min":60,"x_max":890,"o":"m 890 290 q 890 242 890 281 q 889 160 889 203 q 888 81 889 117 q 888 41 888 46 q 881 30 888 32 q 873 22 875 28 q 873 11 872 20 q 861 1 873 1 l 803 1 q 792 4 794 1 q 789 9 790 7 q 788 15 789 12 q 785 18 787 18 q 769 16 778 18 q 753 14 760 14 q 743 7 747 14 q 734 1 739 1 l 612 1 q 589 11 596 1 q 584 22 586 16 q 575 31 582 29 q 571 35 570 32 q 572 41 572 37 l 572 102 q 580 106 572 106 q 587 111 587 107 q 581 120 587 118 q 574 126 574 122 l 574 227 q 581 236 574 231 q 594 248 587 241 q 606 261 602 254 q 608 273 611 268 q 600 278 606 279 q 588 274 595 277 q 578 269 582 271 q 574 273 574 268 q 573 299 574 283 q 572 328 572 315 q 570 342 572 335 q 557 350 568 350 q 544 350 554 350 q 523 350 534 350 q 499 350 511 350 q 482 351 488 350 q 480 360 475 353 q 481 370 486 367 q 467 370 475 372 q 451 364 460 368 q 433 356 441 359 q 418 353 425 353 q 403 342 407 353 q 392 326 399 332 q 372 319 379 318 q 355 322 364 319 q 347 319 347 323 q 353 309 346 314 q 368 296 359 302 q 376 278 376 289 l 376 149 q 370 136 376 140 q 356 130 364 132 q 343 124 349 127 q 339 114 338 121 q 346 111 340 110 q 358 115 351 113 q 371 117 366 117 q 376 110 376 117 l 376 77 q 367 56 376 66 q 361 35 358 46 q 362 12 367 20 q 349 4 358 4 q 313 3 343 4 q 248 3 283 3 q 182 2 212 3 q 146 1 151 1 q 129 -2 135 1 q 117 -7 122 -5 q 104 -1 113 -7 q 93 14 96 5 q 76 22 87 22 q 65 33 65 22 q 65 51 65 40 q 66 74 65 62 q 66 97 66 86 q 66 110 66 107 q 69 117 66 115 q 76 119 72 118 q 83 121 81 119 q 86 129 86 123 q 76 144 86 140 q 65 164 65 149 l 65 227 q 72 242 65 240 q 85 257 79 244 q 87 266 89 262 q 81 274 85 269 q 72 282 77 278 q 66 292 68 286 q 71 306 64 302 q 77 319 78 309 q 70 330 75 329 q 65 347 65 332 l 65 461 q 70 478 65 472 q 78 490 74 485 q 85 500 82 496 q 89 511 89 505 q 83 517 87 518 q 74 515 79 517 q 64 514 68 514 q 60 522 60 514 l 60 672 q 62 707 60 689 q 69 741 65 725 q 87 784 77 762 q 113 823 98 806 q 122 821 115 827 q 132 819 129 815 q 139 841 143 828 q 140 861 135 854 q 165 889 149 876 q 196 908 182 901 q 205 909 199 909 q 221 908 212 908 q 239 909 231 908 q 250 916 248 911 q 247 920 252 918 q 238 924 243 922 q 231 929 233 926 q 235 936 229 932 q 275 956 256 950 q 306 965 294 962 q 331 960 322 968 q 335 932 340 951 q 333 921 334 928 q 333 907 332 914 q 336 896 334 900 q 339 896 338 892 q 343 919 343 903 q 353 945 343 935 q 376 958 363 951 q 400 964 389 964 q 426 964 410 965 q 449 962 441 962 q 454 958 456 962 q 464 953 453 953 q 494 954 475 953 q 522 954 513 954 q 530 956 529 954 q 532 960 530 958 q 537 964 533 962 q 551 966 541 966 q 563 964 559 966 q 569 957 567 961 q 574 950 571 953 q 585 947 576 947 q 615 954 600 947 q 659 960 629 960 q 685 953 669 960 q 704 943 701 946 q 710 933 707 939 q 721 930 713 928 q 735 932 728 932 q 754 928 743 933 q 783 904 766 921 q 802 880 799 888 q 796 869 806 873 q 786 857 786 864 q 804 851 786 844 q 816 859 815 854 q 822 860 817 864 q 831 852 825 859 q 842 838 836 846 q 855 820 848 829 q 863 804 861 811 q 862 798 864 800 q 856 794 860 796 q 850 788 852 791 q 848 779 848 785 q 855 770 850 775 q 864 758 860 765 q 866 746 867 753 q 863 733 865 739 q 859 722 861 726 q 859 714 857 717 q 865 710 861 710 q 874 710 869 710 q 883 707 879 710 q 886 694 886 704 q 886 676 886 689 q 887 648 886 663 q 888 622 888 633 q 888 607 888 610 q 884 592 888 600 q 873 583 880 583 q 861 579 865 583 q 860 570 856 575 q 875 565 863 567 q 888 553 888 564 q 888 517 888 549 q 888 449 888 486 q 889 381 889 412 q 889 347 889 350 q 876 331 889 336 q 859 321 863 326 q 835 309 852 309 q 831 304 831 309 q 836 295 832 300 q 846 288 840 290 q 860 288 852 285 q 869 293 864 289 q 879 300 875 297 q 887 301 884 302 q 890 290 890 300 m 579 632 q 577 642 579 639 q 572 648 575 646 q 566 653 568 650 q 564 664 564 656 q 570 673 564 673 q 572 685 576 673 q 551 706 568 696 q 524 717 534 717 q 500 718 513 717 q 472 718 488 718 q 458 733 452 718 q 453 741 461 742 q 441 733 444 741 q 437 719 437 726 q 422 708 437 711 q 404 694 414 705 q 382 684 393 684 q 372 674 371 682 q 372 660 372 667 q 385 628 372 646 q 416 610 397 610 l 526 610 q 532 606 530 610 q 537 599 534 603 q 541 592 539 595 q 545 591 542 589 q 555 604 551 597 q 562 612 558 611 q 572 620 566 614 q 579 632 579 625 z "},"B":{"ha":901,"x_min":64,"x_max":848,"o":"m 848 281 q 842 269 848 272 q 836 258 836 267 q 836 242 836 254 q 836 217 836 231 q 835 192 835 204 q 835 175 835 179 q 832 162 835 172 q 824 142 829 153 q 812 121 818 131 q 800 107 807 111 q 792 111 796 106 q 786 121 789 115 q 781 133 783 127 q 775 135 779 138 q 772 124 772 132 q 772 109 772 117 q 773 95 772 102 q 774 87 774 89 q 763 64 771 81 q 741 40 754 47 q 716 40 726 33 q 700 45 707 47 q 695 38 694 41 q 697 31 696 35 q 699 24 699 28 q 694 17 700 21 q 673 9 688 14 q 652 5 659 5 q 631 5 646 5 q 616 17 616 5 q 610 39 615 29 q 595 52 606 49 q 574 44 586 53 q 571 32 562 36 q 584 13 583 24 q 578 1 585 1 q 561 2 572 1 q 538 3 550 3 q 516 3 526 3 q 498 4 505 4 q 480 7 488 4 q 465 14 472 11 q 454 14 458 17 q 452 7 449 11 q 436 0 456 -3 q 401 1 432 1 q 335 1 371 1 q 270 -1 300 0 q 236 -1 240 -1 q 219 3 228 -1 q 220 18 211 7 q 219 31 222 24 q 209 44 215 39 q 197 51 203 50 q 192 41 192 52 q 188 19 192 31 q 176 14 184 7 q 158 15 168 20 q 150 7 147 9 q 151 0 154 4 q 138 -4 149 -4 q 122 -3 132 -4 q 107 -1 113 -1 q 100 6 102 -1 q 92 17 98 14 q 79 24 86 21 q 72 36 72 28 l 72 199 q 68 212 72 210 q 64 221 64 214 l 64 250 q 76 278 64 267 q 89 309 89 290 q 85 314 89 313 q 76 316 81 315 q 68 319 72 317 q 64 326 64 321 q 70 342 64 335 q 75 363 75 350 q 72 368 75 366 q 68 376 68 371 q 68 398 68 379 q 69 442 69 418 q 70 489 69 467 q 71 517 71 511 q 68 530 71 528 q 65 534 65 532 q 65 556 65 536 q 64 600 65 576 q 64 645 64 624 q 64 668 64 665 q 68 678 64 675 q 78 681 72 681 q 90 681 83 681 q 98 684 96 681 q 109 703 113 692 q 97 715 104 714 q 78 726 90 717 q 65 746 65 734 q 65 779 65 751 q 66 839 65 807 q 66 898 66 871 q 66 930 66 925 q 75 952 66 942 q 94 962 83 962 q 125 962 98 962 q 182 961 151 961 q 239 960 212 961 q 272 960 267 960 q 289 953 285 960 q 285 930 293 946 q 283 918 281 924 q 289 910 285 913 q 298 908 293 907 q 304 917 302 909 q 322 946 310 932 q 342 960 334 960 q 357 960 345 960 q 384 959 370 960 q 411 958 399 958 q 425 957 424 957 q 430 951 431 957 q 436 945 429 945 q 451 951 444 945 q 464 958 457 958 l 514 958 q 527 954 524 958 q 532 945 530 950 q 535 937 533 940 q 545 935 538 933 q 557 941 551 936 q 567 951 562 946 q 580 962 572 957 q 599 966 587 966 q 627 964 612 966 q 653 961 642 962 q 669 953 661 960 q 679 943 676 946 q 705 936 684 933 q 722 926 714 937 q 737 908 730 916 q 739 891 745 901 q 739 878 733 880 q 755 884 743 876 q 774 886 766 892 q 794 859 787 876 q 807 829 802 842 q 810 811 812 818 q 808 798 808 804 q 817 781 808 793 q 825 762 825 768 q 825 751 825 760 q 824 734 825 743 q 823 716 823 725 q 823 704 823 708 q 819 692 825 697 q 804 689 812 686 q 803 679 796 692 q 817 660 810 667 q 812 631 822 653 q 791 600 803 610 q 771 589 781 593 q 764 581 761 586 q 756 568 768 576 q 728 555 743 559 q 718 557 722 554 q 710 562 714 559 q 701 562 705 564 q 694 551 697 561 q 696 538 690 543 q 710 530 701 533 q 729 524 720 526 q 743 521 739 522 q 763 509 751 517 q 786 492 775 501 q 804 475 796 484 q 815 461 812 467 q 818 437 822 447 q 818 419 814 427 q 828 412 822 414 q 838 400 835 411 q 839 379 839 395 q 838 346 839 363 q 837 314 838 329 q 836 296 836 300 q 842 288 836 286 q 848 281 848 289 m 533 673 q 532 686 533 677 q 530 701 532 694 q 524 714 528 708 q 513 720 519 720 l 471 720 q 455 713 465 720 q 440 707 446 707 q 431 710 436 707 q 425 720 425 714 q 420 727 425 724 q 411 724 415 730 q 404 712 408 718 q 393 707 400 707 q 381 700 387 707 q 375 688 375 693 q 372 670 374 681 q 363 661 370 660 q 359 651 358 661 q 363 636 361 640 q 381 621 366 632 q 404 610 396 610 q 419 610 407 610 q 445 609 432 610 q 471 608 458 608 q 486 608 484 608 q 498 616 493 608 q 503 627 503 624 q 509 635 503 629 q 522 644 515 640 q 533 673 533 656 m 543 304 q 542 318 543 310 q 537 335 541 326 q 529 349 533 343 q 519 355 525 355 q 501 354 511 357 q 479 354 490 351 q 473 360 471 355 q 469 366 476 366 q 451 366 463 366 q 437 364 439 367 q 431 357 435 361 q 424 354 427 354 q 413 357 415 354 q 410 365 411 361 q 408 374 410 370 q 403 380 407 378 q 392 386 399 383 q 382 389 386 389 q 376 387 378 390 q 375 378 374 385 q 376 356 382 359 q 371 350 371 353 q 371 338 371 349 q 372 315 371 328 q 372 291 372 302 q 372 277 372 279 q 382 260 372 265 q 406 254 392 254 q 419 244 418 254 q 424 228 421 233 q 429 224 425 225 q 438 222 433 222 q 447 224 443 222 q 449 229 450 227 q 444 245 446 236 q 450 254 443 254 l 496 254 q 506 259 501 254 q 518 267 511 264 q 535 279 526 269 q 543 304 543 289 z "},"b":{"ha":901,"x_min":64,"x_max":848,"o":"m 848 281 q 842 269 848 272 q 836 258 836 267 q 836 242 836 254 q 836 217 836 231 q 835 192 835 204 q 835 175 835 179 q 832 162 835 172 q 824 142 829 153 q 812 121 818 131 q 800 107 807 111 q 792 111 796 106 q 786 121 789 115 q 781 133 783 127 q 775 135 779 138 q 772 124 772 132 q 772 109 772 117 q 773 95 772 102 q 774 87 774 89 q 763 64 771 81 q 741 40 754 47 q 716 40 726 33 q 700 45 707 47 q 695 38 694 41 q 697 31 696 35 q 699 24 699 28 q 694 17 700 21 q 673 9 688 14 q 652 5 659 5 q 631 5 646 5 q 616 17 616 5 q 610 39 615 29 q 595 52 606 49 q 574 44 586 53 q 571 32 562 36 q 584 13 583 24 q 578 1 585 1 q 561 2 572 1 q 538 3 550 3 q 516 3 526 3 q 498 4 505 4 q 480 7 488 4 q 465 14 472 11 q 454 14 458 17 q 452 7 449 11 q 436 0 456 -3 q 401 1 432 1 q 335 1 371 1 q 270 -1 300 0 q 236 -1 240 -1 q 219 3 228 -1 q 220 18 211 7 q 219 31 222 24 q 209 44 215 39 q 197 51 203 50 q 192 41 192 52 q 188 19 192 31 q 176 14 184 7 q 158 15 168 20 q 150 7 147 9 q 151 0 154 4 q 138 -4 149 -4 q 122 -3 132 -4 q 107 -1 113 -1 q 100 6 102 -1 q 92 17 98 14 q 79 24 86 21 q 72 36 72 28 l 72 199 q 68 212 72 210 q 64 221 64 214 l 64 250 q 76 278 64 267 q 89 309 89 290 q 85 314 89 313 q 76 316 81 315 q 68 319 72 317 q 64 326 64 321 q 70 342 64 335 q 75 363 75 350 q 72 368 75 366 q 68 376 68 371 q 68 398 68 379 q 69 442 69 418 q 70 489 69 467 q 71 517 71 511 q 68 530 71 528 q 65 534 65 532 q 65 556 65 536 q 64 600 65 576 q 64 645 64 624 q 64 668 64 665 q 68 678 64 675 q 78 681 72 681 q 90 681 83 681 q 98 684 96 681 q 109 703 113 692 q 97 715 104 714 q 78 726 90 717 q 65 746 65 734 q 65 779 65 751 q 66 839 65 807 q 66 898 66 871 q 66 930 66 925 q 75 952 66 942 q 94 962 83 962 q 125 962 98 962 q 182 961 151 961 q 239 960 212 961 q 272 960 267 960 q 289 953 285 960 q 285 930 293 946 q 283 918 281 924 q 289 910 285 913 q 298 908 293 907 q 304 917 302 909 q 322 946 310 932 q 342 960 334 960 q 357 960 345 960 q 384 959 370 960 q 411 958 399 958 q 425 957 424 957 q 430 951 431 957 q 436 945 429 945 q 451 951 444 945 q 464 958 457 958 l 514 958 q 527 954 524 958 q 532 945 530 950 q 535 937 533 940 q 545 935 538 933 q 557 941 551 936 q 567 951 562 946 q 580 962 572 957 q 599 966 587 966 q 627 964 612 966 q 653 961 642 962 q 669 953 661 960 q 679 943 676 946 q 705 936 684 933 q 722 926 714 937 q 737 908 730 916 q 739 891 745 901 q 739 878 733 880 q 755 884 743 876 q 774 886 766 892 q 794 859 787 876 q 807 829 802 842 q 810 811 812 818 q 808 798 808 804 q 817 781 808 793 q 825 762 825 768 q 825 751 825 760 q 824 734 825 743 q 823 716 823 725 q 823 704 823 708 q 819 692 825 697 q 804 689 812 686 q 803 679 796 692 q 817 660 810 667 q 812 631 822 653 q 791 600 803 610 q 771 589 781 593 q 764 581 761 586 q 756 568 768 576 q 728 555 743 559 q 718 557 722 554 q 710 562 714 559 q 701 562 705 564 q 694 551 697 561 q 696 538 690 543 q 710 530 701 533 q 729 524 720 526 q 743 521 739 522 q 763 509 751 517 q 786 492 775 501 q 804 475 796 484 q 815 461 812 467 q 818 437 822 447 q 818 419 814 427 q 828 412 822 414 q 838 400 835 411 q 839 379 839 395 q 838 346 839 363 q 837 314 838 329 q 836 296 836 300 q 842 288 836 286 q 848 281 848 289 m 533 673 q 532 686 533 677 q 530 701 532 694 q 524 714 528 708 q 513 720 519 720 l 471 720 q 455 713 465 720 q 440 707 446 707 q 431 710 436 707 q 425 720 425 714 q 420 727 425 724 q 411 724 415 730 q 404 712 408 718 q 393 707 400 707 q 381 700 387 707 q 375 688 375 693 q 372 670 374 681 q 363 661 370 660 q 359 651 358 661 q 363 636 361 640 q 381 621 366 632 q 404 610 396 610 q 419 610 407 610 q 445 609 432 610 q 471 608 458 608 q 486 608 484 608 q 498 616 493 608 q 503 627 503 624 q 509 635 503 629 q 522 644 515 640 q 533 673 533 656 m 543 304 q 542 318 543 310 q 537 335 541 326 q 529 349 533 343 q 519 355 525 355 q 501 354 511 357 q 479 354 490 351 q 473 360 471 355 q 469 366 476 366 q 451 366 463 366 q 437 364 439 367 q 431 357 435 361 q 424 354 427 354 q 413 357 415 354 q 410 365 411 361 q 408 374 410 370 q 403 380 407 378 q 392 386 399 383 q 382 389 386 389 q 376 387 378 390 q 375 378 374 385 q 376 356 382 359 q 371 350 371 353 q 371 338 371 349 q 372 315 371 328 q 372 291 372 302 q 372 277 372 279 q 382 260 372 265 q 406 254 392 254 q 419 244 418 254 q 424 228 421 233 q 429 224 425 225 q 438 222 433 222 q 447 224 443 222 q 449 229 450 227 q 444 245 446 236 q 450 254 443 254 l 496 254 q 506 259 501 254 q 518 267 511 264 q 535 279 526 269 q 543 304 543 289 z "},"C":{"ha":701,"x_min":62,"x_max":677,"o":"m 675 78 q 667 72 672 74 q 657 69 663 71 q 648 66 652 68 q 644 61 644 65 q 642 40 646 49 q 623 31 637 31 q 607 26 612 31 q 598 15 602 21 q 592 3 595 8 q 582 -1 589 -1 q 562 -3 575 -1 q 539 -4 549 -4 q 519 5 529 -4 q 505 21 510 14 q 499 21 504 24 q 489 14 494 18 q 478 5 484 9 q 471 1 473 1 q 437 -3 454 1 q 406 -7 419 -7 q 388 -6 400 -7 q 362 -5 375 -5 q 337 -5 349 -5 q 321 -4 325 -4 q 306 1 310 -4 q 306 11 302 7 q 306 25 307 16 q 293 28 304 35 q 283 13 283 20 q 283 0 283 7 q 276 -5 285 -3 q 255 -7 267 -7 q 233 -5 243 -7 q 220 0 222 -4 q 212 13 215 7 q 196 22 208 20 q 156 44 179 26 q 104 94 132 61 q 97 113 97 103 q 107 122 97 122 q 112 133 115 121 q 97 150 109 146 q 76 156 86 153 q 65 175 66 160 q 64 207 64 191 q 64 231 64 224 l 64 385 q 74 397 64 392 q 87 408 83 403 q 89 415 89 410 q 87 427 89 421 q 83 435 86 432 q 74 433 79 437 q 64 438 65 431 q 62 453 62 446 q 63 482 62 457 q 64 536 64 507 q 64 591 64 566 q 65 623 65 616 q 83 647 65 642 q 91 652 87 647 q 96 663 94 657 q 96 672 97 668 q 90 676 94 676 q 73 670 79 673 q 66 684 66 667 l 66 764 q 74 784 66 775 q 82 804 82 793 q 94 836 82 817 q 113 863 106 856 q 130 868 121 869 q 143 863 139 867 q 151 867 150 860 q 149 882 151 875 q 149 902 146 889 q 157 917 151 914 q 174 920 170 924 q 183 916 178 916 q 191 922 186 916 q 203 933 196 928 q 222 944 210 940 q 241 945 235 947 q 267 950 248 943 q 294 958 286 957 q 312 961 300 960 q 329 958 325 962 q 347 948 336 953 q 367 943 358 943 q 374 951 375 943 q 385 960 374 960 q 411 960 392 960 q 453 960 431 960 q 492 961 475 961 q 511 961 510 961 q 527 953 518 961 q 542 945 536 945 q 565 951 554 945 q 586 957 575 957 q 604 956 595 958 q 619 957 614 954 q 637 952 635 958 q 643 939 640 946 q 653 927 646 929 q 660 913 660 925 q 659 901 660 904 q 655 897 657 899 q 651 893 653 896 q 650 882 650 890 l 650 840 q 648 826 650 833 q 640 817 647 819 q 629 806 629 812 q 640 804 629 800 q 654 796 654 808 q 656 780 654 785 q 659 765 659 775 q 644 743 659 747 q 635 735 640 741 q 632 721 629 730 q 626 708 635 713 q 607 703 616 703 q 589 710 590 703 q 581 717 587 717 q 565 718 572 717 q 554 717 557 718 q 551 709 549 714 q 538 704 553 704 l 489 704 q 476 705 482 704 q 469 718 469 707 q 459 727 469 728 q 447 718 449 726 q 451 704 446 708 q 444 700 457 700 q 427 702 432 700 q 404 704 421 704 q 386 696 397 704 q 374 676 374 688 q 374 652 374 671 q 374 613 374 633 q 375 575 375 593 q 375 553 375 558 q 366 539 375 543 q 349 534 357 534 q 342 520 339 534 q 358 504 346 505 q 373 503 368 503 q 378 490 378 503 q 377 467 378 485 q 376 429 376 449 q 374 392 375 410 q 374 371 374 375 q 367 359 374 364 q 353 349 359 354 q 352 343 350 346 q 358 338 354 340 q 367 334 363 336 q 372 330 371 332 q 376 322 376 328 q 375 310 375 317 q 379 280 375 288 q 396 273 383 273 q 404 267 401 273 q 414 260 407 260 q 438 258 421 260 q 463 257 456 257 q 472 251 469 257 q 472 239 475 245 q 476 233 468 232 q 489 244 484 233 q 500 255 493 254 q 513 256 507 256 l 576 256 q 585 264 583 256 q 595 272 587 272 q 611 271 600 272 q 624 264 623 271 q 635 247 627 249 q 653 245 644 245 q 667 231 660 245 q 673 205 673 216 q 673 192 673 201 q 674 172 673 182 q 675 153 675 161 q 675 140 675 144 q 675 129 675 138 q 677 110 676 119 q 677 91 677 100 q 675 78 677 82 z "},"c":{"ha":694,"x_min":62,"x_max":677,"o":"m 675 78 q 667 72 672 74 q 657 69 663 71 q 648 66 652 68 q 644 61 644 65 q 642 40 646 49 q 623 31 637 31 q 607 26 612 31 q 598 15 602 21 q 592 3 595 8 q 582 -1 589 -1 q 562 -3 575 -1 q 539 -4 549 -4 q 519 5 529 -4 q 505 21 510 14 q 499 21 504 24 q 489 14 494 18 q 478 5 484 9 q 471 1 473 1 q 437 -3 454 1 q 406 -7 419 -7 q 388 -6 400 -7 q 362 -5 375 -5 q 337 -5 349 -5 q 321 -4 325 -4 q 306 1 310 -4 q 306 11 302 7 q 306 25 307 16 q 293 28 304 35 q 283 13 283 20 q 283 0 283 7 q 276 -5 285 -3 q 255 -7 267 -7 q 233 -5 243 -7 q 220 0 222 -4 q 212 13 215 7 q 196 22 208 20 q 156 44 179 26 q 104 94 132 61 q 97 113 97 103 q 107 122 97 122 q 112 133 115 121 q 97 150 109 146 q 76 156 86 153 q 65 175 66 160 q 64 207 64 191 q 64 231 64 224 l 64 385 q 74 397 64 392 q 87 408 83 403 q 89 415 89 410 q 87 427 89 421 q 83 435 86 432 q 74 433 79 437 q 64 438 65 431 q 62 453 62 446 q 63 482 62 457 q 64 536 64 507 q 64 591 64 566 q 65 623 65 616 q 83 647 65 642 q 91 652 87 647 q 96 663 94 657 q 96 672 97 668 q 90 676 94 676 q 73 670 79 673 q 66 684 66 667 l 66 764 q 74 784 66 775 q 82 804 82 793 q 94 836 82 817 q 113 863 106 856 q 130 868 121 869 q 143 863 139 867 q 151 867 150 860 q 149 882 151 875 q 149 902 146 889 q 157 917 151 914 q 174 920 170 924 q 183 916 178 916 q 191 922 186 916 q 203 933 196 928 q 222 944 210 940 q 241 945 235 947 q 267 950 248 943 q 294 958 286 957 q 312 961 300 960 q 329 958 325 962 q 347 948 336 953 q 367 943 358 943 q 374 951 375 943 q 385 960 374 960 q 411 960 392 960 q 453 960 431 960 q 492 961 475 961 q 511 961 510 961 q 527 953 518 961 q 542 945 536 945 q 565 951 554 945 q 586 957 575 957 q 604 956 595 958 q 619 957 614 954 q 637 952 635 958 q 643 939 640 946 q 653 927 646 929 q 660 913 660 925 q 659 901 660 904 q 655 897 657 899 q 651 893 653 896 q 650 882 650 890 l 650 840 q 648 826 650 833 q 640 817 647 819 q 629 806 629 812 q 640 804 629 800 q 654 796 654 808 q 656 780 654 785 q 659 765 659 775 q 644 743 659 747 q 635 735 640 741 q 632 721 629 730 q 626 708 635 713 q 607 703 616 703 q 589 710 590 703 q 581 717 587 717 q 565 718 572 717 q 554 717 557 718 q 551 709 549 714 q 538 704 553 704 l 489 704 q 476 705 482 704 q 469 718 469 707 q 459 727 469 728 q 447 718 449 726 q 451 704 446 708 q 444 700 457 700 q 427 702 432 700 q 404 704 421 704 q 386 696 397 704 q 374 676 374 688 q 374 652 374 671 q 374 613 374 633 q 375 575 375 593 q 375 553 375 558 q 366 539 375 543 q 349 534 357 534 q 342 520 339 534 q 358 504 346 505 q 373 503 368 503 q 378 490 378 503 q 377 467 378 485 q 376 429 376 449 q 374 392 375 410 q 374 371 374 375 q 367 359 374 364 q 353 349 359 354 q 352 343 350 346 q 358 338 354 340 q 367 334 363 336 q 372 330 371 332 q 376 322 376 328 q 375 310 375 317 q 379 280 375 288 q 396 273 383 273 q 404 267 401 273 q 414 260 407 260 q 438 258 421 260 q 463 257 456 257 q 472 251 469 257 q 472 239 475 245 q 476 233 468 232 q 489 244 484 233 q 500 255 493 254 q 513 256 507 256 l 576 256 q 585 264 583 256 q 595 272 587 272 q 611 271 600 272 q 624 264 623 271 q 635 247 627 249 q 653 245 644 245 q 667 231 660 245 q 673 205 673 216 q 673 192 673 201 q 674 172 673 182 q 675 153 675 161 q 675 140 675 144 q 675 129 675 138 q 677 110 676 119 q 677 91 677 100 q 675 78 677 82 z "},"D":{"ha":960,"x_min":53,"x_max":895,"o":"m 895 672 q 895 647 895 667 q 894 606 895 628 q 893 565 893 583 q 893 542 893 546 q 888 533 893 534 q 884 525 884 532 q 888 516 884 518 q 893 507 893 514 l 893 454 q 889 442 893 447 q 885 431 885 437 q 889 425 885 424 q 893 416 893 427 l 893 281 q 887 269 893 273 q 876 267 882 264 q 862 266 869 269 q 861 260 854 262 q 875 253 868 256 q 885 244 882 250 q 888 228 888 237 q 886 211 888 218 q 881 193 886 204 q 865 175 875 182 q 834 136 846 158 q 790 90 822 114 q 768 87 778 79 q 758 90 761 92 q 757 81 754 87 q 765 66 760 75 q 764 50 771 57 q 743 35 757 43 q 713 21 729 28 q 684 9 697 14 q 665 4 671 5 q 651 5 654 1 q 642 16 647 8 q 638 13 639 22 q 633 1 637 4 q 622 -1 631 0 q 603 -3 612 -3 q 585 -4 593 -4 q 572 -4 576 -4 q 544 -1 550 -4 q 526 1 538 3 q 511 8 514 -1 q 500 28 509 18 q 480 37 492 35 q 478 28 468 40 q 486 5 486 14 q 473 -3 485 -3 q 450 -3 463 -3 q 429 -4 437 -4 q 421 3 422 -4 q 412 11 419 11 q 399 5 406 11 q 386 -1 393 -1 q 355 -1 382 -1 q 298 0 329 0 q 241 1 268 0 q 210 1 214 1 q 200 7 200 1 q 192 14 200 14 q 172 13 183 14 q 153 12 160 12 q 144 7 147 12 q 135 1 142 1 l 96 1 q 83 16 85 1 q 74 24 82 22 q 65 36 65 25 q 64 63 65 46 q 62 87 62 79 q 58 103 62 96 q 53 125 53 111 q 60 156 53 143 q 66 179 66 170 l 66 330 q 69 345 66 338 q 77 350 72 353 q 91 351 83 349 q 90 367 98 354 q 82 374 86 374 q 74 376 78 375 q 68 380 71 376 q 65 395 65 383 q 64 417 65 408 q 62 431 62 425 q 67 433 62 436 q 75 437 72 431 q 76 455 78 444 q 72 472 74 467 q 68 478 71 476 q 66 490 66 481 l 66 704 q 68 710 66 708 q 73 711 71 711 q 77 712 75 711 q 75 717 78 713 q 69 725 72 725 q 66 736 66 725 l 66 799 q 75 809 66 807 q 90 808 83 811 q 101 814 98 806 q 98 829 104 823 q 90 832 96 832 q 77 833 83 832 q 66 836 71 833 q 62 847 62 839 q 62 887 62 865 q 65 916 62 909 q 68 938 68 924 q 78 953 69 953 l 147 953 q 160 949 154 953 q 161 933 167 945 q 156 916 154 926 q 174 917 158 905 q 182 928 180 922 q 186 940 184 935 q 191 949 187 946 q 203 953 195 953 l 289 953 q 298 957 297 953 q 306 961 298 961 l 419 961 q 430 957 428 961 q 433 947 432 953 q 435 938 433 942 q 441 933 436 933 q 465 943 453 933 q 485 953 476 953 q 501 957 493 953 q 521 961 509 961 q 542 961 526 961 q 576 962 558 961 q 611 962 595 962 q 633 962 627 962 q 667 953 647 962 q 689 937 686 943 q 698 915 694 930 q 714 892 701 899 q 721 895 718 890 q 728 904 724 899 q 738 913 732 909 q 753 913 743 917 q 777 893 760 909 q 813 853 794 876 q 849 807 832 831 q 872 765 867 783 q 873 741 876 754 q 868 722 871 728 q 865 710 864 720 q 869 694 867 701 q 866 683 872 690 q 854 671 860 675 q 858 664 850 668 q 871 667 867 660 q 886 676 878 671 q 895 672 895 682 m 610 607 q 600 611 606 610 q 589 614 595 612 q 579 622 583 616 q 575 636 575 627 q 583 651 575 647 q 593 663 590 656 q 588 667 596 669 q 575 661 581 665 q 568 663 568 657 q 567 672 567 668 q 565 678 568 673 q 556 688 561 682 q 547 697 551 693 q 541 703 542 701 q 517 707 532 708 q 506 701 510 704 q 494 699 501 699 q 475 707 485 699 q 460 715 465 715 q 455 710 456 715 q 447 704 454 704 q 436 708 440 704 q 427 713 432 713 q 417 709 422 713 q 410 703 411 705 q 400 700 408 699 q 393 713 392 701 q 385 719 393 721 q 380 703 376 717 q 379 685 385 688 q 374 675 374 682 q 378 653 374 660 q 383 629 383 647 l 383 545 q 378 535 383 536 q 365 535 372 533 q 352 537 358 536 q 343 530 346 538 q 345 515 339 522 q 358 502 350 509 q 372 490 366 496 q 379 478 379 485 q 378 439 379 461 q 377 396 378 416 q 376 359 376 375 q 375 338 375 343 q 379 326 375 325 q 383 321 383 328 l 383 236 q 391 227 383 232 q 399 232 399 221 q 412 256 403 256 l 457 256 q 468 249 468 256 q 473 243 468 243 q 492 246 486 243 q 503 253 498 249 q 511 260 507 257 q 524 262 515 262 q 545 269 541 262 q 557 278 550 275 q 571 284 562 281 q 581 309 581 288 l 581 368 q 590 382 581 375 q 600 395 600 389 q 590 399 600 400 q 581 408 581 399 l 581 481 q 577 492 581 489 q 574 504 574 496 q 574 519 574 509 q 574 540 574 529 q 575 561 575 551 q 575 575 575 571 q 580 585 575 582 q 593 583 585 589 q 612 590 606 579 q 610 607 619 602 z "},"d":{"ha":960,"x_min":53,"x_max":895,"o":"m 895 672 q 895 647 895 667 q 894 606 895 628 q 893 565 893 583 q 893 542 893 546 q 888 533 893 534 q 884 525 884 532 q 888 516 884 518 q 893 507 893 514 l 893 454 q 889 442 893 447 q 885 431 885 437 q 889 425 885 424 q 893 416 893 427 l 893 281 q 887 269 893 273 q 876 267 882 264 q 862 266 869 269 q 861 260 854 262 q 875 253 868 256 q 885 244 882 250 q 888 228 888 237 q 886 211 888 218 q 881 193 886 204 q 865 175 875 182 q 834 136 846 158 q 790 90 822 114 q 768 87 778 79 q 758 90 761 92 q 757 81 754 87 q 765 66 760 75 q 764 50 771 57 q 743 35 757 43 q 713 21 729 28 q 684 9 697 14 q 665 4 671 5 q 651 5 654 1 q 642 16 647 8 q 638 13 639 22 q 633 1 637 4 q 622 -1 631 0 q 603 -3 612 -3 q 585 -4 593 -4 q 572 -4 576 -4 q 544 -1 550 -4 q 526 1 538 3 q 511 8 514 -1 q 500 28 509 18 q 480 37 492 35 q 478 28 468 40 q 486 5 486 14 q 473 -3 485 -3 q 450 -3 463 -3 q 429 -4 437 -4 q 421 3 422 -4 q 412 11 419 11 q 399 5 406 11 q 386 -1 393 -1 q 355 -1 382 -1 q 298 0 329 0 q 241 1 268 0 q 210 1 214 1 q 200 7 200 1 q 192 14 200 14 q 172 13 183 14 q 153 12 160 12 q 144 7 147 12 q 135 1 142 1 l 96 1 q 83 16 85 1 q 74 24 82 22 q 65 36 65 25 q 64 63 65 46 q 62 87 62 79 q 58 103 62 96 q 53 125 53 111 q 60 156 53 143 q 66 179 66 170 l 66 330 q 69 345 66 338 q 77 350 72 353 q 91 351 83 349 q 90 367 98 354 q 82 374 86 374 q 74 376 78 375 q 68 380 71 376 q 65 395 65 383 q 64 417 65 408 q 62 431 62 425 q 67 433 62 436 q 75 437 72 431 q 76 455 78 444 q 72 472 74 467 q 68 478 71 476 q 66 490 66 481 l 66 704 q 68 710 66 708 q 73 711 71 711 q 77 712 75 711 q 75 717 78 713 q 69 725 72 725 q 66 736 66 725 l 66 799 q 75 809 66 807 q 90 808 83 811 q 101 814 98 806 q 98 829 104 823 q 90 832 96 832 q 77 833 83 832 q 66 836 71 833 q 62 847 62 839 q 62 887 62 865 q 65 916 62 909 q 68 938 68 924 q 78 953 69 953 l 147 953 q 160 949 154 953 q 161 933 167 945 q 156 916 154 926 q 174 917 158 905 q 182 928 180 922 q 186 940 184 935 q 191 949 187 946 q 203 953 195 953 l 289 953 q 298 957 297 953 q 306 961 298 961 l 419 961 q 430 957 428 961 q 433 947 432 953 q 435 938 433 942 q 441 933 436 933 q 465 943 453 933 q 485 953 476 953 q 501 957 493 953 q 521 961 509 961 q 542 961 526 961 q 576 962 558 961 q 611 962 595 962 q 633 962 627 962 q 667 953 647 962 q 689 937 686 943 q 698 915 694 930 q 714 892 701 899 q 721 895 718 890 q 728 904 724 899 q 738 913 732 909 q 753 913 743 917 q 777 893 760 909 q 813 853 794 876 q 849 807 832 831 q 872 765 867 783 q 873 741 876 754 q 868 722 871 728 q 865 710 864 720 q 869 694 867 701 q 866 683 872 690 q 854 671 860 675 q 858 664 850 668 q 871 667 867 660 q 886 676 878 671 q 895 672 895 682 m 610 607 q 600 611 606 610 q 589 614 595 612 q 579 622 583 616 q 575 636 575 627 q 583 651 575 647 q 593 663 590 656 q 588 667 596 669 q 575 661 581 665 q 568 663 568 657 q 567 672 567 668 q 565 678 568 673 q 556 688 561 682 q 547 697 551 693 q 541 703 542 701 q 517 707 532 708 q 506 701 510 704 q 494 699 501 699 q 475 707 485 699 q 460 715 465 715 q 455 710 456 715 q 447 704 454 704 q 436 708 440 704 q 427 713 432 713 q 417 709 422 713 q 410 703 411 705 q 400 700 408 699 q 393 713 392 701 q 385 719 393 721 q 380 703 376 717 q 379 685 385 688 q 374 675 374 682 q 378 653 374 660 q 383 629 383 647 l 383 545 q 378 535 383 536 q 365 535 372 533 q 352 537 358 536 q 343 530 346 538 q 345 515 339 522 q 358 502 350 509 q 372 490 366 496 q 379 478 379 485 q 378 439 379 461 q 377 396 378 416 q 376 359 376 375 q 375 338 375 343 q 379 326 375 325 q 383 321 383 328 l 383 236 q 391 227 383 232 q 399 232 399 221 q 412 256 403 256 l 457 256 q 468 249 468 256 q 473 243 468 243 q 492 246 486 243 q 503 253 498 249 q 511 260 507 257 q 524 262 515 262 q 545 269 541 262 q 557 278 550 275 q 571 284 562 281 q 581 309 581 288 l 581 368 q 590 382 581 375 q 600 395 600 389 q 590 399 600 400 q 581 408 581 399 l 581 481 q 577 492 581 489 q 574 504 574 496 q 574 519 574 509 q 574 540 574 529 q 575 561 575 551 q 575 575 575 571 q 580 585 575 582 q 593 583 585 589 q 612 590 606 579 q 610 607 619 602 z "},"E":{"ha":733,"x_min":61,"x_max":697,"o":"m 692 132 q 688 117 692 125 q 676 109 684 110 q 673 100 669 107 q 684 90 677 93 q 693 72 689 87 q 689 50 697 56 q 677 25 669 37 q 674 9 681 20 q 652 -1 667 -1 q 618 -2 643 -1 q 565 -3 593 -3 q 513 -3 538 -3 q 482 -4 489 -4 q 470 6 467 -4 q 479 22 473 16 q 472 28 485 29 q 447 21 458 28 q 432 5 436 14 q 414 -3 428 -3 l 192 -3 q 177 1 175 -3 q 176 11 179 5 q 164 15 174 17 q 153 9 155 14 q 144 -1 150 3 q 121 -4 138 -4 q 102 9 104 -4 q 88 13 98 14 q 78 20 78 12 q 71 31 78 28 q 64 43 64 35 q 64 63 64 50 q 65 81 65 77 q 74 90 65 86 q 86 98 82 94 q 89 111 89 104 q 79 119 89 118 q 70 125 69 119 q 71 138 71 131 q 70 164 71 142 q 68 212 69 186 q 66 262 66 239 q 65 290 65 286 q 72 317 65 300 q 78 342 78 335 q 72 355 78 351 q 66 371 65 359 q 75 378 68 374 q 89 387 82 382 q 101 397 96 392 q 104 410 107 403 q 97 414 103 412 q 84 416 90 415 q 72 419 78 416 q 66 428 66 422 q 64 453 66 443 q 61 476 61 463 q 64 499 61 490 q 66 526 66 507 q 67 552 66 530 q 68 598 68 574 q 70 643 69 623 q 71 667 71 663 q 75 679 71 673 q 86 682 79 685 q 97 684 93 679 q 89 694 102 689 q 72 707 78 701 q 65 724 65 713 l 65 812 q 73 826 65 822 q 78 836 81 831 q 70 846 74 840 q 65 859 65 851 l 65 917 q 79 949 65 935 q 96 948 89 956 q 107 945 103 940 q 113 954 111 947 q 125 961 114 961 q 158 960 136 961 q 187 960 179 960 q 201 952 197 960 q 211 945 204 945 q 224 942 218 945 q 229 932 229 939 q 236 924 229 925 q 248 933 243 922 q 254 951 252 942 q 268 960 257 960 l 464 960 q 476 949 471 960 q 492 939 482 939 q 504 942 496 939 q 519 951 511 946 q 535 959 528 956 q 549 962 543 962 q 555 960 554 962 q 556 954 555 957 q 559 949 557 951 q 567 946 561 946 q 583 952 581 946 q 591 961 586 958 q 602 964 595 964 q 616 965 608 965 q 631 964 624 965 q 637 960 637 962 q 645 951 640 953 q 665 949 650 950 q 681 938 679 947 q 682 918 682 929 l 682 875 q 678 867 682 869 q 669 865 673 865 q 661 863 664 864 q 660 859 657 863 q 677 850 668 848 q 686 839 686 851 q 688 826 686 836 q 686 815 690 817 q 677 794 677 810 l 677 733 q 660 720 677 717 q 641 718 653 721 q 623 710 629 715 q 611 699 614 705 q 589 692 608 692 q 572 698 574 692 q 561 704 571 704 l 490 704 q 471 717 479 704 q 456 736 463 730 q 451 735 452 739 q 450 724 450 730 q 448 712 450 718 q 437 707 446 707 l 400 707 q 384 699 390 707 q 378 682 378 692 q 380 640 378 654 q 392 625 382 625 q 406 625 396 625 q 426 626 415 625 q 447 627 437 627 q 460 627 457 627 q 469 620 467 627 q 473 608 471 612 q 483 607 476 603 q 492 618 490 611 q 497 626 493 625 q 505 627 501 627 q 521 626 509 627 q 538 625 533 625 q 549 621 543 625 q 562 616 555 616 q 567 607 568 616 q 561 595 566 597 q 563 591 558 593 q 574 589 568 590 q 586 585 581 587 q 591 579 591 583 l 591 500 q 583 492 591 492 q 574 486 574 492 q 573 474 574 479 q 561 465 572 469 q 557 462 555 464 q 565 458 559 460 q 576 456 571 457 q 585 454 582 454 q 591 435 591 453 q 590 403 590 418 q 577 384 590 390 q 564 374 564 378 q 558 362 566 367 q 539 357 550 357 q 514 355 528 357 q 494 354 500 354 q 482 370 484 354 q 476 374 479 378 q 472 364 473 371 q 462 354 469 357 q 447 351 454 351 q 427 351 440 351 q 411 354 414 351 q 406 360 410 357 q 397 367 401 364 q 389 370 393 370 q 383 364 385 370 q 381 350 382 359 q 380 331 380 340 q 381 313 380 321 q 382 300 382 304 q 424 258 382 258 q 436 252 435 258 q 444 245 437 245 q 456 253 452 245 q 468 260 461 260 q 480 255 475 260 q 484 236 486 250 q 487 227 479 225 q 497 236 494 229 q 502 251 500 243 q 514 258 504 258 q 540 257 522 258 q 574 256 558 256 q 607 257 587 256 q 637 258 627 258 q 654 254 648 258 q 660 241 660 249 q 668 227 660 235 q 685 215 676 220 q 692 202 693 211 q 692 183 692 193 l 692 132 l 692 132 z "},"e":{"ha":733,"x_min":61,"x_max":697,"o":"m 692 132 q 688 117 692 125 q 676 109 684 110 q 673 100 669 107 q 684 90 677 93 q 693 72 689 87 q 689 50 697 56 q 677 25 669 37 q 674 9 681 20 q 652 -1 667 -1 q 618 -2 643 -1 q 565 -3 593 -3 q 513 -3 538 -3 q 482 -4 489 -4 q 470 6 467 -4 q 479 22 473 16 q 472 28 485 29 q 447 21 458 28 q 432 5 436 14 q 414 -3 428 -3 l 192 -3 q 177 1 175 -3 q 176 11 179 5 q 164 15 174 17 q 153 9 155 14 q 144 -1 150 3 q 121 -4 138 -4 q 102 9 104 -4 q 88 13 98 14 q 78 20 78 12 q 71 31 78 28 q 64 43 64 35 q 64 63 64 50 q 65 81 65 77 q 74 90 65 86 q 86 98 82 94 q 89 111 89 104 q 79 119 89 118 q 70 125 69 119 q 71 138 71 131 q 70 164 71 142 q 68 212 69 186 q 66 262 66 239 q 65 290 65 286 q 72 317 65 300 q 78 342 78 335 q 72 355 78 351 q 66 371 65 359 q 75 378 68 374 q 89 387 82 382 q 101 397 96 392 q 104 410 107 403 q 97 414 103 412 q 84 416 90 415 q 72 419 78 416 q 66 428 66 422 q 64 453 66 443 q 61 476 61 463 q 64 499 61 490 q 66 526 66 507 q 67 552 66 530 q 68 598 68 574 q 70 643 69 623 q 71 667 71 663 q 75 679 71 673 q 86 682 79 685 q 97 684 93 679 q 89 694 102 689 q 72 707 78 701 q 65 724 65 713 l 65 812 q 73 826 65 822 q 78 836 81 831 q 70 846 74 840 q 65 859 65 851 l 65 917 q 79 949 65 935 q 96 948 89 956 q 107 945 103 940 q 113 954 111 947 q 125 961 114 961 q 158 960 136 961 q 187 960 179 960 q 201 952 197 960 q 211 945 204 945 q 224 942 218 945 q 229 932 229 939 q 236 924 229 925 q 248 933 243 922 q 254 951 252 942 q 268 960 257 960 l 464 960 q 476 949 471 960 q 492 939 482 939 q 504 942 496 939 q 519 951 511 946 q 535 959 528 956 q 549 962 543 962 q 555 960 554 962 q 556 954 555 957 q 559 949 557 951 q 567 946 561 946 q 583 952 581 946 q 591 961 586 958 q 602 964 595 964 q 616 965 608 965 q 631 964 624 965 q 637 960 637 962 q 645 951 640 953 q 665 949 650 950 q 681 938 679 947 q 682 918 682 929 l 682 875 q 678 867 682 869 q 669 865 673 865 q 661 863 664 864 q 660 859 657 863 q 677 850 668 848 q 686 839 686 851 q 688 826 686 836 q 686 815 690 817 q 677 794 677 810 l 677 733 q 660 720 677 717 q 641 718 653 721 q 623 710 629 715 q 611 699 614 705 q 589 692 608 692 q 572 698 574 692 q 561 704 571 704 l 490 704 q 471 717 479 704 q 456 736 463 730 q 451 735 452 739 q 450 724 450 730 q 448 712 450 718 q 437 707 446 707 l 400 707 q 384 699 390 707 q 378 682 378 692 q 380 640 378 654 q 392 625 382 625 q 406 625 396 625 q 426 626 415 625 q 447 627 437 627 q 460 627 457 627 q 469 620 467 627 q 473 608 471 612 q 483 607 476 603 q 492 618 490 611 q 497 626 493 625 q 505 627 501 627 q 521 626 509 627 q 538 625 533 625 q 549 621 543 625 q 562 616 555 616 q 567 607 568 616 q 561 595 566 597 q 563 591 558 593 q 574 589 568 590 q 586 585 581 587 q 591 579 591 583 l 591 500 q 583 492 591 492 q 574 486 574 492 q 573 474 574 479 q 561 465 572 469 q 557 462 555 464 q 565 458 559 460 q 576 456 571 457 q 585 454 582 454 q 591 435 591 453 q 590 403 590 418 q 577 384 590 390 q 564 374 564 378 q 558 362 566 367 q 539 357 550 357 q 514 355 528 357 q 494 354 500 354 q 482 370 484 354 q 476 374 479 378 q 472 364 473 371 q 462 354 469 357 q 447 351 454 351 q 427 351 440 351 q 411 354 414 351 q 406 360 410 357 q 397 367 401 364 q 389 370 393 370 q 383 364 385 370 q 381 350 382 359 q 380 331 380 340 q 381 313 380 321 q 382 300 382 304 q 424 258 382 258 q 436 252 435 258 q 444 245 437 245 q 456 253 452 245 q 468 260 461 260 q 480 255 475 260 q 484 236 486 250 q 487 227 479 225 q 497 236 494 229 q 502 251 500 243 q 514 258 504 258 q 540 257 522 258 q 574 256 558 256 q 607 257 587 256 q 637 258 627 258 q 654 254 648 258 q 660 241 660 249 q 668 227 660 235 q 685 215 676 220 q 692 202 693 211 q 692 183 692 193 l 692 132 l 692 132 z "},"F":{"ha":720,"x_min":61,"x_max":689,"o":"m 688 832 q 684 808 689 817 q 677 790 676 803 q 684 770 677 777 q 688 758 686 766 q 688 740 689 750 q 686 722 688 730 q 681 710 685 714 q 666 705 673 703 q 652 708 659 708 q 643 699 644 708 q 629 690 642 689 q 603 690 616 692 q 582 690 590 689 q 571 696 574 690 q 561 703 568 703 q 532 700 554 703 q 494 697 510 697 q 476 701 479 697 q 471 708 473 705 q 456 718 463 718 q 446 708 449 718 q 427 703 444 701 q 401 704 410 704 q 386 700 393 704 q 378 684 378 696 l 378 646 q 386 631 378 640 q 401 623 393 623 q 430 624 410 623 q 457 625 450 625 q 468 620 465 625 q 473 610 471 614 q 480 604 476 600 q 488 611 485 608 q 493 620 492 614 q 501 627 494 627 l 555 627 q 576 623 567 627 q 576 608 586 619 q 574 597 568 597 q 586 599 579 597 q 593 590 595 600 q 591 568 591 581 l 591 521 q 585 513 591 517 q 576 504 579 510 q 583 486 572 492 q 593 472 593 481 q 589 458 593 464 q 580 450 585 453 q 570 444 575 447 q 566 437 566 441 q 558 421 566 429 q 542 407 551 414 q 522 395 532 400 q 504 389 511 390 q 502 384 503 389 q 500 373 501 379 q 497 361 500 367 q 486 355 494 355 q 456 363 471 355 q 437 367 441 371 q 428 358 432 364 q 408 353 424 353 q 389 357 400 353 q 375 357 378 361 q 377 343 371 353 q 383 317 383 334 q 382 296 383 313 q 382 259 382 279 q 381 221 382 239 q 380 197 380 204 q 368 180 380 183 q 362 176 366 180 q 358 165 359 171 q 357 154 357 160 q 363 149 358 149 q 376 151 370 147 q 382 138 382 154 q 388 119 382 122 q 395 104 395 115 q 394 84 395 94 q 393 60 393 74 q 390 53 393 54 q 382 52 386 52 q 374 54 378 53 q 371 52 371 54 q 379 35 371 46 q 380 18 387 24 q 375 11 378 16 q 369 1 372 5 q 362 -3 366 -3 q 354 0 358 -4 q 339 3 349 4 q 323 -1 330 3 q 301 -4 321 -4 q 259 -4 282 -4 q 217 -3 236 -4 q 193 -3 197 -3 q 180 0 183 -3 q 177 5 178 3 q 176 11 176 8 q 171 14 175 14 q 165 11 167 14 q 160 5 163 8 q 153 -1 158 1 q 138 -4 149 -4 q 119 -1 125 -4 q 112 5 114 1 q 109 14 110 9 q 106 20 109 18 q 93 24 100 24 q 80 26 86 25 q 70 31 74 28 q 65 45 65 35 l 65 172 q 70 178 65 176 q 78 183 74 180 q 85 190 82 186 q 89 199 89 193 q 85 204 89 203 q 79 206 82 205 q 74 210 77 207 q 71 220 71 212 l 71 297 q 76 319 71 309 q 81 342 81 330 q 78 353 81 350 q 72 358 75 357 q 66 362 68 359 q 66 374 65 366 q 66 397 72 389 q 61 425 61 406 q 65 449 61 443 q 69 468 69 454 q 70 492 69 479 q 71 517 71 504 q 78 530 71 529 q 93 526 86 532 q 99 537 100 522 q 86 555 98 551 q 70 568 74 562 q 65 582 65 574 l 65 631 q 68 640 65 637 q 74 644 71 643 q 78 648 77 646 q 78 654 79 650 q 74 660 77 659 q 70 663 72 661 q 66 667 68 664 q 65 677 65 669 l 65 920 q 74 946 65 930 q 90 957 82 961 q 111 958 110 945 q 118 964 113 964 q 127 964 123 964 q 151 963 132 964 q 191 962 170 962 q 231 962 212 962 q 254 961 250 961 q 265 958 262 961 q 279 953 268 956 q 300 937 300 949 q 308 939 300 933 q 318 949 315 945 q 321 958 321 953 q 330 964 322 962 q 360 964 339 965 q 387 964 380 964 q 406 961 395 964 q 429 958 418 958 q 441 962 440 958 q 458 965 443 965 q 488 964 465 965 q 536 964 511 964 q 582 964 561 964 q 606 965 603 964 q 623 970 610 968 q 639 962 636 972 q 647 951 642 953 q 659 949 653 949 q 675 940 665 949 q 685 924 685 932 l 685 873 q 679 867 685 868 q 668 863 673 865 q 672 852 653 860 q 683 844 681 847 q 688 832 685 842 z "},"f":{"ha":720,"x_min":61,"x_max":689,"o":"m 688 832 q 684 808 689 817 q 677 790 676 803 q 684 770 677 777 q 688 758 686 766 q 688 740 689 750 q 686 722 688 730 q 681 710 685 714 q 666 705 673 703 q 652 708 659 708 q 643 699 644 708 q 629 690 642 689 q 603 690 616 692 q 582 690 590 689 q 571 696 574 690 q 561 703 568 703 q 532 700 554 703 q 494 697 510 697 q 476 701 479 697 q 471 708 473 705 q 456 718 463 718 q 446 708 449 718 q 427 703 444 701 q 401 704 410 704 q 386 700 393 704 q 378 684 378 696 l 378 646 q 386 631 378 640 q 401 623 393 623 q 430 624 410 623 q 457 625 450 625 q 468 620 465 625 q 473 610 471 614 q 480 604 476 600 q 488 611 485 608 q 493 620 492 614 q 501 627 494 627 l 555 627 q 576 623 567 627 q 576 608 586 619 q 574 597 568 597 q 586 599 579 597 q 593 590 595 600 q 591 568 591 581 l 591 521 q 585 513 591 517 q 576 504 579 510 q 583 486 572 492 q 593 472 593 481 q 589 458 593 464 q 580 450 585 453 q 570 444 575 447 q 566 437 566 441 q 558 421 566 429 q 542 407 551 414 q 522 395 532 400 q 504 389 511 390 q 502 384 503 389 q 500 373 501 379 q 497 361 500 367 q 486 355 494 355 q 456 363 471 355 q 437 367 441 371 q 428 358 432 364 q 408 353 424 353 q 389 357 400 353 q 375 357 378 361 q 377 343 371 353 q 383 317 383 334 q 382 296 383 313 q 382 259 382 279 q 381 221 382 239 q 380 197 380 204 q 368 180 380 183 q 362 176 366 180 q 358 165 359 171 q 357 154 357 160 q 363 149 358 149 q 376 151 370 147 q 382 138 382 154 q 388 119 382 122 q 395 104 395 115 q 394 84 395 94 q 393 60 393 74 q 390 53 393 54 q 382 52 386 52 q 374 54 378 53 q 371 52 371 54 q 379 35 371 46 q 380 18 387 24 q 375 11 378 16 q 369 1 372 5 q 362 -3 366 -3 q 354 0 358 -4 q 339 3 349 4 q 323 -1 330 3 q 301 -4 321 -4 q 259 -4 282 -4 q 217 -3 236 -4 q 193 -3 197 -3 q 180 0 183 -3 q 177 5 178 3 q 176 11 176 8 q 171 14 175 14 q 165 11 167 14 q 160 5 163 8 q 153 -1 158 1 q 138 -4 149 -4 q 119 -1 125 -4 q 112 5 114 1 q 109 14 110 9 q 106 20 109 18 q 93 24 100 24 q 80 26 86 25 q 70 31 74 28 q 65 45 65 35 l 65 172 q 70 178 65 176 q 78 183 74 180 q 85 190 82 186 q 89 199 89 193 q 85 204 89 203 q 79 206 82 205 q 74 210 77 207 q 71 220 71 212 l 71 297 q 76 319 71 309 q 81 342 81 330 q 78 353 81 350 q 72 358 75 357 q 66 362 68 359 q 66 374 65 366 q 66 397 72 389 q 61 425 61 406 q 65 449 61 443 q 69 468 69 454 q 70 492 69 479 q 71 517 71 504 q 78 530 71 529 q 93 526 86 532 q 99 537 100 522 q 86 555 98 551 q 70 568 74 562 q 65 582 65 574 l 65 631 q 68 640 65 637 q 74 644 71 643 q 78 648 77 646 q 78 654 79 650 q 74 660 77 659 q 70 663 72 661 q 66 667 68 664 q 65 677 65 669 l 65 920 q 74 946 65 930 q 90 957 82 961 q 111 958 110 945 q 118 964 113 964 q 127 964 123 964 q 151 963 132 964 q 191 962 170 962 q 231 962 212 962 q 254 961 250 961 q 265 958 262 961 q 279 953 268 956 q 300 937 300 949 q 308 939 300 933 q 318 949 315 945 q 321 958 321 953 q 330 964 322 962 q 360 964 339 965 q 387 964 380 964 q 406 961 395 964 q 429 958 418 958 q 441 962 440 958 q 458 965 443 965 q 488 964 465 965 q 536 964 511 964 q 582 964 561 964 q 606 965 603 964 q 623 970 610 968 q 639 962 636 972 q 647 951 642 953 q 659 949 653 949 q 675 940 665 949 q 685 924 685 932 l 685 873 q 679 867 685 868 q 668 863 673 865 q 672 852 653 860 q 683 844 681 847 q 688 832 685 842 z "},"G":{"ha":933,"x_min":57,"x_max":890,"o":"m 888 43 q 877 31 884 37 q 871 18 871 25 q 860 6 871 12 q 839 0 850 0 q 808 2 828 0 q 775 4 789 4 q 758 2 760 4 q 749 0 757 0 q 726 6 739 0 q 704 17 713 12 q 686 23 696 24 q 671 26 676 22 q 654 38 664 29 q 643 53 644 47 q 641 77 642 68 q 625 86 640 86 q 599 72 607 86 q 587 50 591 57 q 573 27 585 43 q 551 7 562 11 q 530 1 541 4 q 509 -1 519 -1 q 492 -1 497 -1 q 475 0 486 0 q 440 6 456 0 q 412 12 424 12 q 390 5 395 12 q 372 -1 385 -1 q 349 3 361 -1 q 319 7 336 7 q 297 6 306 7 q 275 5 288 5 q 248 13 262 5 q 231 31 233 21 q 216 49 228 40 q 197 60 204 58 q 180 63 191 62 q 164 72 170 64 q 160 84 160 79 q 160 94 160 89 q 159 104 160 98 q 153 117 158 110 q 146 119 149 121 q 140 115 143 118 q 133 111 136 113 q 123 111 129 109 q 110 131 118 115 q 93 162 102 146 q 78 194 85 179 q 71 214 71 210 q 74 227 71 224 q 74 233 77 229 q 63 244 69 240 q 57 254 57 248 q 60 264 57 260 q 62 279 62 268 q 63 307 62 283 q 64 357 64 330 q 64 407 64 385 q 65 431 65 429 q 70 447 65 443 q 82 453 74 450 q 97 466 92 456 q 90 472 103 476 q 65 485 65 461 l 65 663 q 71 674 65 669 q 77 686 77 679 q 74 718 77 693 q 78 758 72 743 q 93 783 81 765 q 117 819 104 800 q 140 853 129 838 q 154 871 151 868 q 162 873 157 875 q 174 870 168 872 q 182 867 179 868 q 186 869 186 865 q 183 887 186 879 q 187 903 180 896 q 204 913 192 905 q 232 929 216 921 q 261 944 248 937 q 279 951 275 950 q 294 946 289 954 q 300 932 300 937 q 311 933 300 918 q 322 950 318 940 q 336 960 326 960 q 354 960 342 960 q 379 959 366 960 q 404 958 393 958 q 418 958 415 958 q 426 954 425 958 q 432 950 427 950 l 457 950 q 467 943 463 950 q 468 929 471 936 q 469 915 465 921 q 473 901 473 908 q 485 903 475 893 q 493 920 494 913 q 501 949 493 935 q 515 958 505 956 q 534 961 525 961 q 563 961 539 961 q 612 960 586 961 q 662 960 639 960 q 689 960 685 960 q 698 955 697 960 q 701 950 699 950 q 708 954 705 950 q 717 958 710 958 l 761 958 q 776 949 768 958 q 783 929 783 940 q 784 904 783 917 q 785 888 785 892 q 780 883 785 884 q 775 873 775 882 q 773 852 775 864 q 775 838 771 840 q 777 828 779 832 q 766 821 774 823 q 762 814 761 819 q 770 807 762 810 q 777 800 777 806 q 777 786 777 794 l 777 733 q 767 718 777 726 q 751 713 758 710 q 729 713 745 715 q 708 710 714 710 q 683 721 693 710 q 667 730 673 732 q 659 720 661 728 q 652 713 657 713 l 534 713 q 519 725 513 713 q 520 738 522 732 q 510 737 518 745 q 503 715 497 726 q 503 707 505 708 q 494 707 501 707 l 435 707 q 411 700 419 707 q 400 689 403 693 q 387 673 397 677 q 376 648 376 668 q 376 628 376 642 q 374 599 375 614 q 373 572 374 585 q 372 557 372 559 q 370 547 372 553 q 357 545 368 542 q 346 539 351 545 q 336 526 340 533 q 330 515 332 519 q 335 511 329 510 q 362 517 346 517 q 379 504 379 517 q 379 476 379 498 q 378 429 379 454 q 378 384 378 404 q 378 361 378 364 q 362 349 378 355 q 347 336 347 343 q 361 325 347 329 q 380 321 375 321 q 391 310 392 321 q 393 289 390 298 q 415 269 399 271 q 439 262 431 268 q 457 256 447 260 q 472 252 467 252 q 482 256 476 252 q 492 261 488 261 q 495 256 493 261 q 498 244 497 250 q 501 234 500 237 q 504 235 503 231 q 538 265 509 258 q 552 269 545 268 q 566 273 559 269 q 577 283 572 277 q 582 304 582 290 q 582 326 582 313 q 583 352 582 339 q 583 376 583 366 q 583 392 583 387 q 580 404 583 399 q 568 397 576 410 q 551 390 561 386 q 538 400 541 395 q 532 410 534 404 q 526 423 529 416 q 521 433 524 429 q 515 435 518 436 q 496 434 505 432 q 488 447 488 436 q 488 468 488 453 q 487 498 488 482 q 486 527 486 514 q 486 545 486 541 q 488 557 486 551 q 496 559 489 562 q 505 560 503 557 q 503 568 507 564 q 492 576 497 574 q 488 583 488 578 q 491 600 488 589 q 501 608 494 611 q 509 609 507 604 q 517 614 510 614 q 541 614 519 614 q 587 614 562 614 q 634 615 612 615 q 659 615 656 615 q 671 610 665 615 q 676 593 677 604 q 684 582 675 586 q 690 587 693 578 q 693 606 689 599 q 704 614 697 614 q 726 618 711 614 q 747 623 741 623 q 755 617 751 623 q 766 612 758 612 q 781 617 774 612 q 794 623 787 623 q 821 623 802 623 q 843 624 840 624 q 858 618 846 624 q 869 600 869 612 q 861 575 869 587 q 852 555 852 564 l 852 524 q 861 519 852 519 q 869 507 869 518 q 869 485 869 504 q 869 438 869 465 q 869 380 869 411 q 868 323 868 350 q 868 278 868 297 q 868 257 868 260 q 860 248 868 248 q 851 239 851 249 q 856 229 851 228 q 861 220 861 229 q 861 196 861 215 q 861 156 861 178 q 860 117 860 135 q 860 94 860 98 q 864 83 860 86 q 875 77 868 81 q 886 61 882 74 q 888 43 890 47 z "},"g":{"ha":933,"x_min":57,"x_max":890,"o":"m 888 43 q 877 31 884 37 q 871 18 871 25 q 860 6 871 12 q 839 0 850 0 q 808 2 828 0 q 775 4 789 4 q 758 2 760 4 q 749 0 757 0 q 726 6 739 0 q 704 17 713 12 q 686 23 696 24 q 671 26 676 22 q 654 38 664 29 q 643 53 644 47 q 641 77 642 68 q 625 86 640 86 q 599 72 607 86 q 587 50 591 57 q 573 27 585 43 q 551 7 562 11 q 530 1 541 4 q 509 -1 519 -1 q 492 -1 497 -1 q 475 0 486 0 q 440 6 456 0 q 412 12 424 12 q 390 5 395 12 q 372 -1 385 -1 q 349 3 361 -1 q 319 7 336 7 q 297 6 306 7 q 275 5 288 5 q 248 13 262 5 q 231 31 233 21 q 216 49 228 40 q 197 60 204 58 q 180 63 191 62 q 164 72 170 64 q 160 84 160 79 q 160 94 160 89 q 159 104 160 98 q 153 117 158 110 q 146 119 149 121 q 140 115 143 118 q 133 111 136 113 q 123 111 129 109 q 110 131 118 115 q 93 162 102 146 q 78 194 85 179 q 71 214 71 210 q 74 227 71 224 q 74 233 77 229 q 63 244 69 240 q 57 254 57 248 q 60 264 57 260 q 62 279 62 268 q 63 307 62 283 q 64 357 64 330 q 64 407 64 385 q 65 431 65 429 q 70 447 65 443 q 82 453 74 450 q 97 466 92 456 q 90 472 103 476 q 65 485 65 461 l 65 663 q 71 674 65 669 q 77 686 77 679 q 74 718 77 693 q 78 758 72 743 q 93 783 81 765 q 117 819 104 800 q 140 853 129 838 q 154 871 151 868 q 162 873 157 875 q 174 870 168 872 q 182 867 179 868 q 186 869 186 865 q 183 887 186 879 q 187 903 180 896 q 204 913 192 905 q 232 929 216 921 q 261 944 248 937 q 279 951 275 950 q 294 946 289 954 q 300 932 300 937 q 311 933 300 918 q 322 950 318 940 q 336 960 326 960 q 354 960 342 960 q 379 959 366 960 q 404 958 393 958 q 418 958 415 958 q 426 954 425 958 q 432 950 427 950 l 457 950 q 467 943 463 950 q 468 929 471 936 q 469 915 465 921 q 473 901 473 908 q 485 903 475 893 q 493 920 494 913 q 501 949 493 935 q 515 958 505 956 q 534 961 525 961 q 563 961 539 961 q 612 960 586 961 q 662 960 639 960 q 689 960 685 960 q 698 955 697 960 q 701 950 699 950 q 708 954 705 950 q 717 958 710 958 l 761 958 q 776 949 768 958 q 783 929 783 940 q 784 904 783 917 q 785 888 785 892 q 780 883 785 884 q 775 873 775 882 q 773 852 775 864 q 775 838 771 840 q 777 828 779 832 q 766 821 774 823 q 762 814 761 819 q 770 807 762 810 q 777 800 777 806 q 777 786 777 794 l 777 733 q 767 718 777 726 q 751 713 758 710 q 729 713 745 715 q 708 710 714 710 q 683 721 693 710 q 667 730 673 732 q 659 720 661 728 q 652 713 657 713 l 534 713 q 519 725 513 713 q 520 738 522 732 q 510 737 518 745 q 503 715 497 726 q 503 707 505 708 q 494 707 501 707 l 435 707 q 411 700 419 707 q 400 689 403 693 q 387 673 397 677 q 376 648 376 668 q 376 628 376 642 q 374 599 375 614 q 373 572 374 585 q 372 557 372 559 q 370 547 372 553 q 357 545 368 542 q 346 539 351 545 q 336 526 340 533 q 330 515 332 519 q 335 511 329 510 q 362 517 346 517 q 379 504 379 517 q 379 476 379 498 q 378 429 379 454 q 378 384 378 404 q 378 361 378 364 q 362 349 378 355 q 347 336 347 343 q 361 325 347 329 q 380 321 375 321 q 391 310 392 321 q 393 289 390 298 q 415 269 399 271 q 439 262 431 268 q 457 256 447 260 q 472 252 467 252 q 482 256 476 252 q 492 261 488 261 q 495 256 493 261 q 498 244 497 250 q 501 234 500 237 q 504 235 503 231 q 538 265 509 258 q 552 269 545 268 q 566 273 559 269 q 577 283 572 277 q 582 304 582 290 q 582 326 582 313 q 583 352 582 339 q 583 376 583 366 q 583 392 583 387 q 580 404 583 399 q 568 397 576 410 q 551 390 561 386 q 538 400 541 395 q 532 410 534 404 q 526 423 529 416 q 521 433 524 429 q 515 435 518 436 q 496 434 505 432 q 488 447 488 436 q 488 468 488 453 q 487 498 488 482 q 486 527 486 514 q 486 545 486 541 q 488 557 486 551 q 496 559 489 562 q 505 560 503 557 q 503 568 507 564 q 492 576 497 574 q 488 583 488 578 q 491 600 488 589 q 501 608 494 611 q 509 609 507 604 q 517 614 510 614 q 541 614 519 614 q 587 614 562 614 q 634 615 612 615 q 659 615 656 615 q 671 610 665 615 q 676 593 677 604 q 684 582 675 586 q 690 587 693 578 q 693 606 689 599 q 704 614 697 614 q 726 618 711 614 q 747 623 741 623 q 755 617 751 623 q 766 612 758 612 q 781 617 774 612 q 794 623 787 623 q 821 623 802 623 q 843 624 840 624 q 858 618 846 624 q 869 600 869 612 q 861 575 869 587 q 852 555 852 564 l 852 524 q 861 519 852 519 q 869 507 869 518 q 869 485 869 504 q 869 438 869 465 q 869 380 869 411 q 868 323 868 350 q 868 278 868 297 q 868 257 868 260 q 860 248 868 248 q 851 239 851 249 q 856 229 851 228 q 861 220 861 229 q 861 196 861 215 q 861 156 861 178 q 860 117 860 135 q 860 94 860 98 q 864 83 860 86 q 875 77 868 81 q 886 61 882 74 q 888 43 890 47 z "}}}
